%TF.GenerationSoftware,KiCad,Pcbnew,8.0.5*%
%TF.CreationDate,2024-10-31T19:08:07-07:00*%
%TF.ProjectId,PIG-19,5049472d-3139-42e6-9b69-6361645f7063,rev?*%
%TF.SameCoordinates,Original*%
%TF.FileFunction,Drillmap*%
%TF.FilePolarity,Positive*%
%FSLAX45Y45*%
G04 Gerber Fmt 4.5, Leading zero omitted, Abs format (unit mm)*
G04 Created by KiCad (PCBNEW 8.0.5) date 2024-10-31 19:08:07*
%MOMM*%
%LPD*%
G01*
G04 APERTURE LIST*
%ADD10C,0.050000*%
%ADD11C,0.200000*%
%ADD12C,0.100000*%
%ADD13C,0.320000*%
G04 APERTURE END LIST*
D10*
X12799726Y-10001214D02*
G75*
G02*
X12499087Y-9702120I-647J299994D01*
G01*
X19199147Y-10000055D02*
X12799726Y-10001214D01*
X12499095Y-9702120D02*
X12487195Y-5758752D01*
X19499936Y-5756905D02*
X19499091Y-9699148D01*
X19499091Y-9699148D02*
G75*
G02*
X19199147Y-10000052I-300001J-902D01*
G01*
X19199846Y-5456841D02*
G75*
G02*
X19499929Y-5756905I94J-299989D01*
G01*
X12787195Y-5458752D02*
X19199846Y-5456841D01*
X12487195Y-5758752D02*
G75*
G02*
X12787195Y-5458746I300005J2D01*
G01*
D11*
D12*
X16190695Y-9407252D02*
X16255695Y-9472252D01*
X16255695Y-9407252D02*
X16190695Y-9472252D01*
X16768695Y-9407252D02*
X16833696Y-9472252D01*
X16833696Y-9407252D02*
X16768695Y-9472252D01*
X15167195Y-9707752D02*
G75*
G02*
X15077195Y-9707752I-45000J0D01*
G01*
X15077195Y-9707752D02*
G75*
G02*
X15167195Y-9707752I45000J0D01*
G01*
X15847195Y-9707752D02*
G75*
G02*
X15757195Y-9707752I-45000J0D01*
G01*
X15757195Y-9707752D02*
G75*
G02*
X15847195Y-9707752I45000J0D01*
G01*
D13*
X12937641Y-5748597D02*
X12937641Y-6068597D01*
X12777641Y-5908597D02*
X13097641Y-5908597D01*
X12950445Y-9396000D02*
X12950445Y-9716000D01*
X12790445Y-9556000D02*
X13110445Y-9556000D01*
X19049555Y-5742597D02*
X19049555Y-6062597D01*
X18889555Y-5902597D02*
X19209555Y-5902597D01*
X19050000Y-9390000D02*
X19050000Y-9710000D01*
X18890000Y-9550000D02*
X19210000Y-9550000D01*
D11*
X12745472Y-10315198D02*
X12745472Y-10115198D01*
X12745472Y-10115198D02*
X12793091Y-10115198D01*
X12793091Y-10115198D02*
X12821663Y-10124722D01*
X12821663Y-10124722D02*
X12840710Y-10143770D01*
X12840710Y-10143770D02*
X12850234Y-10162817D01*
X12850234Y-10162817D02*
X12859758Y-10200913D01*
X12859758Y-10200913D02*
X12859758Y-10229484D01*
X12859758Y-10229484D02*
X12850234Y-10267579D01*
X12850234Y-10267579D02*
X12840710Y-10286627D01*
X12840710Y-10286627D02*
X12821663Y-10305675D01*
X12821663Y-10305675D02*
X12793091Y-10315198D01*
X12793091Y-10315198D02*
X12745472Y-10315198D01*
X12945472Y-10315198D02*
X12945472Y-10181865D01*
X12945472Y-10219960D02*
X12954996Y-10200913D01*
X12954996Y-10200913D02*
X12964520Y-10191389D01*
X12964520Y-10191389D02*
X12983567Y-10181865D01*
X12983567Y-10181865D02*
X13002615Y-10181865D01*
X13069282Y-10315198D02*
X13069282Y-10181865D01*
X13069282Y-10115198D02*
X13059758Y-10124722D01*
X13059758Y-10124722D02*
X13069282Y-10134246D01*
X13069282Y-10134246D02*
X13078806Y-10124722D01*
X13078806Y-10124722D02*
X13069282Y-10115198D01*
X13069282Y-10115198D02*
X13069282Y-10134246D01*
X13193091Y-10315198D02*
X13174044Y-10305675D01*
X13174044Y-10305675D02*
X13164520Y-10286627D01*
X13164520Y-10286627D02*
X13164520Y-10115198D01*
X13297853Y-10315198D02*
X13278806Y-10305675D01*
X13278806Y-10305675D02*
X13269282Y-10286627D01*
X13269282Y-10286627D02*
X13269282Y-10115198D01*
X13526425Y-10315198D02*
X13526425Y-10115198D01*
X13526425Y-10115198D02*
X13593091Y-10258056D01*
X13593091Y-10258056D02*
X13659758Y-10115198D01*
X13659758Y-10115198D02*
X13659758Y-10315198D01*
X13840710Y-10315198D02*
X13840710Y-10210437D01*
X13840710Y-10210437D02*
X13831187Y-10191389D01*
X13831187Y-10191389D02*
X13812139Y-10181865D01*
X13812139Y-10181865D02*
X13774044Y-10181865D01*
X13774044Y-10181865D02*
X13754996Y-10191389D01*
X13840710Y-10305675D02*
X13821663Y-10315198D01*
X13821663Y-10315198D02*
X13774044Y-10315198D01*
X13774044Y-10315198D02*
X13754996Y-10305675D01*
X13754996Y-10305675D02*
X13745472Y-10286627D01*
X13745472Y-10286627D02*
X13745472Y-10267579D01*
X13745472Y-10267579D02*
X13754996Y-10248532D01*
X13754996Y-10248532D02*
X13774044Y-10239008D01*
X13774044Y-10239008D02*
X13821663Y-10239008D01*
X13821663Y-10239008D02*
X13840710Y-10229484D01*
X13935948Y-10181865D02*
X13935948Y-10381865D01*
X13935948Y-10191389D02*
X13954996Y-10181865D01*
X13954996Y-10181865D02*
X13993091Y-10181865D01*
X13993091Y-10181865D02*
X14012139Y-10191389D01*
X14012139Y-10191389D02*
X14021663Y-10200913D01*
X14021663Y-10200913D02*
X14031187Y-10219960D01*
X14031187Y-10219960D02*
X14031187Y-10277103D01*
X14031187Y-10277103D02*
X14021663Y-10296151D01*
X14021663Y-10296151D02*
X14012139Y-10305675D01*
X14012139Y-10305675D02*
X13993091Y-10315198D01*
X13993091Y-10315198D02*
X13954996Y-10315198D01*
X13954996Y-10315198D02*
X13935948Y-10305675D01*
X14116901Y-10296151D02*
X14126425Y-10305675D01*
X14126425Y-10305675D02*
X14116901Y-10315198D01*
X14116901Y-10315198D02*
X14107377Y-10305675D01*
X14107377Y-10305675D02*
X14116901Y-10296151D01*
X14116901Y-10296151D02*
X14116901Y-10315198D01*
X14116901Y-10191389D02*
X14126425Y-10200913D01*
X14126425Y-10200913D02*
X14116901Y-10210437D01*
X14116901Y-10210437D02*
X14107377Y-10200913D01*
X14107377Y-10200913D02*
X14116901Y-10191389D01*
X14116901Y-10191389D02*
X14116901Y-10210437D01*
D12*
X12419695Y-10611215D02*
X12484695Y-10676215D01*
X12484695Y-10611215D02*
X12419695Y-10676215D01*
D11*
X12783567Y-10535198D02*
X12802615Y-10535198D01*
X12802615Y-10535198D02*
X12821663Y-10544722D01*
X12821663Y-10544722D02*
X12831187Y-10554246D01*
X12831187Y-10554246D02*
X12840710Y-10573294D01*
X12840710Y-10573294D02*
X12850234Y-10611389D01*
X12850234Y-10611389D02*
X12850234Y-10659008D01*
X12850234Y-10659008D02*
X12840710Y-10697103D01*
X12840710Y-10697103D02*
X12831187Y-10716151D01*
X12831187Y-10716151D02*
X12821663Y-10725675D01*
X12821663Y-10725675D02*
X12802615Y-10735198D01*
X12802615Y-10735198D02*
X12783567Y-10735198D01*
X12783567Y-10735198D02*
X12764520Y-10725675D01*
X12764520Y-10725675D02*
X12754996Y-10716151D01*
X12754996Y-10716151D02*
X12745472Y-10697103D01*
X12745472Y-10697103D02*
X12735948Y-10659008D01*
X12735948Y-10659008D02*
X12735948Y-10611389D01*
X12735948Y-10611389D02*
X12745472Y-10573294D01*
X12745472Y-10573294D02*
X12754996Y-10554246D01*
X12754996Y-10554246D02*
X12764520Y-10544722D01*
X12764520Y-10544722D02*
X12783567Y-10535198D01*
X12935948Y-10716151D02*
X12945472Y-10725675D01*
X12945472Y-10725675D02*
X12935948Y-10735198D01*
X12935948Y-10735198D02*
X12926425Y-10725675D01*
X12926425Y-10725675D02*
X12935948Y-10716151D01*
X12935948Y-10716151D02*
X12935948Y-10735198D01*
X13116901Y-10535198D02*
X13078806Y-10535198D01*
X13078806Y-10535198D02*
X13059758Y-10544722D01*
X13059758Y-10544722D02*
X13050234Y-10554246D01*
X13050234Y-10554246D02*
X13031187Y-10582817D01*
X13031187Y-10582817D02*
X13021663Y-10620913D01*
X13021663Y-10620913D02*
X13021663Y-10697103D01*
X13021663Y-10697103D02*
X13031187Y-10716151D01*
X13031187Y-10716151D02*
X13040710Y-10725675D01*
X13040710Y-10725675D02*
X13059758Y-10735198D01*
X13059758Y-10735198D02*
X13097853Y-10735198D01*
X13097853Y-10735198D02*
X13116901Y-10725675D01*
X13116901Y-10725675D02*
X13126425Y-10716151D01*
X13126425Y-10716151D02*
X13135948Y-10697103D01*
X13135948Y-10697103D02*
X13135948Y-10649484D01*
X13135948Y-10649484D02*
X13126425Y-10630437D01*
X13126425Y-10630437D02*
X13116901Y-10620913D01*
X13116901Y-10620913D02*
X13097853Y-10611389D01*
X13097853Y-10611389D02*
X13059758Y-10611389D01*
X13059758Y-10611389D02*
X13040710Y-10620913D01*
X13040710Y-10620913D02*
X13031187Y-10630437D01*
X13031187Y-10630437D02*
X13021663Y-10649484D01*
X13316901Y-10535198D02*
X13221663Y-10535198D01*
X13221663Y-10535198D02*
X13212139Y-10630437D01*
X13212139Y-10630437D02*
X13221663Y-10620913D01*
X13221663Y-10620913D02*
X13240710Y-10611389D01*
X13240710Y-10611389D02*
X13288329Y-10611389D01*
X13288329Y-10611389D02*
X13307377Y-10620913D01*
X13307377Y-10620913D02*
X13316901Y-10630437D01*
X13316901Y-10630437D02*
X13326425Y-10649484D01*
X13326425Y-10649484D02*
X13326425Y-10697103D01*
X13326425Y-10697103D02*
X13316901Y-10716151D01*
X13316901Y-10716151D02*
X13307377Y-10725675D01*
X13307377Y-10725675D02*
X13288329Y-10735198D01*
X13288329Y-10735198D02*
X13240710Y-10735198D01*
X13240710Y-10735198D02*
X13221663Y-10725675D01*
X13221663Y-10725675D02*
X13212139Y-10716151D01*
X13450234Y-10535198D02*
X13469282Y-10535198D01*
X13469282Y-10535198D02*
X13488329Y-10544722D01*
X13488329Y-10544722D02*
X13497853Y-10554246D01*
X13497853Y-10554246D02*
X13507377Y-10573294D01*
X13507377Y-10573294D02*
X13516901Y-10611389D01*
X13516901Y-10611389D02*
X13516901Y-10659008D01*
X13516901Y-10659008D02*
X13507377Y-10697103D01*
X13507377Y-10697103D02*
X13497853Y-10716151D01*
X13497853Y-10716151D02*
X13488329Y-10725675D01*
X13488329Y-10725675D02*
X13469282Y-10735198D01*
X13469282Y-10735198D02*
X13450234Y-10735198D01*
X13450234Y-10735198D02*
X13431187Y-10725675D01*
X13431187Y-10725675D02*
X13421663Y-10716151D01*
X13421663Y-10716151D02*
X13412139Y-10697103D01*
X13412139Y-10697103D02*
X13402615Y-10659008D01*
X13402615Y-10659008D02*
X13402615Y-10611389D01*
X13402615Y-10611389D02*
X13412139Y-10573294D01*
X13412139Y-10573294D02*
X13421663Y-10554246D01*
X13421663Y-10554246D02*
X13431187Y-10544722D01*
X13431187Y-10544722D02*
X13450234Y-10535198D01*
X13602615Y-10735198D02*
X13602615Y-10601865D01*
X13602615Y-10620913D02*
X13612139Y-10611389D01*
X13612139Y-10611389D02*
X13631187Y-10601865D01*
X13631187Y-10601865D02*
X13659758Y-10601865D01*
X13659758Y-10601865D02*
X13678806Y-10611389D01*
X13678806Y-10611389D02*
X13688329Y-10630437D01*
X13688329Y-10630437D02*
X13688329Y-10735198D01*
X13688329Y-10630437D02*
X13697853Y-10611389D01*
X13697853Y-10611389D02*
X13716901Y-10601865D01*
X13716901Y-10601865D02*
X13745472Y-10601865D01*
X13745472Y-10601865D02*
X13764520Y-10611389D01*
X13764520Y-10611389D02*
X13774044Y-10630437D01*
X13774044Y-10630437D02*
X13774044Y-10735198D01*
X13869282Y-10735198D02*
X13869282Y-10601865D01*
X13869282Y-10620913D02*
X13878806Y-10611389D01*
X13878806Y-10611389D02*
X13897853Y-10601865D01*
X13897853Y-10601865D02*
X13926425Y-10601865D01*
X13926425Y-10601865D02*
X13945472Y-10611389D01*
X13945472Y-10611389D02*
X13954996Y-10630437D01*
X13954996Y-10630437D02*
X13954996Y-10735198D01*
X13954996Y-10630437D02*
X13964520Y-10611389D01*
X13964520Y-10611389D02*
X13983568Y-10601865D01*
X13983568Y-10601865D02*
X14012139Y-10601865D01*
X14012139Y-10601865D02*
X14031187Y-10611389D01*
X14031187Y-10611389D02*
X14040710Y-10630437D01*
X14040710Y-10630437D02*
X14040710Y-10735198D01*
X14431187Y-10525675D02*
X14259758Y-10782817D01*
X14688330Y-10535198D02*
X14707377Y-10535198D01*
X14707377Y-10535198D02*
X14726425Y-10544722D01*
X14726425Y-10544722D02*
X14735949Y-10554246D01*
X14735949Y-10554246D02*
X14745472Y-10573294D01*
X14745472Y-10573294D02*
X14754996Y-10611389D01*
X14754996Y-10611389D02*
X14754996Y-10659008D01*
X14754996Y-10659008D02*
X14745472Y-10697103D01*
X14745472Y-10697103D02*
X14735949Y-10716151D01*
X14735949Y-10716151D02*
X14726425Y-10725675D01*
X14726425Y-10725675D02*
X14707377Y-10735198D01*
X14707377Y-10735198D02*
X14688330Y-10735198D01*
X14688330Y-10735198D02*
X14669282Y-10725675D01*
X14669282Y-10725675D02*
X14659758Y-10716151D01*
X14659758Y-10716151D02*
X14650234Y-10697103D01*
X14650234Y-10697103D02*
X14640711Y-10659008D01*
X14640711Y-10659008D02*
X14640711Y-10611389D01*
X14640711Y-10611389D02*
X14650234Y-10573294D01*
X14650234Y-10573294D02*
X14659758Y-10554246D01*
X14659758Y-10554246D02*
X14669282Y-10544722D01*
X14669282Y-10544722D02*
X14688330Y-10535198D01*
X14840711Y-10716151D02*
X14850234Y-10725675D01*
X14850234Y-10725675D02*
X14840711Y-10735198D01*
X14840711Y-10735198D02*
X14831187Y-10725675D01*
X14831187Y-10725675D02*
X14840711Y-10716151D01*
X14840711Y-10716151D02*
X14840711Y-10735198D01*
X14974044Y-10535198D02*
X14993092Y-10535198D01*
X14993092Y-10535198D02*
X15012139Y-10544722D01*
X15012139Y-10544722D02*
X15021663Y-10554246D01*
X15021663Y-10554246D02*
X15031187Y-10573294D01*
X15031187Y-10573294D02*
X15040711Y-10611389D01*
X15040711Y-10611389D02*
X15040711Y-10659008D01*
X15040711Y-10659008D02*
X15031187Y-10697103D01*
X15031187Y-10697103D02*
X15021663Y-10716151D01*
X15021663Y-10716151D02*
X15012139Y-10725675D01*
X15012139Y-10725675D02*
X14993092Y-10735198D01*
X14993092Y-10735198D02*
X14974044Y-10735198D01*
X14974044Y-10735198D02*
X14954996Y-10725675D01*
X14954996Y-10725675D02*
X14945472Y-10716151D01*
X14945472Y-10716151D02*
X14935949Y-10697103D01*
X14935949Y-10697103D02*
X14926425Y-10659008D01*
X14926425Y-10659008D02*
X14926425Y-10611389D01*
X14926425Y-10611389D02*
X14935949Y-10573294D01*
X14935949Y-10573294D02*
X14945472Y-10554246D01*
X14945472Y-10554246D02*
X14954996Y-10544722D01*
X14954996Y-10544722D02*
X14974044Y-10535198D01*
X15116901Y-10554246D02*
X15126425Y-10544722D01*
X15126425Y-10544722D02*
X15145472Y-10535198D01*
X15145472Y-10535198D02*
X15193092Y-10535198D01*
X15193092Y-10535198D02*
X15212139Y-10544722D01*
X15212139Y-10544722D02*
X15221663Y-10554246D01*
X15221663Y-10554246D02*
X15231187Y-10573294D01*
X15231187Y-10573294D02*
X15231187Y-10592341D01*
X15231187Y-10592341D02*
X15221663Y-10620913D01*
X15221663Y-10620913D02*
X15107377Y-10735198D01*
X15107377Y-10735198D02*
X15231187Y-10735198D01*
X15412139Y-10535198D02*
X15316901Y-10535198D01*
X15316901Y-10535198D02*
X15307377Y-10630437D01*
X15307377Y-10630437D02*
X15316901Y-10620913D01*
X15316901Y-10620913D02*
X15335949Y-10611389D01*
X15335949Y-10611389D02*
X15383568Y-10611389D01*
X15383568Y-10611389D02*
X15402615Y-10620913D01*
X15402615Y-10620913D02*
X15412139Y-10630437D01*
X15412139Y-10630437D02*
X15421663Y-10649484D01*
X15421663Y-10649484D02*
X15421663Y-10697103D01*
X15421663Y-10697103D02*
X15412139Y-10716151D01*
X15412139Y-10716151D02*
X15402615Y-10725675D01*
X15402615Y-10725675D02*
X15383568Y-10735198D01*
X15383568Y-10735198D02*
X15335949Y-10735198D01*
X15335949Y-10735198D02*
X15316901Y-10725675D01*
X15316901Y-10725675D02*
X15307377Y-10716151D01*
X15593092Y-10535198D02*
X15554996Y-10535198D01*
X15554996Y-10535198D02*
X15535949Y-10544722D01*
X15535949Y-10544722D02*
X15526425Y-10554246D01*
X15526425Y-10554246D02*
X15507377Y-10582817D01*
X15507377Y-10582817D02*
X15497853Y-10620913D01*
X15497853Y-10620913D02*
X15497853Y-10697103D01*
X15497853Y-10697103D02*
X15507377Y-10716151D01*
X15507377Y-10716151D02*
X15516901Y-10725675D01*
X15516901Y-10725675D02*
X15535949Y-10735198D01*
X15535949Y-10735198D02*
X15574044Y-10735198D01*
X15574044Y-10735198D02*
X15593092Y-10725675D01*
X15593092Y-10725675D02*
X15602615Y-10716151D01*
X15602615Y-10716151D02*
X15612139Y-10697103D01*
X15612139Y-10697103D02*
X15612139Y-10649484D01*
X15612139Y-10649484D02*
X15602615Y-10630437D01*
X15602615Y-10630437D02*
X15593092Y-10620913D01*
X15593092Y-10620913D02*
X15574044Y-10611389D01*
X15574044Y-10611389D02*
X15535949Y-10611389D01*
X15535949Y-10611389D02*
X15516901Y-10620913D01*
X15516901Y-10620913D02*
X15507377Y-10630437D01*
X15507377Y-10630437D02*
X15497853Y-10649484D01*
X15688330Y-10535198D02*
X15688330Y-10573294D01*
X15764520Y-10535198D02*
X15764520Y-10573294D01*
X16059758Y-10811389D02*
X16050234Y-10801865D01*
X16050234Y-10801865D02*
X16031187Y-10773294D01*
X16031187Y-10773294D02*
X16021663Y-10754246D01*
X16021663Y-10754246D02*
X16012139Y-10725675D01*
X16012139Y-10725675D02*
X16002615Y-10678056D01*
X16002615Y-10678056D02*
X16002615Y-10639960D01*
X16002615Y-10639960D02*
X16012139Y-10592341D01*
X16012139Y-10592341D02*
X16021663Y-10563770D01*
X16021663Y-10563770D02*
X16031187Y-10544722D01*
X16031187Y-10544722D02*
X16050234Y-10516151D01*
X16050234Y-10516151D02*
X16059758Y-10506627D01*
X16126425Y-10554246D02*
X16135949Y-10544722D01*
X16135949Y-10544722D02*
X16154996Y-10535198D01*
X16154996Y-10535198D02*
X16202615Y-10535198D01*
X16202615Y-10535198D02*
X16221663Y-10544722D01*
X16221663Y-10544722D02*
X16231187Y-10554246D01*
X16231187Y-10554246D02*
X16240711Y-10573294D01*
X16240711Y-10573294D02*
X16240711Y-10592341D01*
X16240711Y-10592341D02*
X16231187Y-10620913D01*
X16231187Y-10620913D02*
X16116901Y-10735198D01*
X16116901Y-10735198D02*
X16240711Y-10735198D01*
X16478806Y-10735198D02*
X16478806Y-10535198D01*
X16564520Y-10735198D02*
X16564520Y-10630437D01*
X16564520Y-10630437D02*
X16554996Y-10611389D01*
X16554996Y-10611389D02*
X16535949Y-10601865D01*
X16535949Y-10601865D02*
X16507377Y-10601865D01*
X16507377Y-10601865D02*
X16488330Y-10611389D01*
X16488330Y-10611389D02*
X16478806Y-10620913D01*
X16688330Y-10735198D02*
X16669282Y-10725675D01*
X16669282Y-10725675D02*
X16659758Y-10716151D01*
X16659758Y-10716151D02*
X16650235Y-10697103D01*
X16650235Y-10697103D02*
X16650235Y-10639960D01*
X16650235Y-10639960D02*
X16659758Y-10620913D01*
X16659758Y-10620913D02*
X16669282Y-10611389D01*
X16669282Y-10611389D02*
X16688330Y-10601865D01*
X16688330Y-10601865D02*
X16716901Y-10601865D01*
X16716901Y-10601865D02*
X16735949Y-10611389D01*
X16735949Y-10611389D02*
X16745473Y-10620913D01*
X16745473Y-10620913D02*
X16754996Y-10639960D01*
X16754996Y-10639960D02*
X16754996Y-10697103D01*
X16754996Y-10697103D02*
X16745473Y-10716151D01*
X16745473Y-10716151D02*
X16735949Y-10725675D01*
X16735949Y-10725675D02*
X16716901Y-10735198D01*
X16716901Y-10735198D02*
X16688330Y-10735198D01*
X16869282Y-10735198D02*
X16850235Y-10725675D01*
X16850235Y-10725675D02*
X16840711Y-10706627D01*
X16840711Y-10706627D02*
X16840711Y-10535198D01*
X17021663Y-10725675D02*
X17002616Y-10735198D01*
X17002616Y-10735198D02*
X16964520Y-10735198D01*
X16964520Y-10735198D02*
X16945473Y-10725675D01*
X16945473Y-10725675D02*
X16935949Y-10706627D01*
X16935949Y-10706627D02*
X16935949Y-10630437D01*
X16935949Y-10630437D02*
X16945473Y-10611389D01*
X16945473Y-10611389D02*
X16964520Y-10601865D01*
X16964520Y-10601865D02*
X17002616Y-10601865D01*
X17002616Y-10601865D02*
X17021663Y-10611389D01*
X17021663Y-10611389D02*
X17031187Y-10630437D01*
X17031187Y-10630437D02*
X17031187Y-10649484D01*
X17031187Y-10649484D02*
X16935949Y-10668532D01*
X17107378Y-10725675D02*
X17126425Y-10735198D01*
X17126425Y-10735198D02*
X17164520Y-10735198D01*
X17164520Y-10735198D02*
X17183568Y-10725675D01*
X17183568Y-10725675D02*
X17193092Y-10706627D01*
X17193092Y-10706627D02*
X17193092Y-10697103D01*
X17193092Y-10697103D02*
X17183568Y-10678056D01*
X17183568Y-10678056D02*
X17164520Y-10668532D01*
X17164520Y-10668532D02*
X17135949Y-10668532D01*
X17135949Y-10668532D02*
X17116901Y-10659008D01*
X17116901Y-10659008D02*
X17107378Y-10639960D01*
X17107378Y-10639960D02*
X17107378Y-10630437D01*
X17107378Y-10630437D02*
X17116901Y-10611389D01*
X17116901Y-10611389D02*
X17135949Y-10601865D01*
X17135949Y-10601865D02*
X17164520Y-10601865D01*
X17164520Y-10601865D02*
X17183568Y-10611389D01*
X17259759Y-10811389D02*
X17269282Y-10801865D01*
X17269282Y-10801865D02*
X17288330Y-10773294D01*
X17288330Y-10773294D02*
X17297854Y-10754246D01*
X17297854Y-10754246D02*
X17307378Y-10725675D01*
X17307378Y-10725675D02*
X17316901Y-10678056D01*
X17316901Y-10678056D02*
X17316901Y-10639960D01*
X17316901Y-10639960D02*
X17307378Y-10592341D01*
X17307378Y-10592341D02*
X17297854Y-10563770D01*
X17297854Y-10563770D02*
X17288330Y-10544722D01*
X17288330Y-10544722D02*
X17269282Y-10516151D01*
X17269282Y-10516151D02*
X17259759Y-10506627D01*
X17621663Y-10811389D02*
X17612139Y-10801865D01*
X17612139Y-10801865D02*
X17593092Y-10773294D01*
X17593092Y-10773294D02*
X17583568Y-10754246D01*
X17583568Y-10754246D02*
X17574044Y-10725675D01*
X17574044Y-10725675D02*
X17564520Y-10678056D01*
X17564520Y-10678056D02*
X17564520Y-10639960D01*
X17564520Y-10639960D02*
X17574044Y-10592341D01*
X17574044Y-10592341D02*
X17583568Y-10563770D01*
X17583568Y-10563770D02*
X17593092Y-10544722D01*
X17593092Y-10544722D02*
X17612139Y-10516151D01*
X17612139Y-10516151D02*
X17621663Y-10506627D01*
X17697854Y-10601865D02*
X17697854Y-10735198D01*
X17697854Y-10620913D02*
X17707378Y-10611389D01*
X17707378Y-10611389D02*
X17726425Y-10601865D01*
X17726425Y-10601865D02*
X17754997Y-10601865D01*
X17754997Y-10601865D02*
X17774044Y-10611389D01*
X17774044Y-10611389D02*
X17783568Y-10630437D01*
X17783568Y-10630437D02*
X17783568Y-10735198D01*
X17907378Y-10735198D02*
X17888330Y-10725675D01*
X17888330Y-10725675D02*
X17878806Y-10716151D01*
X17878806Y-10716151D02*
X17869282Y-10697103D01*
X17869282Y-10697103D02*
X17869282Y-10639960D01*
X17869282Y-10639960D02*
X17878806Y-10620913D01*
X17878806Y-10620913D02*
X17888330Y-10611389D01*
X17888330Y-10611389D02*
X17907378Y-10601865D01*
X17907378Y-10601865D02*
X17935949Y-10601865D01*
X17935949Y-10601865D02*
X17954997Y-10611389D01*
X17954997Y-10611389D02*
X17964520Y-10620913D01*
X17964520Y-10620913D02*
X17974044Y-10639960D01*
X17974044Y-10639960D02*
X17974044Y-10697103D01*
X17974044Y-10697103D02*
X17964520Y-10716151D01*
X17964520Y-10716151D02*
X17954997Y-10725675D01*
X17954997Y-10725675D02*
X17935949Y-10735198D01*
X17935949Y-10735198D02*
X17907378Y-10735198D01*
X18031187Y-10601865D02*
X18107378Y-10601865D01*
X18059759Y-10535198D02*
X18059759Y-10706627D01*
X18059759Y-10706627D02*
X18069282Y-10725675D01*
X18069282Y-10725675D02*
X18088330Y-10735198D01*
X18088330Y-10735198D02*
X18107378Y-10735198D01*
X18326425Y-10601865D02*
X18326425Y-10801865D01*
X18326425Y-10611389D02*
X18345473Y-10601865D01*
X18345473Y-10601865D02*
X18383568Y-10601865D01*
X18383568Y-10601865D02*
X18402616Y-10611389D01*
X18402616Y-10611389D02*
X18412140Y-10620913D01*
X18412140Y-10620913D02*
X18421663Y-10639960D01*
X18421663Y-10639960D02*
X18421663Y-10697103D01*
X18421663Y-10697103D02*
X18412140Y-10716151D01*
X18412140Y-10716151D02*
X18402616Y-10725675D01*
X18402616Y-10725675D02*
X18383568Y-10735198D01*
X18383568Y-10735198D02*
X18345473Y-10735198D01*
X18345473Y-10735198D02*
X18326425Y-10725675D01*
X18535949Y-10735198D02*
X18516901Y-10725675D01*
X18516901Y-10725675D02*
X18507378Y-10706627D01*
X18507378Y-10706627D02*
X18507378Y-10535198D01*
X18697854Y-10735198D02*
X18697854Y-10630437D01*
X18697854Y-10630437D02*
X18688330Y-10611389D01*
X18688330Y-10611389D02*
X18669282Y-10601865D01*
X18669282Y-10601865D02*
X18631187Y-10601865D01*
X18631187Y-10601865D02*
X18612140Y-10611389D01*
X18697854Y-10725675D02*
X18678806Y-10735198D01*
X18678806Y-10735198D02*
X18631187Y-10735198D01*
X18631187Y-10735198D02*
X18612140Y-10725675D01*
X18612140Y-10725675D02*
X18602616Y-10706627D01*
X18602616Y-10706627D02*
X18602616Y-10687579D01*
X18602616Y-10687579D02*
X18612140Y-10668532D01*
X18612140Y-10668532D02*
X18631187Y-10659008D01*
X18631187Y-10659008D02*
X18678806Y-10659008D01*
X18678806Y-10659008D02*
X18697854Y-10649484D01*
X18764521Y-10601865D02*
X18840711Y-10601865D01*
X18793092Y-10535198D02*
X18793092Y-10706627D01*
X18793092Y-10706627D02*
X18802616Y-10725675D01*
X18802616Y-10725675D02*
X18821663Y-10735198D01*
X18821663Y-10735198D02*
X18840711Y-10735198D01*
X18983568Y-10725675D02*
X18964521Y-10735198D01*
X18964521Y-10735198D02*
X18926425Y-10735198D01*
X18926425Y-10735198D02*
X18907378Y-10725675D01*
X18907378Y-10725675D02*
X18897854Y-10706627D01*
X18897854Y-10706627D02*
X18897854Y-10630437D01*
X18897854Y-10630437D02*
X18907378Y-10611389D01*
X18907378Y-10611389D02*
X18926425Y-10601865D01*
X18926425Y-10601865D02*
X18964521Y-10601865D01*
X18964521Y-10601865D02*
X18983568Y-10611389D01*
X18983568Y-10611389D02*
X18993092Y-10630437D01*
X18993092Y-10630437D02*
X18993092Y-10649484D01*
X18993092Y-10649484D02*
X18897854Y-10668532D01*
X19164521Y-10735198D02*
X19164521Y-10535198D01*
X19164521Y-10725675D02*
X19145473Y-10735198D01*
X19145473Y-10735198D02*
X19107378Y-10735198D01*
X19107378Y-10735198D02*
X19088330Y-10725675D01*
X19088330Y-10725675D02*
X19078806Y-10716151D01*
X19078806Y-10716151D02*
X19069282Y-10697103D01*
X19069282Y-10697103D02*
X19069282Y-10639960D01*
X19069282Y-10639960D02*
X19078806Y-10620913D01*
X19078806Y-10620913D02*
X19088330Y-10611389D01*
X19088330Y-10611389D02*
X19107378Y-10601865D01*
X19107378Y-10601865D02*
X19145473Y-10601865D01*
X19145473Y-10601865D02*
X19164521Y-10611389D01*
X19240711Y-10811389D02*
X19250235Y-10801865D01*
X19250235Y-10801865D02*
X19269282Y-10773294D01*
X19269282Y-10773294D02*
X19278806Y-10754246D01*
X19278806Y-10754246D02*
X19288330Y-10725675D01*
X19288330Y-10725675D02*
X19297854Y-10678056D01*
X19297854Y-10678056D02*
X19297854Y-10639960D01*
X19297854Y-10639960D02*
X19288330Y-10592341D01*
X19288330Y-10592341D02*
X19278806Y-10563770D01*
X19278806Y-10563770D02*
X19269282Y-10544722D01*
X19269282Y-10544722D02*
X19250235Y-10516151D01*
X19250235Y-10516151D02*
X19240711Y-10506627D01*
D12*
X12484695Y-10907715D02*
G75*
G02*
X12394695Y-10907715I-45000J0D01*
G01*
X12394695Y-10907715D02*
G75*
G02*
X12484695Y-10907715I45000J0D01*
G01*
D11*
X12783567Y-10799198D02*
X12802615Y-10799198D01*
X12802615Y-10799198D02*
X12821663Y-10808722D01*
X12821663Y-10808722D02*
X12831187Y-10818246D01*
X12831187Y-10818246D02*
X12840710Y-10837294D01*
X12840710Y-10837294D02*
X12850234Y-10875389D01*
X12850234Y-10875389D02*
X12850234Y-10923008D01*
X12850234Y-10923008D02*
X12840710Y-10961103D01*
X12840710Y-10961103D02*
X12831187Y-10980151D01*
X12831187Y-10980151D02*
X12821663Y-10989675D01*
X12821663Y-10989675D02*
X12802615Y-10999198D01*
X12802615Y-10999198D02*
X12783567Y-10999198D01*
X12783567Y-10999198D02*
X12764520Y-10989675D01*
X12764520Y-10989675D02*
X12754996Y-10980151D01*
X12754996Y-10980151D02*
X12745472Y-10961103D01*
X12745472Y-10961103D02*
X12735948Y-10923008D01*
X12735948Y-10923008D02*
X12735948Y-10875389D01*
X12735948Y-10875389D02*
X12745472Y-10837294D01*
X12745472Y-10837294D02*
X12754996Y-10818246D01*
X12754996Y-10818246D02*
X12764520Y-10808722D01*
X12764520Y-10808722D02*
X12783567Y-10799198D01*
X12935948Y-10980151D02*
X12945472Y-10989675D01*
X12945472Y-10989675D02*
X12935948Y-10999198D01*
X12935948Y-10999198D02*
X12926425Y-10989675D01*
X12926425Y-10989675D02*
X12935948Y-10980151D01*
X12935948Y-10980151D02*
X12935948Y-10999198D01*
X13040710Y-10999198D02*
X13078806Y-10999198D01*
X13078806Y-10999198D02*
X13097853Y-10989675D01*
X13097853Y-10989675D02*
X13107377Y-10980151D01*
X13107377Y-10980151D02*
X13126425Y-10951579D01*
X13126425Y-10951579D02*
X13135948Y-10913484D01*
X13135948Y-10913484D02*
X13135948Y-10837294D01*
X13135948Y-10837294D02*
X13126425Y-10818246D01*
X13126425Y-10818246D02*
X13116901Y-10808722D01*
X13116901Y-10808722D02*
X13097853Y-10799198D01*
X13097853Y-10799198D02*
X13059758Y-10799198D01*
X13059758Y-10799198D02*
X13040710Y-10808722D01*
X13040710Y-10808722D02*
X13031187Y-10818246D01*
X13031187Y-10818246D02*
X13021663Y-10837294D01*
X13021663Y-10837294D02*
X13021663Y-10884913D01*
X13021663Y-10884913D02*
X13031187Y-10903960D01*
X13031187Y-10903960D02*
X13040710Y-10913484D01*
X13040710Y-10913484D02*
X13059758Y-10923008D01*
X13059758Y-10923008D02*
X13097853Y-10923008D01*
X13097853Y-10923008D02*
X13116901Y-10913484D01*
X13116901Y-10913484D02*
X13126425Y-10903960D01*
X13126425Y-10903960D02*
X13135948Y-10884913D01*
X13259758Y-10799198D02*
X13278806Y-10799198D01*
X13278806Y-10799198D02*
X13297853Y-10808722D01*
X13297853Y-10808722D02*
X13307377Y-10818246D01*
X13307377Y-10818246D02*
X13316901Y-10837294D01*
X13316901Y-10837294D02*
X13326425Y-10875389D01*
X13326425Y-10875389D02*
X13326425Y-10923008D01*
X13326425Y-10923008D02*
X13316901Y-10961103D01*
X13316901Y-10961103D02*
X13307377Y-10980151D01*
X13307377Y-10980151D02*
X13297853Y-10989675D01*
X13297853Y-10989675D02*
X13278806Y-10999198D01*
X13278806Y-10999198D02*
X13259758Y-10999198D01*
X13259758Y-10999198D02*
X13240710Y-10989675D01*
X13240710Y-10989675D02*
X13231187Y-10980151D01*
X13231187Y-10980151D02*
X13221663Y-10961103D01*
X13221663Y-10961103D02*
X13212139Y-10923008D01*
X13212139Y-10923008D02*
X13212139Y-10875389D01*
X13212139Y-10875389D02*
X13221663Y-10837294D01*
X13221663Y-10837294D02*
X13231187Y-10818246D01*
X13231187Y-10818246D02*
X13240710Y-10808722D01*
X13240710Y-10808722D02*
X13259758Y-10799198D01*
X13450234Y-10799198D02*
X13469282Y-10799198D01*
X13469282Y-10799198D02*
X13488329Y-10808722D01*
X13488329Y-10808722D02*
X13497853Y-10818246D01*
X13497853Y-10818246D02*
X13507377Y-10837294D01*
X13507377Y-10837294D02*
X13516901Y-10875389D01*
X13516901Y-10875389D02*
X13516901Y-10923008D01*
X13516901Y-10923008D02*
X13507377Y-10961103D01*
X13507377Y-10961103D02*
X13497853Y-10980151D01*
X13497853Y-10980151D02*
X13488329Y-10989675D01*
X13488329Y-10989675D02*
X13469282Y-10999198D01*
X13469282Y-10999198D02*
X13450234Y-10999198D01*
X13450234Y-10999198D02*
X13431187Y-10989675D01*
X13431187Y-10989675D02*
X13421663Y-10980151D01*
X13421663Y-10980151D02*
X13412139Y-10961103D01*
X13412139Y-10961103D02*
X13402615Y-10923008D01*
X13402615Y-10923008D02*
X13402615Y-10875389D01*
X13402615Y-10875389D02*
X13412139Y-10837294D01*
X13412139Y-10837294D02*
X13421663Y-10818246D01*
X13421663Y-10818246D02*
X13431187Y-10808722D01*
X13431187Y-10808722D02*
X13450234Y-10799198D01*
X13602615Y-10999198D02*
X13602615Y-10865865D01*
X13602615Y-10884913D02*
X13612139Y-10875389D01*
X13612139Y-10875389D02*
X13631187Y-10865865D01*
X13631187Y-10865865D02*
X13659758Y-10865865D01*
X13659758Y-10865865D02*
X13678806Y-10875389D01*
X13678806Y-10875389D02*
X13688329Y-10894437D01*
X13688329Y-10894437D02*
X13688329Y-10999198D01*
X13688329Y-10894437D02*
X13697853Y-10875389D01*
X13697853Y-10875389D02*
X13716901Y-10865865D01*
X13716901Y-10865865D02*
X13745472Y-10865865D01*
X13745472Y-10865865D02*
X13764520Y-10875389D01*
X13764520Y-10875389D02*
X13774044Y-10894437D01*
X13774044Y-10894437D02*
X13774044Y-10999198D01*
X13869282Y-10999198D02*
X13869282Y-10865865D01*
X13869282Y-10884913D02*
X13878806Y-10875389D01*
X13878806Y-10875389D02*
X13897853Y-10865865D01*
X13897853Y-10865865D02*
X13926425Y-10865865D01*
X13926425Y-10865865D02*
X13945472Y-10875389D01*
X13945472Y-10875389D02*
X13954996Y-10894437D01*
X13954996Y-10894437D02*
X13954996Y-10999198D01*
X13954996Y-10894437D02*
X13964520Y-10875389D01*
X13964520Y-10875389D02*
X13983568Y-10865865D01*
X13983568Y-10865865D02*
X14012139Y-10865865D01*
X14012139Y-10865865D02*
X14031187Y-10875389D01*
X14031187Y-10875389D02*
X14040710Y-10894437D01*
X14040710Y-10894437D02*
X14040710Y-10999198D01*
X14431187Y-10789675D02*
X14259758Y-11046817D01*
X14688330Y-10799198D02*
X14707377Y-10799198D01*
X14707377Y-10799198D02*
X14726425Y-10808722D01*
X14726425Y-10808722D02*
X14735949Y-10818246D01*
X14735949Y-10818246D02*
X14745472Y-10837294D01*
X14745472Y-10837294D02*
X14754996Y-10875389D01*
X14754996Y-10875389D02*
X14754996Y-10923008D01*
X14754996Y-10923008D02*
X14745472Y-10961103D01*
X14745472Y-10961103D02*
X14735949Y-10980151D01*
X14735949Y-10980151D02*
X14726425Y-10989675D01*
X14726425Y-10989675D02*
X14707377Y-10999198D01*
X14707377Y-10999198D02*
X14688330Y-10999198D01*
X14688330Y-10999198D02*
X14669282Y-10989675D01*
X14669282Y-10989675D02*
X14659758Y-10980151D01*
X14659758Y-10980151D02*
X14650234Y-10961103D01*
X14650234Y-10961103D02*
X14640711Y-10923008D01*
X14640711Y-10923008D02*
X14640711Y-10875389D01*
X14640711Y-10875389D02*
X14650234Y-10837294D01*
X14650234Y-10837294D02*
X14659758Y-10818246D01*
X14659758Y-10818246D02*
X14669282Y-10808722D01*
X14669282Y-10808722D02*
X14688330Y-10799198D01*
X14840711Y-10980151D02*
X14850234Y-10989675D01*
X14850234Y-10989675D02*
X14840711Y-10999198D01*
X14840711Y-10999198D02*
X14831187Y-10989675D01*
X14831187Y-10989675D02*
X14840711Y-10980151D01*
X14840711Y-10980151D02*
X14840711Y-10999198D01*
X14974044Y-10799198D02*
X14993092Y-10799198D01*
X14993092Y-10799198D02*
X15012139Y-10808722D01*
X15012139Y-10808722D02*
X15021663Y-10818246D01*
X15021663Y-10818246D02*
X15031187Y-10837294D01*
X15031187Y-10837294D02*
X15040711Y-10875389D01*
X15040711Y-10875389D02*
X15040711Y-10923008D01*
X15040711Y-10923008D02*
X15031187Y-10961103D01*
X15031187Y-10961103D02*
X15021663Y-10980151D01*
X15021663Y-10980151D02*
X15012139Y-10989675D01*
X15012139Y-10989675D02*
X14993092Y-10999198D01*
X14993092Y-10999198D02*
X14974044Y-10999198D01*
X14974044Y-10999198D02*
X14954996Y-10989675D01*
X14954996Y-10989675D02*
X14945472Y-10980151D01*
X14945472Y-10980151D02*
X14935949Y-10961103D01*
X14935949Y-10961103D02*
X14926425Y-10923008D01*
X14926425Y-10923008D02*
X14926425Y-10875389D01*
X14926425Y-10875389D02*
X14935949Y-10837294D01*
X14935949Y-10837294D02*
X14945472Y-10818246D01*
X14945472Y-10818246D02*
X14954996Y-10808722D01*
X14954996Y-10808722D02*
X14974044Y-10799198D01*
X15107377Y-10799198D02*
X15231187Y-10799198D01*
X15231187Y-10799198D02*
X15164520Y-10875389D01*
X15164520Y-10875389D02*
X15193092Y-10875389D01*
X15193092Y-10875389D02*
X15212139Y-10884913D01*
X15212139Y-10884913D02*
X15221663Y-10894437D01*
X15221663Y-10894437D02*
X15231187Y-10913484D01*
X15231187Y-10913484D02*
X15231187Y-10961103D01*
X15231187Y-10961103D02*
X15221663Y-10980151D01*
X15221663Y-10980151D02*
X15212139Y-10989675D01*
X15212139Y-10989675D02*
X15193092Y-10999198D01*
X15193092Y-10999198D02*
X15135949Y-10999198D01*
X15135949Y-10999198D02*
X15116901Y-10989675D01*
X15116901Y-10989675D02*
X15107377Y-10980151D01*
X15412139Y-10799198D02*
X15316901Y-10799198D01*
X15316901Y-10799198D02*
X15307377Y-10894437D01*
X15307377Y-10894437D02*
X15316901Y-10884913D01*
X15316901Y-10884913D02*
X15335949Y-10875389D01*
X15335949Y-10875389D02*
X15383568Y-10875389D01*
X15383568Y-10875389D02*
X15402615Y-10884913D01*
X15402615Y-10884913D02*
X15412139Y-10894437D01*
X15412139Y-10894437D02*
X15421663Y-10913484D01*
X15421663Y-10913484D02*
X15421663Y-10961103D01*
X15421663Y-10961103D02*
X15412139Y-10980151D01*
X15412139Y-10980151D02*
X15402615Y-10989675D01*
X15402615Y-10989675D02*
X15383568Y-10999198D01*
X15383568Y-10999198D02*
X15335949Y-10999198D01*
X15335949Y-10999198D02*
X15316901Y-10989675D01*
X15316901Y-10989675D02*
X15307377Y-10980151D01*
X15593092Y-10865865D02*
X15593092Y-10999198D01*
X15545472Y-10789675D02*
X15497853Y-10932532D01*
X15497853Y-10932532D02*
X15621663Y-10932532D01*
X15688330Y-10799198D02*
X15688330Y-10837294D01*
X15764520Y-10799198D02*
X15764520Y-10837294D01*
X16059758Y-11075389D02*
X16050234Y-11065865D01*
X16050234Y-11065865D02*
X16031187Y-11037294D01*
X16031187Y-11037294D02*
X16021663Y-11018246D01*
X16021663Y-11018246D02*
X16012139Y-10989675D01*
X16012139Y-10989675D02*
X16002615Y-10942056D01*
X16002615Y-10942056D02*
X16002615Y-10903960D01*
X16002615Y-10903960D02*
X16012139Y-10856341D01*
X16012139Y-10856341D02*
X16021663Y-10827770D01*
X16021663Y-10827770D02*
X16031187Y-10808722D01*
X16031187Y-10808722D02*
X16050234Y-10780151D01*
X16050234Y-10780151D02*
X16059758Y-10770627D01*
X16126425Y-10818246D02*
X16135949Y-10808722D01*
X16135949Y-10808722D02*
X16154996Y-10799198D01*
X16154996Y-10799198D02*
X16202615Y-10799198D01*
X16202615Y-10799198D02*
X16221663Y-10808722D01*
X16221663Y-10808722D02*
X16231187Y-10818246D01*
X16231187Y-10818246D02*
X16240711Y-10837294D01*
X16240711Y-10837294D02*
X16240711Y-10856341D01*
X16240711Y-10856341D02*
X16231187Y-10884913D01*
X16231187Y-10884913D02*
X16116901Y-10999198D01*
X16116901Y-10999198D02*
X16240711Y-10999198D01*
X16478806Y-10999198D02*
X16478806Y-10799198D01*
X16564520Y-10999198D02*
X16564520Y-10894437D01*
X16564520Y-10894437D02*
X16554996Y-10875389D01*
X16554996Y-10875389D02*
X16535949Y-10865865D01*
X16535949Y-10865865D02*
X16507377Y-10865865D01*
X16507377Y-10865865D02*
X16488330Y-10875389D01*
X16488330Y-10875389D02*
X16478806Y-10884913D01*
X16688330Y-10999198D02*
X16669282Y-10989675D01*
X16669282Y-10989675D02*
X16659758Y-10980151D01*
X16659758Y-10980151D02*
X16650235Y-10961103D01*
X16650235Y-10961103D02*
X16650235Y-10903960D01*
X16650235Y-10903960D02*
X16659758Y-10884913D01*
X16659758Y-10884913D02*
X16669282Y-10875389D01*
X16669282Y-10875389D02*
X16688330Y-10865865D01*
X16688330Y-10865865D02*
X16716901Y-10865865D01*
X16716901Y-10865865D02*
X16735949Y-10875389D01*
X16735949Y-10875389D02*
X16745473Y-10884913D01*
X16745473Y-10884913D02*
X16754996Y-10903960D01*
X16754996Y-10903960D02*
X16754996Y-10961103D01*
X16754996Y-10961103D02*
X16745473Y-10980151D01*
X16745473Y-10980151D02*
X16735949Y-10989675D01*
X16735949Y-10989675D02*
X16716901Y-10999198D01*
X16716901Y-10999198D02*
X16688330Y-10999198D01*
X16869282Y-10999198D02*
X16850235Y-10989675D01*
X16850235Y-10989675D02*
X16840711Y-10970627D01*
X16840711Y-10970627D02*
X16840711Y-10799198D01*
X17021663Y-10989675D02*
X17002616Y-10999198D01*
X17002616Y-10999198D02*
X16964520Y-10999198D01*
X16964520Y-10999198D02*
X16945473Y-10989675D01*
X16945473Y-10989675D02*
X16935949Y-10970627D01*
X16935949Y-10970627D02*
X16935949Y-10894437D01*
X16935949Y-10894437D02*
X16945473Y-10875389D01*
X16945473Y-10875389D02*
X16964520Y-10865865D01*
X16964520Y-10865865D02*
X17002616Y-10865865D01*
X17002616Y-10865865D02*
X17021663Y-10875389D01*
X17021663Y-10875389D02*
X17031187Y-10894437D01*
X17031187Y-10894437D02*
X17031187Y-10913484D01*
X17031187Y-10913484D02*
X16935949Y-10932532D01*
X17107378Y-10989675D02*
X17126425Y-10999198D01*
X17126425Y-10999198D02*
X17164520Y-10999198D01*
X17164520Y-10999198D02*
X17183568Y-10989675D01*
X17183568Y-10989675D02*
X17193092Y-10970627D01*
X17193092Y-10970627D02*
X17193092Y-10961103D01*
X17193092Y-10961103D02*
X17183568Y-10942056D01*
X17183568Y-10942056D02*
X17164520Y-10932532D01*
X17164520Y-10932532D02*
X17135949Y-10932532D01*
X17135949Y-10932532D02*
X17116901Y-10923008D01*
X17116901Y-10923008D02*
X17107378Y-10903960D01*
X17107378Y-10903960D02*
X17107378Y-10894437D01*
X17107378Y-10894437D02*
X17116901Y-10875389D01*
X17116901Y-10875389D02*
X17135949Y-10865865D01*
X17135949Y-10865865D02*
X17164520Y-10865865D01*
X17164520Y-10865865D02*
X17183568Y-10875389D01*
X17259759Y-11075389D02*
X17269282Y-11065865D01*
X17269282Y-11065865D02*
X17288330Y-11037294D01*
X17288330Y-11037294D02*
X17297854Y-11018246D01*
X17297854Y-11018246D02*
X17307378Y-10989675D01*
X17307378Y-10989675D02*
X17316901Y-10942056D01*
X17316901Y-10942056D02*
X17316901Y-10903960D01*
X17316901Y-10903960D02*
X17307378Y-10856341D01*
X17307378Y-10856341D02*
X17297854Y-10827770D01*
X17297854Y-10827770D02*
X17288330Y-10808722D01*
X17288330Y-10808722D02*
X17269282Y-10780151D01*
X17269282Y-10780151D02*
X17259759Y-10770627D01*
X17621663Y-11075389D02*
X17612139Y-11065865D01*
X17612139Y-11065865D02*
X17593092Y-11037294D01*
X17593092Y-11037294D02*
X17583568Y-11018246D01*
X17583568Y-11018246D02*
X17574044Y-10989675D01*
X17574044Y-10989675D02*
X17564520Y-10942056D01*
X17564520Y-10942056D02*
X17564520Y-10903960D01*
X17564520Y-10903960D02*
X17574044Y-10856341D01*
X17574044Y-10856341D02*
X17583568Y-10827770D01*
X17583568Y-10827770D02*
X17593092Y-10808722D01*
X17593092Y-10808722D02*
X17612139Y-10780151D01*
X17612139Y-10780151D02*
X17621663Y-10770627D01*
X17697854Y-10865865D02*
X17697854Y-10999198D01*
X17697854Y-10884913D02*
X17707378Y-10875389D01*
X17707378Y-10875389D02*
X17726425Y-10865865D01*
X17726425Y-10865865D02*
X17754997Y-10865865D01*
X17754997Y-10865865D02*
X17774044Y-10875389D01*
X17774044Y-10875389D02*
X17783568Y-10894437D01*
X17783568Y-10894437D02*
X17783568Y-10999198D01*
X17907378Y-10999198D02*
X17888330Y-10989675D01*
X17888330Y-10989675D02*
X17878806Y-10980151D01*
X17878806Y-10980151D02*
X17869282Y-10961103D01*
X17869282Y-10961103D02*
X17869282Y-10903960D01*
X17869282Y-10903960D02*
X17878806Y-10884913D01*
X17878806Y-10884913D02*
X17888330Y-10875389D01*
X17888330Y-10875389D02*
X17907378Y-10865865D01*
X17907378Y-10865865D02*
X17935949Y-10865865D01*
X17935949Y-10865865D02*
X17954997Y-10875389D01*
X17954997Y-10875389D02*
X17964520Y-10884913D01*
X17964520Y-10884913D02*
X17974044Y-10903960D01*
X17974044Y-10903960D02*
X17974044Y-10961103D01*
X17974044Y-10961103D02*
X17964520Y-10980151D01*
X17964520Y-10980151D02*
X17954997Y-10989675D01*
X17954997Y-10989675D02*
X17935949Y-10999198D01*
X17935949Y-10999198D02*
X17907378Y-10999198D01*
X18031187Y-10865865D02*
X18107378Y-10865865D01*
X18059759Y-10799198D02*
X18059759Y-10970627D01*
X18059759Y-10970627D02*
X18069282Y-10989675D01*
X18069282Y-10989675D02*
X18088330Y-10999198D01*
X18088330Y-10999198D02*
X18107378Y-10999198D01*
X18326425Y-10865865D02*
X18326425Y-11065865D01*
X18326425Y-10875389D02*
X18345473Y-10865865D01*
X18345473Y-10865865D02*
X18383568Y-10865865D01*
X18383568Y-10865865D02*
X18402616Y-10875389D01*
X18402616Y-10875389D02*
X18412140Y-10884913D01*
X18412140Y-10884913D02*
X18421663Y-10903960D01*
X18421663Y-10903960D02*
X18421663Y-10961103D01*
X18421663Y-10961103D02*
X18412140Y-10980151D01*
X18412140Y-10980151D02*
X18402616Y-10989675D01*
X18402616Y-10989675D02*
X18383568Y-10999198D01*
X18383568Y-10999198D02*
X18345473Y-10999198D01*
X18345473Y-10999198D02*
X18326425Y-10989675D01*
X18535949Y-10999198D02*
X18516901Y-10989675D01*
X18516901Y-10989675D02*
X18507378Y-10970627D01*
X18507378Y-10970627D02*
X18507378Y-10799198D01*
X18697854Y-10999198D02*
X18697854Y-10894437D01*
X18697854Y-10894437D02*
X18688330Y-10875389D01*
X18688330Y-10875389D02*
X18669282Y-10865865D01*
X18669282Y-10865865D02*
X18631187Y-10865865D01*
X18631187Y-10865865D02*
X18612140Y-10875389D01*
X18697854Y-10989675D02*
X18678806Y-10999198D01*
X18678806Y-10999198D02*
X18631187Y-10999198D01*
X18631187Y-10999198D02*
X18612140Y-10989675D01*
X18612140Y-10989675D02*
X18602616Y-10970627D01*
X18602616Y-10970627D02*
X18602616Y-10951579D01*
X18602616Y-10951579D02*
X18612140Y-10932532D01*
X18612140Y-10932532D02*
X18631187Y-10923008D01*
X18631187Y-10923008D02*
X18678806Y-10923008D01*
X18678806Y-10923008D02*
X18697854Y-10913484D01*
X18764521Y-10865865D02*
X18840711Y-10865865D01*
X18793092Y-10799198D02*
X18793092Y-10970627D01*
X18793092Y-10970627D02*
X18802616Y-10989675D01*
X18802616Y-10989675D02*
X18821663Y-10999198D01*
X18821663Y-10999198D02*
X18840711Y-10999198D01*
X18983568Y-10989675D02*
X18964521Y-10999198D01*
X18964521Y-10999198D02*
X18926425Y-10999198D01*
X18926425Y-10999198D02*
X18907378Y-10989675D01*
X18907378Y-10989675D02*
X18897854Y-10970627D01*
X18897854Y-10970627D02*
X18897854Y-10894437D01*
X18897854Y-10894437D02*
X18907378Y-10875389D01*
X18907378Y-10875389D02*
X18926425Y-10865865D01*
X18926425Y-10865865D02*
X18964521Y-10865865D01*
X18964521Y-10865865D02*
X18983568Y-10875389D01*
X18983568Y-10875389D02*
X18993092Y-10894437D01*
X18993092Y-10894437D02*
X18993092Y-10913484D01*
X18993092Y-10913484D02*
X18897854Y-10932532D01*
X19164521Y-10999198D02*
X19164521Y-10799198D01*
X19164521Y-10989675D02*
X19145473Y-10999198D01*
X19145473Y-10999198D02*
X19107378Y-10999198D01*
X19107378Y-10999198D02*
X19088330Y-10989675D01*
X19088330Y-10989675D02*
X19078806Y-10980151D01*
X19078806Y-10980151D02*
X19069282Y-10961103D01*
X19069282Y-10961103D02*
X19069282Y-10903960D01*
X19069282Y-10903960D02*
X19078806Y-10884913D01*
X19078806Y-10884913D02*
X19088330Y-10875389D01*
X19088330Y-10875389D02*
X19107378Y-10865865D01*
X19107378Y-10865865D02*
X19145473Y-10865865D01*
X19145473Y-10865865D02*
X19164521Y-10875389D01*
X19240711Y-11075389D02*
X19250235Y-11065865D01*
X19250235Y-11065865D02*
X19269282Y-11037294D01*
X19269282Y-11037294D02*
X19278806Y-11018246D01*
X19278806Y-11018246D02*
X19288330Y-10989675D01*
X19288330Y-10989675D02*
X19297854Y-10942056D01*
X19297854Y-10942056D02*
X19297854Y-10903960D01*
X19297854Y-10903960D02*
X19288330Y-10856341D01*
X19288330Y-10856341D02*
X19278806Y-10827770D01*
X19278806Y-10827770D02*
X19269282Y-10808722D01*
X19269282Y-10808722D02*
X19250235Y-10780151D01*
X19250235Y-10780151D02*
X19240711Y-10770627D01*
X12384695Y-11071715D02*
X12384695Y-11271715D01*
X12284695Y-11171715D02*
X12484695Y-11171715D01*
X12726425Y-11063198D02*
X12850234Y-11063198D01*
X12850234Y-11063198D02*
X12783567Y-11139389D01*
X12783567Y-11139389D02*
X12812139Y-11139389D01*
X12812139Y-11139389D02*
X12831187Y-11148913D01*
X12831187Y-11148913D02*
X12840710Y-11158437D01*
X12840710Y-11158437D02*
X12850234Y-11177484D01*
X12850234Y-11177484D02*
X12850234Y-11225103D01*
X12850234Y-11225103D02*
X12840710Y-11244151D01*
X12840710Y-11244151D02*
X12831187Y-11253675D01*
X12831187Y-11253675D02*
X12812139Y-11263198D01*
X12812139Y-11263198D02*
X12754996Y-11263198D01*
X12754996Y-11263198D02*
X12735948Y-11253675D01*
X12735948Y-11253675D02*
X12726425Y-11244151D01*
X12935948Y-11244151D02*
X12945472Y-11253675D01*
X12945472Y-11253675D02*
X12935948Y-11263198D01*
X12935948Y-11263198D02*
X12926425Y-11253675D01*
X12926425Y-11253675D02*
X12935948Y-11244151D01*
X12935948Y-11244151D02*
X12935948Y-11263198D01*
X13021663Y-11082246D02*
X13031187Y-11072722D01*
X13031187Y-11072722D02*
X13050234Y-11063198D01*
X13050234Y-11063198D02*
X13097853Y-11063198D01*
X13097853Y-11063198D02*
X13116901Y-11072722D01*
X13116901Y-11072722D02*
X13126425Y-11082246D01*
X13126425Y-11082246D02*
X13135948Y-11101294D01*
X13135948Y-11101294D02*
X13135948Y-11120341D01*
X13135948Y-11120341D02*
X13126425Y-11148913D01*
X13126425Y-11148913D02*
X13012139Y-11263198D01*
X13012139Y-11263198D02*
X13135948Y-11263198D01*
X13259758Y-11063198D02*
X13278806Y-11063198D01*
X13278806Y-11063198D02*
X13297853Y-11072722D01*
X13297853Y-11072722D02*
X13307377Y-11082246D01*
X13307377Y-11082246D02*
X13316901Y-11101294D01*
X13316901Y-11101294D02*
X13326425Y-11139389D01*
X13326425Y-11139389D02*
X13326425Y-11187008D01*
X13326425Y-11187008D02*
X13316901Y-11225103D01*
X13316901Y-11225103D02*
X13307377Y-11244151D01*
X13307377Y-11244151D02*
X13297853Y-11253675D01*
X13297853Y-11253675D02*
X13278806Y-11263198D01*
X13278806Y-11263198D02*
X13259758Y-11263198D01*
X13259758Y-11263198D02*
X13240710Y-11253675D01*
X13240710Y-11253675D02*
X13231187Y-11244151D01*
X13231187Y-11244151D02*
X13221663Y-11225103D01*
X13221663Y-11225103D02*
X13212139Y-11187008D01*
X13212139Y-11187008D02*
X13212139Y-11139389D01*
X13212139Y-11139389D02*
X13221663Y-11101294D01*
X13221663Y-11101294D02*
X13231187Y-11082246D01*
X13231187Y-11082246D02*
X13240710Y-11072722D01*
X13240710Y-11072722D02*
X13259758Y-11063198D01*
X13450234Y-11063198D02*
X13469282Y-11063198D01*
X13469282Y-11063198D02*
X13488329Y-11072722D01*
X13488329Y-11072722D02*
X13497853Y-11082246D01*
X13497853Y-11082246D02*
X13507377Y-11101294D01*
X13507377Y-11101294D02*
X13516901Y-11139389D01*
X13516901Y-11139389D02*
X13516901Y-11187008D01*
X13516901Y-11187008D02*
X13507377Y-11225103D01*
X13507377Y-11225103D02*
X13497853Y-11244151D01*
X13497853Y-11244151D02*
X13488329Y-11253675D01*
X13488329Y-11253675D02*
X13469282Y-11263198D01*
X13469282Y-11263198D02*
X13450234Y-11263198D01*
X13450234Y-11263198D02*
X13431187Y-11253675D01*
X13431187Y-11253675D02*
X13421663Y-11244151D01*
X13421663Y-11244151D02*
X13412139Y-11225103D01*
X13412139Y-11225103D02*
X13402615Y-11187008D01*
X13402615Y-11187008D02*
X13402615Y-11139389D01*
X13402615Y-11139389D02*
X13412139Y-11101294D01*
X13412139Y-11101294D02*
X13421663Y-11082246D01*
X13421663Y-11082246D02*
X13431187Y-11072722D01*
X13431187Y-11072722D02*
X13450234Y-11063198D01*
X13602615Y-11263198D02*
X13602615Y-11129865D01*
X13602615Y-11148913D02*
X13612139Y-11139389D01*
X13612139Y-11139389D02*
X13631187Y-11129865D01*
X13631187Y-11129865D02*
X13659758Y-11129865D01*
X13659758Y-11129865D02*
X13678806Y-11139389D01*
X13678806Y-11139389D02*
X13688329Y-11158437D01*
X13688329Y-11158437D02*
X13688329Y-11263198D01*
X13688329Y-11158437D02*
X13697853Y-11139389D01*
X13697853Y-11139389D02*
X13716901Y-11129865D01*
X13716901Y-11129865D02*
X13745472Y-11129865D01*
X13745472Y-11129865D02*
X13764520Y-11139389D01*
X13764520Y-11139389D02*
X13774044Y-11158437D01*
X13774044Y-11158437D02*
X13774044Y-11263198D01*
X13869282Y-11263198D02*
X13869282Y-11129865D01*
X13869282Y-11148913D02*
X13878806Y-11139389D01*
X13878806Y-11139389D02*
X13897853Y-11129865D01*
X13897853Y-11129865D02*
X13926425Y-11129865D01*
X13926425Y-11129865D02*
X13945472Y-11139389D01*
X13945472Y-11139389D02*
X13954996Y-11158437D01*
X13954996Y-11158437D02*
X13954996Y-11263198D01*
X13954996Y-11158437D02*
X13964520Y-11139389D01*
X13964520Y-11139389D02*
X13983568Y-11129865D01*
X13983568Y-11129865D02*
X14012139Y-11129865D01*
X14012139Y-11129865D02*
X14031187Y-11139389D01*
X14031187Y-11139389D02*
X14040710Y-11158437D01*
X14040710Y-11158437D02*
X14040710Y-11263198D01*
X14431187Y-11053675D02*
X14259758Y-11310817D01*
X14688330Y-11063198D02*
X14707377Y-11063198D01*
X14707377Y-11063198D02*
X14726425Y-11072722D01*
X14726425Y-11072722D02*
X14735949Y-11082246D01*
X14735949Y-11082246D02*
X14745472Y-11101294D01*
X14745472Y-11101294D02*
X14754996Y-11139389D01*
X14754996Y-11139389D02*
X14754996Y-11187008D01*
X14754996Y-11187008D02*
X14745472Y-11225103D01*
X14745472Y-11225103D02*
X14735949Y-11244151D01*
X14735949Y-11244151D02*
X14726425Y-11253675D01*
X14726425Y-11253675D02*
X14707377Y-11263198D01*
X14707377Y-11263198D02*
X14688330Y-11263198D01*
X14688330Y-11263198D02*
X14669282Y-11253675D01*
X14669282Y-11253675D02*
X14659758Y-11244151D01*
X14659758Y-11244151D02*
X14650234Y-11225103D01*
X14650234Y-11225103D02*
X14640711Y-11187008D01*
X14640711Y-11187008D02*
X14640711Y-11139389D01*
X14640711Y-11139389D02*
X14650234Y-11101294D01*
X14650234Y-11101294D02*
X14659758Y-11082246D01*
X14659758Y-11082246D02*
X14669282Y-11072722D01*
X14669282Y-11072722D02*
X14688330Y-11063198D01*
X14840711Y-11244151D02*
X14850234Y-11253675D01*
X14850234Y-11253675D02*
X14840711Y-11263198D01*
X14840711Y-11263198D02*
X14831187Y-11253675D01*
X14831187Y-11253675D02*
X14840711Y-11244151D01*
X14840711Y-11244151D02*
X14840711Y-11263198D01*
X15040711Y-11263198D02*
X14926425Y-11263198D01*
X14983568Y-11263198D02*
X14983568Y-11063198D01*
X14983568Y-11063198D02*
X14964520Y-11091770D01*
X14964520Y-11091770D02*
X14945472Y-11110817D01*
X14945472Y-11110817D02*
X14926425Y-11120341D01*
X15116901Y-11082246D02*
X15126425Y-11072722D01*
X15126425Y-11072722D02*
X15145472Y-11063198D01*
X15145472Y-11063198D02*
X15193092Y-11063198D01*
X15193092Y-11063198D02*
X15212139Y-11072722D01*
X15212139Y-11072722D02*
X15221663Y-11082246D01*
X15221663Y-11082246D02*
X15231187Y-11101294D01*
X15231187Y-11101294D02*
X15231187Y-11120341D01*
X15231187Y-11120341D02*
X15221663Y-11148913D01*
X15221663Y-11148913D02*
X15107377Y-11263198D01*
X15107377Y-11263198D02*
X15231187Y-11263198D01*
X15402615Y-11063198D02*
X15364520Y-11063198D01*
X15364520Y-11063198D02*
X15345472Y-11072722D01*
X15345472Y-11072722D02*
X15335949Y-11082246D01*
X15335949Y-11082246D02*
X15316901Y-11110817D01*
X15316901Y-11110817D02*
X15307377Y-11148913D01*
X15307377Y-11148913D02*
X15307377Y-11225103D01*
X15307377Y-11225103D02*
X15316901Y-11244151D01*
X15316901Y-11244151D02*
X15326425Y-11253675D01*
X15326425Y-11253675D02*
X15345472Y-11263198D01*
X15345472Y-11263198D02*
X15383568Y-11263198D01*
X15383568Y-11263198D02*
X15402615Y-11253675D01*
X15402615Y-11253675D02*
X15412139Y-11244151D01*
X15412139Y-11244151D02*
X15421663Y-11225103D01*
X15421663Y-11225103D02*
X15421663Y-11177484D01*
X15421663Y-11177484D02*
X15412139Y-11158437D01*
X15412139Y-11158437D02*
X15402615Y-11148913D01*
X15402615Y-11148913D02*
X15383568Y-11139389D01*
X15383568Y-11139389D02*
X15345472Y-11139389D01*
X15345472Y-11139389D02*
X15326425Y-11148913D01*
X15326425Y-11148913D02*
X15316901Y-11158437D01*
X15316901Y-11158437D02*
X15307377Y-11177484D01*
X15545472Y-11063198D02*
X15564520Y-11063198D01*
X15564520Y-11063198D02*
X15583568Y-11072722D01*
X15583568Y-11072722D02*
X15593092Y-11082246D01*
X15593092Y-11082246D02*
X15602615Y-11101294D01*
X15602615Y-11101294D02*
X15612139Y-11139389D01*
X15612139Y-11139389D02*
X15612139Y-11187008D01*
X15612139Y-11187008D02*
X15602615Y-11225103D01*
X15602615Y-11225103D02*
X15593092Y-11244151D01*
X15593092Y-11244151D02*
X15583568Y-11253675D01*
X15583568Y-11253675D02*
X15564520Y-11263198D01*
X15564520Y-11263198D02*
X15545472Y-11263198D01*
X15545472Y-11263198D02*
X15526425Y-11253675D01*
X15526425Y-11253675D02*
X15516901Y-11244151D01*
X15516901Y-11244151D02*
X15507377Y-11225103D01*
X15507377Y-11225103D02*
X15497853Y-11187008D01*
X15497853Y-11187008D02*
X15497853Y-11139389D01*
X15497853Y-11139389D02*
X15507377Y-11101294D01*
X15507377Y-11101294D02*
X15516901Y-11082246D01*
X15516901Y-11082246D02*
X15526425Y-11072722D01*
X15526425Y-11072722D02*
X15545472Y-11063198D01*
X15688330Y-11063198D02*
X15688330Y-11101294D01*
X15764520Y-11063198D02*
X15764520Y-11101294D01*
X16059758Y-11339389D02*
X16050234Y-11329865D01*
X16050234Y-11329865D02*
X16031187Y-11301294D01*
X16031187Y-11301294D02*
X16021663Y-11282246D01*
X16021663Y-11282246D02*
X16012139Y-11253675D01*
X16012139Y-11253675D02*
X16002615Y-11206055D01*
X16002615Y-11206055D02*
X16002615Y-11167960D01*
X16002615Y-11167960D02*
X16012139Y-11120341D01*
X16012139Y-11120341D02*
X16021663Y-11091770D01*
X16021663Y-11091770D02*
X16031187Y-11072722D01*
X16031187Y-11072722D02*
X16050234Y-11044151D01*
X16050234Y-11044151D02*
X16059758Y-11034627D01*
X16221663Y-11129865D02*
X16221663Y-11263198D01*
X16174044Y-11053675D02*
X16126425Y-11196532D01*
X16126425Y-11196532D02*
X16250234Y-11196532D01*
X16478806Y-11263198D02*
X16478806Y-11063198D01*
X16564520Y-11263198D02*
X16564520Y-11158437D01*
X16564520Y-11158437D02*
X16554996Y-11139389D01*
X16554996Y-11139389D02*
X16535949Y-11129865D01*
X16535949Y-11129865D02*
X16507377Y-11129865D01*
X16507377Y-11129865D02*
X16488330Y-11139389D01*
X16488330Y-11139389D02*
X16478806Y-11148913D01*
X16688330Y-11263198D02*
X16669282Y-11253675D01*
X16669282Y-11253675D02*
X16659758Y-11244151D01*
X16659758Y-11244151D02*
X16650235Y-11225103D01*
X16650235Y-11225103D02*
X16650235Y-11167960D01*
X16650235Y-11167960D02*
X16659758Y-11148913D01*
X16659758Y-11148913D02*
X16669282Y-11139389D01*
X16669282Y-11139389D02*
X16688330Y-11129865D01*
X16688330Y-11129865D02*
X16716901Y-11129865D01*
X16716901Y-11129865D02*
X16735949Y-11139389D01*
X16735949Y-11139389D02*
X16745473Y-11148913D01*
X16745473Y-11148913D02*
X16754996Y-11167960D01*
X16754996Y-11167960D02*
X16754996Y-11225103D01*
X16754996Y-11225103D02*
X16745473Y-11244151D01*
X16745473Y-11244151D02*
X16735949Y-11253675D01*
X16735949Y-11253675D02*
X16716901Y-11263198D01*
X16716901Y-11263198D02*
X16688330Y-11263198D01*
X16869282Y-11263198D02*
X16850235Y-11253675D01*
X16850235Y-11253675D02*
X16840711Y-11234627D01*
X16840711Y-11234627D02*
X16840711Y-11063198D01*
X17021663Y-11253675D02*
X17002616Y-11263198D01*
X17002616Y-11263198D02*
X16964520Y-11263198D01*
X16964520Y-11263198D02*
X16945473Y-11253675D01*
X16945473Y-11253675D02*
X16935949Y-11234627D01*
X16935949Y-11234627D02*
X16935949Y-11158437D01*
X16935949Y-11158437D02*
X16945473Y-11139389D01*
X16945473Y-11139389D02*
X16964520Y-11129865D01*
X16964520Y-11129865D02*
X17002616Y-11129865D01*
X17002616Y-11129865D02*
X17021663Y-11139389D01*
X17021663Y-11139389D02*
X17031187Y-11158437D01*
X17031187Y-11158437D02*
X17031187Y-11177484D01*
X17031187Y-11177484D02*
X16935949Y-11196532D01*
X17107378Y-11253675D02*
X17126425Y-11263198D01*
X17126425Y-11263198D02*
X17164520Y-11263198D01*
X17164520Y-11263198D02*
X17183568Y-11253675D01*
X17183568Y-11253675D02*
X17193092Y-11234627D01*
X17193092Y-11234627D02*
X17193092Y-11225103D01*
X17193092Y-11225103D02*
X17183568Y-11206055D01*
X17183568Y-11206055D02*
X17164520Y-11196532D01*
X17164520Y-11196532D02*
X17135949Y-11196532D01*
X17135949Y-11196532D02*
X17116901Y-11187008D01*
X17116901Y-11187008D02*
X17107378Y-11167960D01*
X17107378Y-11167960D02*
X17107378Y-11158437D01*
X17107378Y-11158437D02*
X17116901Y-11139389D01*
X17116901Y-11139389D02*
X17135949Y-11129865D01*
X17135949Y-11129865D02*
X17164520Y-11129865D01*
X17164520Y-11129865D02*
X17183568Y-11139389D01*
X17259759Y-11339389D02*
X17269282Y-11329865D01*
X17269282Y-11329865D02*
X17288330Y-11301294D01*
X17288330Y-11301294D02*
X17297854Y-11282246D01*
X17297854Y-11282246D02*
X17307378Y-11253675D01*
X17307378Y-11253675D02*
X17316901Y-11206055D01*
X17316901Y-11206055D02*
X17316901Y-11167960D01*
X17316901Y-11167960D02*
X17307378Y-11120341D01*
X17307378Y-11120341D02*
X17297854Y-11091770D01*
X17297854Y-11091770D02*
X17288330Y-11072722D01*
X17288330Y-11072722D02*
X17269282Y-11044151D01*
X17269282Y-11044151D02*
X17259759Y-11034627D01*
X17621663Y-11339389D02*
X17612139Y-11329865D01*
X17612139Y-11329865D02*
X17593092Y-11301294D01*
X17593092Y-11301294D02*
X17583568Y-11282246D01*
X17583568Y-11282246D02*
X17574044Y-11253675D01*
X17574044Y-11253675D02*
X17564520Y-11206055D01*
X17564520Y-11206055D02*
X17564520Y-11167960D01*
X17564520Y-11167960D02*
X17574044Y-11120341D01*
X17574044Y-11120341D02*
X17583568Y-11091770D01*
X17583568Y-11091770D02*
X17593092Y-11072722D01*
X17593092Y-11072722D02*
X17612139Y-11044151D01*
X17612139Y-11044151D02*
X17621663Y-11034627D01*
X17697854Y-11129865D02*
X17697854Y-11263198D01*
X17697854Y-11148913D02*
X17707378Y-11139389D01*
X17707378Y-11139389D02*
X17726425Y-11129865D01*
X17726425Y-11129865D02*
X17754997Y-11129865D01*
X17754997Y-11129865D02*
X17774044Y-11139389D01*
X17774044Y-11139389D02*
X17783568Y-11158437D01*
X17783568Y-11158437D02*
X17783568Y-11263198D01*
X17907378Y-11263198D02*
X17888330Y-11253675D01*
X17888330Y-11253675D02*
X17878806Y-11244151D01*
X17878806Y-11244151D02*
X17869282Y-11225103D01*
X17869282Y-11225103D02*
X17869282Y-11167960D01*
X17869282Y-11167960D02*
X17878806Y-11148913D01*
X17878806Y-11148913D02*
X17888330Y-11139389D01*
X17888330Y-11139389D02*
X17907378Y-11129865D01*
X17907378Y-11129865D02*
X17935949Y-11129865D01*
X17935949Y-11129865D02*
X17954997Y-11139389D01*
X17954997Y-11139389D02*
X17964520Y-11148913D01*
X17964520Y-11148913D02*
X17974044Y-11167960D01*
X17974044Y-11167960D02*
X17974044Y-11225103D01*
X17974044Y-11225103D02*
X17964520Y-11244151D01*
X17964520Y-11244151D02*
X17954997Y-11253675D01*
X17954997Y-11253675D02*
X17935949Y-11263198D01*
X17935949Y-11263198D02*
X17907378Y-11263198D01*
X18031187Y-11129865D02*
X18107378Y-11129865D01*
X18059759Y-11063198D02*
X18059759Y-11234627D01*
X18059759Y-11234627D02*
X18069282Y-11253675D01*
X18069282Y-11253675D02*
X18088330Y-11263198D01*
X18088330Y-11263198D02*
X18107378Y-11263198D01*
X18326425Y-11129865D02*
X18326425Y-11329865D01*
X18326425Y-11139389D02*
X18345473Y-11129865D01*
X18345473Y-11129865D02*
X18383568Y-11129865D01*
X18383568Y-11129865D02*
X18402616Y-11139389D01*
X18402616Y-11139389D02*
X18412140Y-11148913D01*
X18412140Y-11148913D02*
X18421663Y-11167960D01*
X18421663Y-11167960D02*
X18421663Y-11225103D01*
X18421663Y-11225103D02*
X18412140Y-11244151D01*
X18412140Y-11244151D02*
X18402616Y-11253675D01*
X18402616Y-11253675D02*
X18383568Y-11263198D01*
X18383568Y-11263198D02*
X18345473Y-11263198D01*
X18345473Y-11263198D02*
X18326425Y-11253675D01*
X18535949Y-11263198D02*
X18516901Y-11253675D01*
X18516901Y-11253675D02*
X18507378Y-11234627D01*
X18507378Y-11234627D02*
X18507378Y-11063198D01*
X18697854Y-11263198D02*
X18697854Y-11158437D01*
X18697854Y-11158437D02*
X18688330Y-11139389D01*
X18688330Y-11139389D02*
X18669282Y-11129865D01*
X18669282Y-11129865D02*
X18631187Y-11129865D01*
X18631187Y-11129865D02*
X18612140Y-11139389D01*
X18697854Y-11253675D02*
X18678806Y-11263198D01*
X18678806Y-11263198D02*
X18631187Y-11263198D01*
X18631187Y-11263198D02*
X18612140Y-11253675D01*
X18612140Y-11253675D02*
X18602616Y-11234627D01*
X18602616Y-11234627D02*
X18602616Y-11215579D01*
X18602616Y-11215579D02*
X18612140Y-11196532D01*
X18612140Y-11196532D02*
X18631187Y-11187008D01*
X18631187Y-11187008D02*
X18678806Y-11187008D01*
X18678806Y-11187008D02*
X18697854Y-11177484D01*
X18764521Y-11129865D02*
X18840711Y-11129865D01*
X18793092Y-11063198D02*
X18793092Y-11234627D01*
X18793092Y-11234627D02*
X18802616Y-11253675D01*
X18802616Y-11253675D02*
X18821663Y-11263198D01*
X18821663Y-11263198D02*
X18840711Y-11263198D01*
X18983568Y-11253675D02*
X18964521Y-11263198D01*
X18964521Y-11263198D02*
X18926425Y-11263198D01*
X18926425Y-11263198D02*
X18907378Y-11253675D01*
X18907378Y-11253675D02*
X18897854Y-11234627D01*
X18897854Y-11234627D02*
X18897854Y-11158437D01*
X18897854Y-11158437D02*
X18907378Y-11139389D01*
X18907378Y-11139389D02*
X18926425Y-11129865D01*
X18926425Y-11129865D02*
X18964521Y-11129865D01*
X18964521Y-11129865D02*
X18983568Y-11139389D01*
X18983568Y-11139389D02*
X18993092Y-11158437D01*
X18993092Y-11158437D02*
X18993092Y-11177484D01*
X18993092Y-11177484D02*
X18897854Y-11196532D01*
X19164521Y-11263198D02*
X19164521Y-11063198D01*
X19164521Y-11253675D02*
X19145473Y-11263198D01*
X19145473Y-11263198D02*
X19107378Y-11263198D01*
X19107378Y-11263198D02*
X19088330Y-11253675D01*
X19088330Y-11253675D02*
X19078806Y-11244151D01*
X19078806Y-11244151D02*
X19069282Y-11225103D01*
X19069282Y-11225103D02*
X19069282Y-11167960D01*
X19069282Y-11167960D02*
X19078806Y-11148913D01*
X19078806Y-11148913D02*
X19088330Y-11139389D01*
X19088330Y-11139389D02*
X19107378Y-11129865D01*
X19107378Y-11129865D02*
X19145473Y-11129865D01*
X19145473Y-11129865D02*
X19164521Y-11139389D01*
X19240711Y-11339389D02*
X19250235Y-11329865D01*
X19250235Y-11329865D02*
X19269282Y-11301294D01*
X19269282Y-11301294D02*
X19278806Y-11282246D01*
X19278806Y-11282246D02*
X19288330Y-11253675D01*
X19288330Y-11253675D02*
X19297854Y-11206055D01*
X19297854Y-11206055D02*
X19297854Y-11167960D01*
X19297854Y-11167960D02*
X19288330Y-11120341D01*
X19288330Y-11120341D02*
X19278806Y-11091770D01*
X19278806Y-11091770D02*
X19269282Y-11072722D01*
X19269282Y-11072722D02*
X19250235Y-11044151D01*
X19250235Y-11044151D02*
X19240711Y-11034627D01*
M02*
