%TF.GenerationSoftware,KiCad,Pcbnew,8.0.5*%
%TF.CreationDate,2024-10-31T19:08:10-07:00*%
%TF.ProjectId,PIG-19,5049472d-3139-42e6-9b69-6361645f7063,rev?*%
%TF.SameCoordinates,Original*%
%TF.FileFunction,Soldermask,Top*%
%TF.FilePolarity,Negative*%
%FSLAX46Y46*%
G04 Gerber Fmt 4.6, Leading zero omitted, Abs format (unit mm)*
G04 Created by KiCad (PCBNEW 8.0.5) date 2024-10-31 19:08:10*
%MOMM*%
%LPD*%
G01*
G04 APERTURE LIST*
G04 Aperture macros list*
%AMRoundRect*
0 Rectangle with rounded corners*
0 $1 Rounding radius*
0 $2 $3 $4 $5 $6 $7 $8 $9 X,Y pos of 4 corners*
0 Add a 4 corners polygon primitive as box body*
4,1,4,$2,$3,$4,$5,$6,$7,$8,$9,$2,$3,0*
0 Add four circle primitives for the rounded corners*
1,1,$1+$1,$2,$3*
1,1,$1+$1,$4,$5*
1,1,$1+$1,$6,$7*
1,1,$1+$1,$8,$9*
0 Add four rect primitives between the rounded corners*
20,1,$1+$1,$2,$3,$4,$5,0*
20,1,$1+$1,$4,$5,$6,$7,0*
20,1,$1+$1,$6,$7,$8,$9,0*
20,1,$1+$1,$8,$9,$2,$3,0*%
G04 Aperture macros list end*
%ADD10C,0.010000*%
%ADD11R,1.700000X1.700000*%
%ADD12O,1.700000X1.700000*%
%ADD13RoundRect,0.200000X-0.200000X-0.275000X0.200000X-0.275000X0.200000X0.275000X-0.200000X0.275000X0*%
%ADD14RoundRect,0.200000X0.200000X0.275000X-0.200000X0.275000X-0.200000X-0.275000X0.200000X-0.275000X0*%
%ADD15RoundRect,0.250000X0.300000X0.300000X-0.300000X0.300000X-0.300000X-0.300000X0.300000X-0.300000X0*%
%ADD16RoundRect,0.225000X0.225000X0.250000X-0.225000X0.250000X-0.225000X-0.250000X0.225000X-0.250000X0*%
%ADD17R,1.270000X0.610000*%
%ADD18R,3.810000X3.910000*%
%ADD19R,1.020000X0.610000*%
%ADD20C,3.200000*%
%ADD21RoundRect,0.200000X-0.275000X0.200000X-0.275000X-0.200000X0.275000X-0.200000X0.275000X0.200000X0*%
%ADD22RoundRect,0.102000X0.325000X-0.525000X0.325000X0.525000X-0.325000X0.525000X-0.325000X-0.525000X0*%
%ADD23RoundRect,0.218750X0.218750X0.256250X-0.218750X0.256250X-0.218750X-0.256250X0.218750X-0.256250X0*%
%ADD24C,2.000000*%
%ADD25RoundRect,0.225000X-0.225000X-0.250000X0.225000X-0.250000X0.225000X0.250000X-0.225000X0.250000X0*%
%ADD26C,2.754000*%
%ADD27RoundRect,0.102000X-1.275000X1.275000X-1.275000X-1.275000X1.275000X-1.275000X1.275000X1.275000X0*%
%ADD28C,1.712000*%
%ADD29RoundRect,0.225000X-0.250000X0.225000X-0.250000X-0.225000X0.250000X-0.225000X0.250000X0.225000X0*%
%ADD30RoundRect,0.102000X1.275000X1.275000X-1.275000X1.275000X-1.275000X-1.275000X1.275000X-1.275000X0*%
%ADD31C,0.650000*%
%ADD32RoundRect,0.102000X-0.300000X-0.575000X0.300000X-0.575000X0.300000X0.575000X-0.300000X0.575000X0*%
%ADD33RoundRect,0.102000X-0.150000X-0.575000X0.150000X-0.575000X0.150000X0.575000X-0.150000X0.575000X0*%
%ADD34O,1.204000X2.304000*%
%ADD35RoundRect,0.301000X-0.301000X-0.701000X0.301000X-0.701000X0.301000X0.701000X-0.301000X0.701000X0*%
%ADD36R,0.931065X0.302473*%
%ADD37R,1.749999X2.500000*%
%ADD38RoundRect,0.102000X-0.400000X-0.200000X0.400000X-0.200000X0.400000X0.200000X-0.400000X0.200000X0*%
%ADD39RoundRect,0.102000X-0.200000X-0.400000X0.200000X-0.400000X0.200000X0.400000X-0.200000X0.400000X0*%
%ADD40RoundRect,0.102000X-0.600000X-0.600000X0.600000X-0.600000X0.600000X0.600000X-0.600000X0.600000X0*%
%ADD41RoundRect,0.102000X-0.400000X-0.400000X0.400000X-0.400000X0.400000X0.400000X-0.400000X0.400000X0*%
%ADD42C,0.900000*%
%ADD43RoundRect,0.102000X-0.500000X-0.800000X0.500000X-0.800000X0.500000X0.800000X-0.500000X0.800000X0*%
%ADD44RoundRect,0.102000X0.500000X0.800000X-0.500000X0.800000X-0.500000X-0.800000X0.500000X-0.800000X0*%
%ADD45RoundRect,0.149250X-0.447750X1.847750X-0.447750X-1.847750X0.447750X-1.847750X0.447750X1.847750X0*%
%ADD46RoundRect,0.102000X-5.420000X3.810000X-5.420000X-3.810000X5.420000X-3.810000X5.420000X3.810000X0*%
%ADD47RoundRect,0.225000X0.250000X-0.225000X0.250000X0.225000X-0.250000X0.225000X-0.250000X-0.225000X0*%
%ADD48RoundRect,0.200000X0.275000X-0.200000X0.275000X0.200000X-0.275000X0.200000X-0.275000X-0.200000X0*%
%ADD49RoundRect,0.102000X1.275000X-1.275000X1.275000X1.275000X-1.275000X1.275000X-1.275000X-1.275000X0*%
G04 APERTURE END LIST*
D10*
%TO.C,MCU1*%
X158921955Y-67202518D02*
X157521955Y-67202518D01*
X157521955Y-66452518D01*
X158171955Y-65802518D01*
X158921955Y-65802518D01*
X158921955Y-67202518D01*
G36*
X158921955Y-67202518D02*
G01*
X157521955Y-67202518D01*
X157521955Y-66452518D01*
X158171955Y-65802518D01*
X158921955Y-65802518D01*
X158921955Y-67202518D01*
G37*
%TO.C,Accelerometer1*%
X176681955Y-68732518D02*
X176231955Y-68732518D01*
X176231955Y-68022518D01*
X176681955Y-68022518D01*
X176681955Y-68732518D01*
G36*
X176681955Y-68732518D02*
G01*
X176231955Y-68732518D01*
X176231955Y-68022518D01*
X176681955Y-68022518D01*
X176681955Y-68732518D01*
G37*
X176681955Y-69232518D02*
X176231955Y-69232518D01*
X176231955Y-68522518D01*
X176681955Y-68522518D01*
X176681955Y-69232518D01*
G36*
X176681955Y-69232518D02*
G01*
X176231955Y-69232518D01*
X176231955Y-68522518D01*
X176681955Y-68522518D01*
X176681955Y-69232518D01*
G37*
X176681955Y-69732518D02*
X176231955Y-69732518D01*
X176231955Y-69022518D01*
X176681955Y-69022518D01*
X176681955Y-69732518D01*
G36*
X176681955Y-69732518D02*
G01*
X176231955Y-69732518D01*
X176231955Y-69022518D01*
X176681955Y-69022518D01*
X176681955Y-69732518D01*
G37*
X176846955Y-68072518D02*
X176396955Y-68072518D01*
X176396955Y-67362518D01*
X176846955Y-67362518D01*
X176846955Y-68072518D01*
G36*
X176846955Y-68072518D02*
G01*
X176396955Y-68072518D01*
X176396955Y-67362518D01*
X176846955Y-67362518D01*
X176846955Y-68072518D01*
G37*
X176846955Y-70392518D02*
X176396955Y-70392518D01*
X176396955Y-69682518D01*
X176846955Y-69682518D01*
X176846955Y-70392518D01*
G36*
X176846955Y-70392518D02*
G01*
X176396955Y-70392518D01*
X176396955Y-69682518D01*
X176846955Y-69682518D01*
X176846955Y-70392518D01*
G37*
X177346955Y-68072518D02*
X176896955Y-68072518D01*
X176896955Y-67362518D01*
X177346955Y-67362518D01*
X177346955Y-68072518D01*
G36*
X177346955Y-68072518D02*
G01*
X176896955Y-68072518D01*
X176896955Y-67362518D01*
X177346955Y-67362518D01*
X177346955Y-68072518D01*
G37*
X177346955Y-70392518D02*
X176896955Y-70392518D01*
X176896955Y-69682518D01*
X177346955Y-69682518D01*
X177346955Y-70392518D01*
G36*
X177346955Y-70392518D02*
G01*
X176896955Y-70392518D01*
X176896955Y-69682518D01*
X177346955Y-69682518D01*
X177346955Y-70392518D01*
G37*
X177846955Y-68072518D02*
X177396955Y-68072518D01*
X177396955Y-67362518D01*
X177846955Y-67362518D01*
X177846955Y-68072518D01*
G36*
X177846955Y-68072518D02*
G01*
X177396955Y-68072518D01*
X177396955Y-67362518D01*
X177846955Y-67362518D01*
X177846955Y-68072518D01*
G37*
X177846955Y-70392518D02*
X177396955Y-70392518D01*
X177396955Y-69682518D01*
X177846955Y-69682518D01*
X177846955Y-70392518D01*
G36*
X177846955Y-70392518D02*
G01*
X177396955Y-70392518D01*
X177396955Y-69682518D01*
X177846955Y-69682518D01*
X177846955Y-70392518D01*
G37*
X178346955Y-68072518D02*
X177896955Y-68072518D01*
X177896955Y-67362518D01*
X178346955Y-67362518D01*
X178346955Y-68072518D01*
G36*
X178346955Y-68072518D02*
G01*
X177896955Y-68072518D01*
X177896955Y-67362518D01*
X178346955Y-67362518D01*
X178346955Y-68072518D01*
G37*
X178346955Y-70392518D02*
X177896955Y-70392518D01*
X177896955Y-69682518D01*
X178346955Y-69682518D01*
X178346955Y-70392518D01*
G36*
X178346955Y-70392518D02*
G01*
X177896955Y-70392518D01*
X177896955Y-69682518D01*
X178346955Y-69682518D01*
X178346955Y-70392518D01*
G37*
X178511955Y-68732518D02*
X178061955Y-68732518D01*
X178061955Y-68022518D01*
X178511955Y-68022518D01*
X178511955Y-68732518D01*
G36*
X178511955Y-68732518D02*
G01*
X178061955Y-68732518D01*
X178061955Y-68022518D01*
X178511955Y-68022518D01*
X178511955Y-68732518D01*
G37*
X178511955Y-69232518D02*
X178061955Y-69232518D01*
X178061955Y-68522518D01*
X178511955Y-68522518D01*
X178511955Y-69232518D01*
G36*
X178511955Y-69232518D02*
G01*
X178061955Y-69232518D01*
X178061955Y-68522518D01*
X178511955Y-68522518D01*
X178511955Y-69232518D01*
G37*
X178511955Y-69732518D02*
X178061955Y-69732518D01*
X178061955Y-69022518D01*
X178511955Y-69022518D01*
X178511955Y-69732518D01*
G36*
X178511955Y-69732518D02*
G01*
X178061955Y-69732518D01*
X178061955Y-69022518D01*
X178511955Y-69022518D01*
X178511955Y-69732518D01*
G37*
%TD*%
D11*
%TO.C,J6*%
X129496955Y-68127518D03*
D12*
X129496955Y-65587518D03*
%TD*%
D13*
%TO.C,R9*%
X182196955Y-71277518D03*
X183846955Y-71277518D03*
%TD*%
D14*
%TO.C,R10*%
X143156955Y-70292518D03*
X141506955Y-70292518D03*
%TD*%
D15*
%TO.C,D2*%
X139671955Y-76000000D03*
X136871955Y-76000000D03*
%TD*%
D14*
%TO.C,R1*%
X169371955Y-86727518D03*
X167721955Y-86727518D03*
%TD*%
D16*
%TO.C,C2*%
X180196955Y-74877518D03*
X178646955Y-74877518D03*
%TD*%
D17*
%TO.C,Q1*%
X150261955Y-88837518D03*
X150261955Y-90107518D03*
X150261955Y-91377518D03*
X150261955Y-92647518D03*
D18*
X153621955Y-90742518D03*
D19*
X155726955Y-88837518D03*
X155726955Y-90107518D03*
X155726955Y-91377518D03*
X155726955Y-92647518D03*
%TD*%
D20*
%TO.C,H4*%
X129376410Y-59085975D03*
%TD*%
D21*
%TO.C,R3*%
X173621955Y-59627518D03*
X173621955Y-61277518D03*
%TD*%
D11*
%TO.C,BNO1*%
X144196955Y-67627518D03*
D12*
X141656955Y-67627518D03*
X139116955Y-67627518D03*
X136576955Y-67627518D03*
X134036955Y-67627518D03*
%TD*%
D13*
%TO.C,R7*%
X176296955Y-65627518D03*
X177946955Y-65627518D03*
%TD*%
D20*
%TO.C,H1*%
X190495545Y-59025975D03*
%TD*%
D22*
%TO.C,SW4*%
X169046955Y-60202518D03*
X169046955Y-56052518D03*
X171196955Y-60202518D03*
X171196955Y-56052518D03*
%TD*%
%TO.C,SW1*%
X148546955Y-60202518D03*
X148546955Y-56052518D03*
X150696955Y-60202518D03*
X150696955Y-56052518D03*
%TD*%
D23*
%TO.C,D1*%
X169371955Y-88377518D03*
X167796955Y-88377518D03*
%TD*%
D14*
%TO.C,R8*%
X183871955Y-73127518D03*
X182221955Y-73127518D03*
%TD*%
D24*
%TO.C,TP1*%
X157450000Y-85250000D03*
%TD*%
D20*
%TO.C,H2*%
X129504455Y-95560000D03*
%TD*%
D25*
%TO.C,C1*%
X142596955Y-75052517D03*
X144146955Y-75052517D03*
%TD*%
D26*
%TO.C,J2*%
X186871955Y-75627518D03*
D27*
X186871955Y-80627518D03*
D28*
X191871955Y-83627518D03*
X191871955Y-72627518D03*
%TD*%
D29*
%TO.C,C6*%
X146371955Y-76377518D03*
X146371955Y-77927518D03*
%TD*%
D26*
%TO.C,J9*%
X139621955Y-87871768D03*
D30*
X144621955Y-87871768D03*
D28*
X136621955Y-97871768D03*
X147621955Y-97871768D03*
%TD*%
D31*
%TO.C,J11*%
X162231955Y-94397518D03*
X168011955Y-94397518D03*
D32*
X161921955Y-93322518D03*
X162721955Y-93322518D03*
D33*
X163871955Y-93322518D03*
X164871955Y-93322518D03*
X165371955Y-93322518D03*
X166371955Y-93322518D03*
D32*
X168321955Y-93322518D03*
X167521955Y-93322518D03*
D33*
X166871955Y-93322518D03*
X165871955Y-93322518D03*
X164371955Y-93322518D03*
X163371955Y-93322518D03*
D34*
X160801955Y-93897518D03*
X169441955Y-93897518D03*
D35*
X160801955Y-98077518D03*
X169441955Y-98077518D03*
%TD*%
D25*
%TO.C,C8*%
X178646955Y-73077518D03*
X180196955Y-73077518D03*
%TD*%
D13*
%TO.C,R5*%
X168046955Y-90927518D03*
X169696955Y-90927518D03*
%TD*%
D11*
%TO.C,LED1*%
X177596955Y-61527518D03*
D12*
X177596955Y-58987518D03*
X180136955Y-61527518D03*
X180136955Y-58987518D03*
X182676955Y-61527518D03*
X182676955Y-58987518D03*
%TD*%
D36*
%TO.C,LDO1*%
X144612488Y-78852517D03*
X144612488Y-78202519D03*
X144612488Y-77552517D03*
X144612488Y-76902519D03*
X141631422Y-76902519D03*
X141631422Y-77552517D03*
X141631422Y-78202519D03*
X141631422Y-78852517D03*
D37*
X143121955Y-77877518D03*
%TD*%
D38*
%TO.C,MCU1*%
X152871955Y-62202518D03*
X152871955Y-63052518D03*
X152871955Y-63902518D03*
X152871955Y-64752518D03*
X152871955Y-65602518D03*
X152871955Y-66452518D03*
X152871955Y-67302518D03*
X152871955Y-68152518D03*
X152871955Y-69002518D03*
X152871955Y-69852518D03*
X152871955Y-70702518D03*
X152871955Y-71552518D03*
X152871955Y-72402518D03*
X152871955Y-73252518D03*
X152871955Y-74102518D03*
D39*
X153921955Y-75152518D03*
X154771955Y-75152518D03*
X155621955Y-75152518D03*
X156471955Y-75152518D03*
X157321955Y-75152518D03*
X158171955Y-75152518D03*
X159021955Y-75152518D03*
X159871955Y-75152518D03*
X160721955Y-75152518D03*
X161571955Y-75152518D03*
X162421955Y-75152518D03*
X163271955Y-75152518D03*
X164121955Y-75152518D03*
X164971955Y-75152518D03*
X165821955Y-75152518D03*
D38*
X166871955Y-74102518D03*
X166871955Y-73252518D03*
X166871955Y-72402518D03*
X166871955Y-71552518D03*
X166871955Y-70702518D03*
X166871955Y-69852518D03*
X166871955Y-69002518D03*
X166871955Y-68152518D03*
X166871955Y-67302518D03*
X166871955Y-66452518D03*
X166871955Y-65602518D03*
X166871955Y-64752518D03*
X166871955Y-63902518D03*
X166871955Y-63052518D03*
X166871955Y-62202518D03*
D39*
X165821955Y-61152518D03*
X164971955Y-61152518D03*
X164121955Y-61152518D03*
X163271955Y-61152518D03*
X162421955Y-61152518D03*
X161571955Y-61152518D03*
X160721955Y-61152518D03*
X159871955Y-61152518D03*
X159021955Y-61152518D03*
X158171955Y-61152518D03*
X157321955Y-61152518D03*
X156471955Y-61152518D03*
X155621955Y-61152518D03*
X154771955Y-61152518D03*
X153921955Y-61152518D03*
D40*
X159871955Y-68152518D03*
X159871955Y-66502518D03*
X161521955Y-66502518D03*
X161521955Y-68152518D03*
X161521955Y-69802518D03*
X159871955Y-69802518D03*
X158221955Y-69802518D03*
X158221955Y-68152518D03*
D41*
X152871955Y-61152518D03*
X152871955Y-75152518D03*
X166871955Y-75152518D03*
X166871955Y-61152518D03*
%TD*%
D42*
%TO.C,SW3*%
X151221955Y-97077518D03*
X158021955Y-97077518D03*
D43*
X152121955Y-95877518D03*
D44*
X152121955Y-98277518D03*
D43*
X154621955Y-95877518D03*
D44*
X154621955Y-98277518D03*
D43*
X157121955Y-95877518D03*
D44*
X157121955Y-98277518D03*
%TD*%
D11*
%TO.C,LM298NPWR1*%
X188825000Y-88200000D03*
D12*
X191365000Y-88200000D03*
%TD*%
D11*
%TO.C,RescueDCPin1*%
X166370000Y-81500000D03*
D12*
X163830000Y-81500000D03*
X161290000Y-81500000D03*
X158750000Y-81500000D03*
X156210000Y-81500000D03*
X153670000Y-81500000D03*
%TD*%
D45*
%TO.C,U1*%
X179661955Y-84247518D03*
X177121955Y-84247518D03*
X174581955Y-84247518D03*
D46*
X177121955Y-95127518D03*
%TD*%
D47*
%TO.C,C4*%
X146621955Y-57877518D03*
X146621955Y-56327518D03*
%TD*%
D29*
%TO.C,C3*%
X173621955Y-56102518D03*
X173621955Y-57652518D03*
%TD*%
D14*
%TO.C,R6*%
X163196955Y-90927518D03*
X161546955Y-90927518D03*
%TD*%
D11*
%TO.C,J5*%
X190246955Y-65627518D03*
D12*
X190246955Y-68167518D03*
%TD*%
D20*
%TO.C,H3*%
X190500000Y-95500000D03*
%TD*%
D24*
%TO.C,TP2*%
X161500000Y-85250000D03*
%TD*%
D29*
%TO.C,C5*%
X146621955Y-60102518D03*
X146621955Y-61652518D03*
%TD*%
D11*
%TO.C,USS1*%
X135621955Y-61667518D03*
D12*
X135621955Y-59127518D03*
X138161955Y-61667518D03*
X138161955Y-59127518D03*
X140701955Y-61667518D03*
X140701955Y-59127518D03*
X143241955Y-61667518D03*
X143241955Y-59127518D03*
%TD*%
D15*
%TO.C,D3*%
X139650000Y-78750000D03*
X136850000Y-78750000D03*
%TD*%
D25*
%TO.C,C9*%
X174846955Y-74877518D03*
X176396955Y-74877518D03*
%TD*%
D13*
%TO.C,R4*%
X141546955Y-71877518D03*
X143196955Y-71877518D03*
%TD*%
D47*
%TO.C,C7*%
X180121955Y-69652518D03*
X180121955Y-68102518D03*
%TD*%
D48*
%TO.C,R2*%
X157771955Y-91352518D03*
X157771955Y-89702518D03*
%TD*%
D26*
%TO.C,J1*%
X132871955Y-80627518D03*
D49*
X132871955Y-75627518D03*
D28*
X127871955Y-72627518D03*
X127871955Y-83627518D03*
%TD*%
M02*
