M48
; DRILL file {KiCad 8.0.5} date 2024-10-31T19:08:05-0700
; FORMAT={-:-/ absolute / metric / decimal}
; #@! TF.CreationDate,2024-10-31T19:08:05-07:00
; #@! TF.GenerationSoftware,Kicad,Pcbnew,8.0.5
; #@! TF.FileFunction,Plated,1,4,PTH
FMAT,2
METRIC
; #@! TA.AperFunction,Plated,PTH,ViaDrill
T1C0.200
; #@! TA.AperFunction,Plated,PTH,ViaDrill
T2C0.300
; #@! TA.AperFunction,Plated,PTH,ComponentDrill
T3C0.600
; #@! TA.AperFunction,Plated,PTH,ComponentDrill
T4C1.000
; #@! TA.AperFunction,Plated,PTH,ComponentDrill
T5C1.700
%
G90
G05
T1
X132.622Y-65.128
X133.122Y-64.628
X133.122Y-65.128
X133.622Y-64.128
X133.622Y-64.628
X133.622Y-65.128
X139.372Y-70.628
X145.622Y-70.128
X145.872Y-70.878
X147.872Y-78.628
X147.922Y-61.5
X150.0Y-78.6
X150.122Y-62.378
X150.122Y-62.878
X150.25Y-63.903
X150.372Y-72.878
X150.622Y-62.378
X150.622Y-62.878
X151.1Y-63.9
X157.75Y-87.0
X159.047Y-66.503
X159.047Y-68.153
X159.047Y-69.803
X160.697Y-66.503
X160.697Y-68.153
X160.697Y-69.803
X165.872Y-86.928
X168.122Y-71.6
X169.047Y-70.703
X169.122Y-74.878
X171.5Y-77.5
X175.167Y-65.832
X175.372Y-68.128
X179.622Y-66.628
X180.122Y-66.628
X180.622Y-66.628
X181.822Y-66.378
X182.122Y-75.878
X182.872Y-67.628
X182.872Y-68.128
X182.872Y-68.628
X183.372Y-68.128
X183.372Y-68.628
X183.872Y-68.628
X184.872Y-63.378
T2
X136.8Y-78.7
X136.872Y-76.0
X139.65Y-78.75
X139.675Y-76.025
X141.75Y-81.75
X141.75Y-82.5
X142.5Y-81.75
X142.5Y-82.5
X142.6Y-77.0
X142.6Y-77.9
X142.6Y-78.8
X143.25Y-81.75
X143.25Y-82.5
X143.5Y-77.0
X143.5Y-77.9
X143.5Y-78.8
X152.5Y-89.75
X152.5Y-90.75
X152.5Y-91.75
X153.5Y-89.75
X153.5Y-90.75
X153.5Y-91.75
X154.5Y-89.75
X154.5Y-90.75
X154.5Y-91.75
X155.2Y-62.4
X156.05Y-62.4
X156.9Y-62.4
X157.75Y-62.4
X158.6Y-62.4
X159.45Y-62.4
X160.3Y-62.4
X161.15Y-62.4
X162.0Y-62.4
X162.372Y-88.378
X162.372Y-89.128
X162.85Y-62.4
X163.122Y-88.378
X163.122Y-89.128
X163.7Y-62.4
X163.75Y-95.0
X164.5Y-95.0
X165.25Y-95.0
X166.0Y-95.0
X166.75Y-95.0
X169.4Y-86.75
X171.2Y-56.05
X171.2Y-60.25
X173.25Y-92.25
X173.25Y-93.25
X173.25Y-94.25
X173.25Y-95.25
X173.25Y-96.25
X173.6Y-56.1
X174.25Y-92.25
X174.25Y-93.25
X174.25Y-94.25
X174.25Y-95.25
X174.25Y-96.25
X174.6Y-82.8
X174.6Y-83.6
X174.6Y-84.4
X174.6Y-85.2
X174.8Y-74.85
X175.25Y-92.25
X175.25Y-93.25
X175.25Y-94.25
X175.25Y-95.25
X175.25Y-96.25
X176.25Y-92.25
X176.25Y-93.25
X176.25Y-94.25
X176.25Y-95.25
X176.25Y-96.25
X177.25Y-92.25
X177.25Y-93.25
X177.25Y-94.25
X177.25Y-95.25
X177.25Y-96.25
X178.25Y-92.25
X178.25Y-93.25
X178.25Y-94.25
X178.25Y-95.25
X178.25Y-96.25
X179.25Y-92.25
X179.25Y-93.25
X179.25Y-94.25
X179.25Y-95.25
X179.25Y-96.25
X179.6Y-82.8
X179.6Y-83.6
X179.6Y-84.4
X180.2Y-74.85
X180.25Y-92.25
X180.25Y-93.25
X180.25Y-94.25
X180.25Y-95.25
X180.25Y-96.25
X181.25Y-92.25
X181.25Y-93.25
X181.25Y-94.25
X181.25Y-95.25
X181.25Y-96.25
X183.9Y-73.1
X184.372Y-88.378
X184.372Y-89.378
X185.372Y-88.378
X185.372Y-89.378
T4
X127.872Y-72.628
X127.872Y-83.628
X129.497Y-65.588
X129.497Y-68.128
X134.037Y-67.628
X135.622Y-59.128
X135.622Y-61.668
X136.577Y-67.628
X136.622Y-97.872
X138.162Y-59.128
X138.162Y-61.668
X139.117Y-67.628
X140.702Y-59.128
X140.702Y-61.668
X141.657Y-67.628
X143.242Y-59.128
X143.242Y-61.668
X144.197Y-67.628
X147.622Y-97.872
X153.67Y-81.5
X156.21Y-81.5
X158.75Y-81.5
X161.29Y-81.5
X163.83Y-81.5
X166.37Y-81.5
X177.597Y-58.988
X177.597Y-61.528
X180.137Y-58.988
X180.137Y-61.528
X182.677Y-58.988
X182.677Y-61.528
X188.825Y-88.2
X190.247Y-65.628
X190.247Y-68.168
X191.365Y-88.2
X191.872Y-72.628
X191.872Y-83.628
T5
X132.872Y-75.628
X132.872Y-80.628
X139.622Y-87.872
X144.622Y-87.872
X186.872Y-75.628
X186.872Y-80.628
T3
G00X160.802Y-93.348
M15
G01X160.802Y-94.448
M16
G05
G00X160.802Y-97.678
M15
G01X160.802Y-98.478
M16
G05
G00X169.442Y-93.348
M15
G01X169.442Y-94.448
M16
G05
G00X169.442Y-97.678
M15
G01X169.442Y-98.478
M16
G05
M30
