%TF.GenerationSoftware,KiCad,Pcbnew,8.0.5*%
%TF.CreationDate,2024-10-31T19:08:10-07:00*%
%TF.ProjectId,PIG-19,5049472d-3139-42e6-9b69-6361645f7063,rev?*%
%TF.SameCoordinates,Original*%
%TF.FileFunction,Paste,Top*%
%TF.FilePolarity,Positive*%
%FSLAX46Y46*%
G04 Gerber Fmt 4.6, Leading zero omitted, Abs format (unit mm)*
G04 Created by KiCad (PCBNEW 8.0.5) date 2024-10-31 19:08:10*
%MOMM*%
%LPD*%
G01*
G04 APERTURE LIST*
G04 Aperture macros list*
%AMRoundRect*
0 Rectangle with rounded corners*
0 $1 Rounding radius*
0 $2 $3 $4 $5 $6 $7 $8 $9 X,Y pos of 4 corners*
0 Add a 4 corners polygon primitive as box body*
4,1,4,$2,$3,$4,$5,$6,$7,$8,$9,$2,$3,0*
0 Add four circle primitives for the rounded corners*
1,1,$1+$1,$2,$3*
1,1,$1+$1,$4,$5*
1,1,$1+$1,$6,$7*
1,1,$1+$1,$8,$9*
0 Add four rect primitives between the rounded corners*
20,1,$1+$1,$2,$3,$4,$5,0*
20,1,$1+$1,$4,$5,$6,$7,0*
20,1,$1+$1,$6,$7,$8,$9,0*
20,1,$1+$1,$8,$9,$2,$3,0*%
G04 Aperture macros list end*
%ADD10C,0.000000*%
%ADD11C,0.010000*%
%ADD12RoundRect,0.200000X-0.200000X-0.275000X0.200000X-0.275000X0.200000X0.275000X-0.200000X0.275000X0*%
%ADD13RoundRect,0.200000X0.200000X0.275000X-0.200000X0.275000X-0.200000X-0.275000X0.200000X-0.275000X0*%
%ADD14RoundRect,0.250000X0.300000X0.300000X-0.300000X0.300000X-0.300000X-0.300000X0.300000X-0.300000X0*%
%ADD15RoundRect,0.225000X0.225000X0.250000X-0.225000X0.250000X-0.225000X-0.250000X0.225000X-0.250000X0*%
%ADD16R,1.270000X0.610000*%
%ADD17R,3.810000X3.910000*%
%ADD18R,1.020000X0.610000*%
%ADD19RoundRect,0.200000X-0.275000X0.200000X-0.275000X-0.200000X0.275000X-0.200000X0.275000X0.200000X0*%
%ADD20R,0.650000X1.050000*%
%ADD21RoundRect,0.218750X0.218750X0.256250X-0.218750X0.256250X-0.218750X-0.256250X0.218750X-0.256250X0*%
%ADD22RoundRect,0.225000X-0.225000X-0.250000X0.225000X-0.250000X0.225000X0.250000X-0.225000X0.250000X0*%
%ADD23RoundRect,0.225000X-0.250000X0.225000X-0.250000X-0.225000X0.250000X-0.225000X0.250000X0.225000X0*%
%ADD24R,0.600000X1.150000*%
%ADD25R,0.300000X1.150000*%
%ADD26R,0.931065X0.302473*%
%ADD27R,0.800000X0.400000*%
%ADD28R,0.400000X0.800000*%
%ADD29R,1.200000X1.200000*%
%ADD30R,0.800000X0.800000*%
%ADD31R,1.000000X1.600000*%
%ADD32RoundRect,0.123750X-0.371250X1.771250X-0.371250X-1.771250X0.371250X-1.771250X0.371250X1.771250X0*%
%ADD33RoundRect,0.225000X0.250000X-0.225000X0.250000X0.225000X-0.250000X0.225000X-0.250000X-0.225000X0*%
%ADD34R,0.350000X0.610000*%
%ADD35R,0.610000X0.350000*%
%ADD36RoundRect,0.200000X0.275000X-0.200000X0.275000X0.200000X-0.275000X0.200000X-0.275000X-0.200000X0*%
G04 APERTURE END LIST*
D10*
%TO.C,LDO1*%
G36*
X143621954Y-78752518D02*
G01*
X142621956Y-78752518D01*
X142621956Y-77002518D01*
X143621954Y-77002518D01*
X143621954Y-78752518D01*
G37*
D11*
%TO.C,MCU1*%
X158821955Y-67102518D02*
X157621955Y-67102518D01*
X157621955Y-66502518D01*
X158221955Y-65902518D01*
X158821955Y-65902518D01*
X158821955Y-67102518D01*
G36*
X158821955Y-67102518D02*
G01*
X157621955Y-67102518D01*
X157621955Y-66502518D01*
X158221955Y-65902518D01*
X158821955Y-65902518D01*
X158821955Y-67102518D01*
G37*
%TO.C,U1*%
X173251955Y-93312518D02*
X171991955Y-93312518D01*
X171991955Y-91862518D01*
X173251955Y-91862518D01*
X173251955Y-93312518D01*
G36*
X173251955Y-93312518D02*
G01*
X171991955Y-93312518D01*
X171991955Y-91862518D01*
X173251955Y-91862518D01*
X173251955Y-93312518D01*
G37*
X173251955Y-95852518D02*
X171991955Y-95852518D01*
X171991955Y-94402518D01*
X173251955Y-94402518D01*
X173251955Y-95852518D01*
G36*
X173251955Y-95852518D02*
G01*
X171991955Y-95852518D01*
X171991955Y-94402518D01*
X173251955Y-94402518D01*
X173251955Y-95852518D01*
G37*
X173251955Y-98392518D02*
X171991955Y-98392518D01*
X171991955Y-96942518D01*
X173251955Y-96942518D01*
X173251955Y-98392518D01*
G36*
X173251955Y-98392518D02*
G01*
X171991955Y-98392518D01*
X171991955Y-96942518D01*
X173251955Y-96942518D01*
X173251955Y-98392518D01*
G37*
X175051955Y-93312518D02*
X173791955Y-93312518D01*
X173791955Y-91862518D01*
X175051955Y-91862518D01*
X175051955Y-93312518D01*
G36*
X175051955Y-93312518D02*
G01*
X173791955Y-93312518D01*
X173791955Y-91862518D01*
X175051955Y-91862518D01*
X175051955Y-93312518D01*
G37*
X175051955Y-95852518D02*
X173791955Y-95852518D01*
X173791955Y-94402518D01*
X175051955Y-94402518D01*
X175051955Y-95852518D01*
G36*
X175051955Y-95852518D02*
G01*
X173791955Y-95852518D01*
X173791955Y-94402518D01*
X175051955Y-94402518D01*
X175051955Y-95852518D01*
G37*
X175051955Y-98392518D02*
X173791955Y-98392518D01*
X173791955Y-96942518D01*
X175051955Y-96942518D01*
X175051955Y-98392518D01*
G36*
X175051955Y-98392518D02*
G01*
X173791955Y-98392518D01*
X173791955Y-96942518D01*
X175051955Y-96942518D01*
X175051955Y-98392518D01*
G37*
X176851955Y-93312518D02*
X175591955Y-93312518D01*
X175591955Y-91862518D01*
X176851955Y-91862518D01*
X176851955Y-93312518D01*
G36*
X176851955Y-93312518D02*
G01*
X175591955Y-93312518D01*
X175591955Y-91862518D01*
X176851955Y-91862518D01*
X176851955Y-93312518D01*
G37*
X176851955Y-95852518D02*
X175591955Y-95852518D01*
X175591955Y-94402518D01*
X176851955Y-94402518D01*
X176851955Y-95852518D01*
G36*
X176851955Y-95852518D02*
G01*
X175591955Y-95852518D01*
X175591955Y-94402518D01*
X176851955Y-94402518D01*
X176851955Y-95852518D01*
G37*
X176851955Y-98392518D02*
X175591955Y-98392518D01*
X175591955Y-96942518D01*
X176851955Y-96942518D01*
X176851955Y-98392518D01*
G36*
X176851955Y-98392518D02*
G01*
X175591955Y-98392518D01*
X175591955Y-96942518D01*
X176851955Y-96942518D01*
X176851955Y-98392518D01*
G37*
X178651955Y-93312518D02*
X177391955Y-93312518D01*
X177391955Y-91862518D01*
X178651955Y-91862518D01*
X178651955Y-93312518D01*
G36*
X178651955Y-93312518D02*
G01*
X177391955Y-93312518D01*
X177391955Y-91862518D01*
X178651955Y-91862518D01*
X178651955Y-93312518D01*
G37*
X178651955Y-95852518D02*
X177391955Y-95852518D01*
X177391955Y-94402518D01*
X178651955Y-94402518D01*
X178651955Y-95852518D01*
G36*
X178651955Y-95852518D02*
G01*
X177391955Y-95852518D01*
X177391955Y-94402518D01*
X178651955Y-94402518D01*
X178651955Y-95852518D01*
G37*
X178651955Y-98392518D02*
X177391955Y-98392518D01*
X177391955Y-96942518D01*
X178651955Y-96942518D01*
X178651955Y-98392518D01*
G36*
X178651955Y-98392518D02*
G01*
X177391955Y-98392518D01*
X177391955Y-96942518D01*
X178651955Y-96942518D01*
X178651955Y-98392518D01*
G37*
X180451955Y-93312518D02*
X179191955Y-93312518D01*
X179191955Y-91862518D01*
X180451955Y-91862518D01*
X180451955Y-93312518D01*
G36*
X180451955Y-93312518D02*
G01*
X179191955Y-93312518D01*
X179191955Y-91862518D01*
X180451955Y-91862518D01*
X180451955Y-93312518D01*
G37*
X180451955Y-95852518D02*
X179191955Y-95852518D01*
X179191955Y-94402518D01*
X180451955Y-94402518D01*
X180451955Y-95852518D01*
G36*
X180451955Y-95852518D02*
G01*
X179191955Y-95852518D01*
X179191955Y-94402518D01*
X180451955Y-94402518D01*
X180451955Y-95852518D01*
G37*
X180451955Y-98392518D02*
X179191955Y-98392518D01*
X179191955Y-96942518D01*
X180451955Y-96942518D01*
X180451955Y-98392518D01*
G36*
X180451955Y-98392518D02*
G01*
X179191955Y-98392518D01*
X179191955Y-96942518D01*
X180451955Y-96942518D01*
X180451955Y-98392518D01*
G37*
X182251955Y-93312518D02*
X180991955Y-93312518D01*
X180991955Y-91862518D01*
X182251955Y-91862518D01*
X182251955Y-93312518D01*
G36*
X182251955Y-93312518D02*
G01*
X180991955Y-93312518D01*
X180991955Y-91862518D01*
X182251955Y-91862518D01*
X182251955Y-93312518D01*
G37*
X182251955Y-95852518D02*
X180991955Y-95852518D01*
X180991955Y-94402518D01*
X182251955Y-94402518D01*
X182251955Y-95852518D01*
G36*
X182251955Y-95852518D02*
G01*
X180991955Y-95852518D01*
X180991955Y-94402518D01*
X182251955Y-94402518D01*
X182251955Y-95852518D01*
G37*
X182251955Y-98392518D02*
X180991955Y-98392518D01*
X180991955Y-96942518D01*
X182251955Y-96942518D01*
X182251955Y-98392518D01*
G36*
X182251955Y-98392518D02*
G01*
X180991955Y-98392518D01*
X180991955Y-96942518D01*
X182251955Y-96942518D01*
X182251955Y-98392518D01*
G37*
%TD*%
D12*
%TO.C,R9*%
X182196955Y-71277518D03*
X183846955Y-71277518D03*
%TD*%
D13*
%TO.C,R10*%
X143156955Y-70292518D03*
X141506955Y-70292518D03*
%TD*%
D14*
%TO.C,D2*%
X139671955Y-76000000D03*
X136871955Y-76000000D03*
%TD*%
D13*
%TO.C,R1*%
X169371955Y-86727518D03*
X167721955Y-86727518D03*
%TD*%
D15*
%TO.C,C2*%
X180196955Y-74877518D03*
X178646955Y-74877518D03*
%TD*%
D16*
%TO.C,Q1*%
X150261955Y-88837518D03*
X150261955Y-90107518D03*
X150261955Y-91377518D03*
X150261955Y-92647518D03*
D17*
X153621955Y-90742518D03*
D18*
X155726955Y-88837518D03*
X155726955Y-90107518D03*
X155726955Y-91377518D03*
X155726955Y-92647518D03*
%TD*%
D19*
%TO.C,R3*%
X173621955Y-59627518D03*
X173621955Y-61277518D03*
%TD*%
D12*
%TO.C,R7*%
X176296955Y-65627518D03*
X177946955Y-65627518D03*
%TD*%
D20*
%TO.C,SW4*%
X169046955Y-60202518D03*
X169046955Y-56052518D03*
X171196955Y-60202518D03*
X171196955Y-56052518D03*
%TD*%
%TO.C,SW1*%
X148546955Y-60202518D03*
X148546955Y-56052518D03*
X150696955Y-60202518D03*
X150696955Y-56052518D03*
%TD*%
D21*
%TO.C,D1*%
X169371955Y-88377518D03*
X167796955Y-88377518D03*
%TD*%
D13*
%TO.C,R8*%
X183871955Y-73127518D03*
X182221955Y-73127518D03*
%TD*%
D22*
%TO.C,C1*%
X142596955Y-75052517D03*
X144146955Y-75052517D03*
%TD*%
D23*
%TO.C,C6*%
X146371955Y-76377518D03*
X146371955Y-77927518D03*
%TD*%
D24*
%TO.C,J11*%
X161921955Y-93322518D03*
X162721955Y-93322518D03*
D25*
X163871955Y-93322518D03*
X164871955Y-93322518D03*
X165371955Y-93322518D03*
X166371955Y-93322518D03*
D24*
X168321955Y-93322518D03*
X167521955Y-93322518D03*
D25*
X166871955Y-93322518D03*
X165871955Y-93322518D03*
X164371955Y-93322518D03*
X163371955Y-93322518D03*
%TD*%
D22*
%TO.C,C8*%
X178646955Y-73077518D03*
X180196955Y-73077518D03*
%TD*%
D12*
%TO.C,R5*%
X168046955Y-90927518D03*
X169696955Y-90927518D03*
%TD*%
D26*
%TO.C,LDO1*%
X144612488Y-78852517D03*
X144612488Y-78202519D03*
X144612488Y-77552517D03*
X144612488Y-76902519D03*
X141631422Y-76902519D03*
X141631422Y-77552517D03*
X141631422Y-78202519D03*
X141631422Y-78852517D03*
%TD*%
D27*
%TO.C,MCU1*%
X152871955Y-62202518D03*
X152871955Y-63052518D03*
X152871955Y-63902518D03*
X152871955Y-64752518D03*
X152871955Y-65602518D03*
X152871955Y-66452518D03*
X152871955Y-67302518D03*
X152871955Y-68152518D03*
X152871955Y-69002518D03*
X152871955Y-69852518D03*
X152871955Y-70702518D03*
X152871955Y-71552518D03*
X152871955Y-72402518D03*
X152871955Y-73252518D03*
X152871955Y-74102518D03*
D28*
X153921955Y-75152518D03*
X154771955Y-75152518D03*
X155621955Y-75152518D03*
X156471955Y-75152518D03*
X157321955Y-75152518D03*
X158171955Y-75152518D03*
X159021955Y-75152518D03*
X159871955Y-75152518D03*
X160721955Y-75152518D03*
X161571955Y-75152518D03*
X162421955Y-75152518D03*
X163271955Y-75152518D03*
X164121955Y-75152518D03*
X164971955Y-75152518D03*
X165821955Y-75152518D03*
D27*
X166871955Y-74102518D03*
X166871955Y-73252518D03*
X166871955Y-72402518D03*
X166871955Y-71552518D03*
X166871955Y-70702518D03*
X166871955Y-69852518D03*
X166871955Y-69002518D03*
X166871955Y-68152518D03*
X166871955Y-67302518D03*
X166871955Y-66452518D03*
X166871955Y-65602518D03*
X166871955Y-64752518D03*
X166871955Y-63902518D03*
X166871955Y-63052518D03*
X166871955Y-62202518D03*
D28*
X165821955Y-61152518D03*
X164971955Y-61152518D03*
X164121955Y-61152518D03*
X163271955Y-61152518D03*
X162421955Y-61152518D03*
X161571955Y-61152518D03*
X160721955Y-61152518D03*
X159871955Y-61152518D03*
X159021955Y-61152518D03*
X158171955Y-61152518D03*
X157321955Y-61152518D03*
X156471955Y-61152518D03*
X155621955Y-61152518D03*
X154771955Y-61152518D03*
X153921955Y-61152518D03*
D29*
X159871955Y-68152518D03*
X159871955Y-66502518D03*
X161521955Y-66502518D03*
X161521955Y-68152518D03*
X161521955Y-69802518D03*
X159871955Y-69802518D03*
X158221955Y-69802518D03*
X158221955Y-68152518D03*
D30*
X152871955Y-61152518D03*
X152871955Y-75152518D03*
X166871955Y-75152518D03*
X166871955Y-61152518D03*
%TD*%
D31*
%TO.C,SW3*%
X152121955Y-95877518D03*
X152121955Y-98277518D03*
X154621955Y-95877518D03*
X154621955Y-98277518D03*
X157121955Y-95877518D03*
X157121955Y-98277518D03*
%TD*%
D32*
%TO.C,U1*%
X179661955Y-84247518D03*
X177121955Y-84247518D03*
X174581955Y-84247518D03*
%TD*%
D33*
%TO.C,C4*%
X146621955Y-57877518D03*
X146621955Y-56327518D03*
%TD*%
D23*
%TO.C,C3*%
X173621955Y-56102518D03*
X173621955Y-57652518D03*
%TD*%
D13*
%TO.C,R6*%
X163196955Y-90927518D03*
X161546955Y-90927518D03*
%TD*%
D34*
%TO.C,Accelerometer1*%
X176621955Y-70037518D03*
X177121955Y-70037518D03*
X177621955Y-70037518D03*
X178121955Y-70037518D03*
D35*
X178281955Y-69377518D03*
X178281955Y-68877518D03*
X178281955Y-68377518D03*
D34*
X178121955Y-67717518D03*
X177621955Y-67717518D03*
X177121955Y-67717518D03*
X176621955Y-67717518D03*
D35*
X176461955Y-68377518D03*
X176461955Y-68877518D03*
X176461955Y-69377518D03*
%TD*%
D23*
%TO.C,C5*%
X146621955Y-60102518D03*
X146621955Y-61652518D03*
%TD*%
D14*
%TO.C,D3*%
X139650000Y-78750000D03*
X136850000Y-78750000D03*
%TD*%
D22*
%TO.C,C9*%
X174846955Y-74877518D03*
X176396955Y-74877518D03*
%TD*%
D12*
%TO.C,R4*%
X141546955Y-71877518D03*
X143196955Y-71877518D03*
%TD*%
D33*
%TO.C,C7*%
X180121955Y-69652518D03*
X180121955Y-68102518D03*
%TD*%
D36*
%TO.C,R2*%
X157771955Y-91352518D03*
X157771955Y-89702518D03*
%TD*%
M02*
