G04 #@! TF.GenerationSoftware,KiCad,Pcbnew,8.0.5*
G04 #@! TF.CreationDate,2024-10-31T19:03:19-07:00*
G04 #@! TF.ProjectId,uSlime_BNO085_Module,75536c69-6d65-45f4-924e-4f3038355f4d,rev?*
G04 #@! TF.SameCoordinates,Original*
G04 #@! TF.FileFunction,Legend,Bot*
G04 #@! TF.FilePolarity,Positive*
%FSLAX46Y46*%
G04 Gerber Fmt 4.6, Leading zero omitted, Abs format (unit mm)*
G04 Created by KiCad (PCBNEW 8.0.5) date 2024-10-31 19:03:19*
%MOMM*%
%LPD*%
G01*
G04 APERTURE LIST*
G04 Aperture macros list*
%AMFreePoly0*
4,1,19,0.550000,-0.750000,0.000000,-0.750000,0.000000,-0.744911,-0.071157,-0.744911,-0.207708,-0.704816,-0.327430,-0.627875,-0.420627,-0.520320,-0.479746,-0.390866,-0.500000,-0.250000,-0.500000,0.250000,-0.479746,0.390866,-0.420627,0.520320,-0.327430,0.627875,-0.207708,0.704816,-0.071157,0.744911,0.000000,0.744911,0.000000,0.750000,0.550000,0.750000,0.550000,-0.750000,0.550000,-0.750000,
$1*%
%AMFreePoly1*
4,1,19,0.000000,0.744911,0.071157,0.744911,0.207708,0.704816,0.327430,0.627875,0.420627,0.520320,0.479746,0.390866,0.500000,0.250000,0.500000,-0.250000,0.479746,-0.390866,0.420627,-0.520320,0.327430,-0.627875,0.207708,-0.704816,0.071157,-0.744911,0.000000,-0.744911,0.000000,-0.750000,-0.550000,-0.750000,-0.550000,0.750000,0.000000,0.750000,0.000000,0.744911,0.000000,0.744911,
$1*%
G04 Aperture macros list end*
%ADD10C,0.100000*%
%ADD11C,0.120000*%
%ADD12R,1.700000X1.700000*%
%ADD13O,1.700000X1.700000*%
%ADD14C,2.200000*%
%ADD15FreePoly0,0.000000*%
%ADD16R,1.000000X1.500000*%
%ADD17FreePoly1,0.000000*%
G04 APERTURE END LIST*
D10*
X100167544Y-95305752D02*
X100167544Y-95972419D01*
X100405639Y-94924800D02*
X100643734Y-95639085D01*
X100643734Y-95639085D02*
X100024687Y-95639085D01*
X99310401Y-95448609D02*
X99167544Y-95496228D01*
X99167544Y-95496228D02*
X99119925Y-95543847D01*
X99119925Y-95543847D02*
X99072306Y-95639085D01*
X99072306Y-95639085D02*
X99072306Y-95781942D01*
X99072306Y-95781942D02*
X99119925Y-95877180D01*
X99119925Y-95877180D02*
X99167544Y-95924800D01*
X99167544Y-95924800D02*
X99262782Y-95972419D01*
X99262782Y-95972419D02*
X99643734Y-95972419D01*
X99643734Y-95972419D02*
X99643734Y-94972419D01*
X99643734Y-94972419D02*
X99310401Y-94972419D01*
X99310401Y-94972419D02*
X99215163Y-95020038D01*
X99215163Y-95020038D02*
X99167544Y-95067657D01*
X99167544Y-95067657D02*
X99119925Y-95162895D01*
X99119925Y-95162895D02*
X99119925Y-95258133D01*
X99119925Y-95258133D02*
X99167544Y-95353371D01*
X99167544Y-95353371D02*
X99215163Y-95400990D01*
X99215163Y-95400990D02*
X99310401Y-95448609D01*
X99310401Y-95448609D02*
X99643734Y-95448609D01*
X102667544Y-95305752D02*
X102667544Y-95972419D01*
X102905639Y-94924800D02*
X103143734Y-95639085D01*
X103143734Y-95639085D02*
X102524687Y-95639085D01*
X102191353Y-95686704D02*
X101715163Y-95686704D01*
X102286591Y-95972419D02*
X101953258Y-94972419D01*
X101953258Y-94972419D02*
X101619925Y-95972419D01*
D11*
X99050000Y-97400000D02*
X99050000Y-96800000D01*
X99600000Y-95600000D02*
X99900000Y-95900000D01*
X99700000Y-96100000D02*
X102500000Y-96100000D01*
X100200000Y-95600000D02*
X99600000Y-95600000D01*
X100200000Y-95600000D02*
X99900000Y-95900000D01*
X102500000Y-98100000D02*
X99700000Y-98100000D01*
X103150000Y-96800000D02*
X103150000Y-97400000D01*
X99050000Y-96800000D02*
G75*
G02*
X99750000Y-96100000I699999J1D01*
G01*
X99750000Y-98100000D02*
G75*
G02*
X99050000Y-97400000I-1J699999D01*
G01*
X102450000Y-96100000D02*
G75*
G02*
X103150000Y-96800000I0J-700000D01*
G01*
X103150000Y-97400000D02*
G75*
G02*
X102450000Y-98100000I-700000J0D01*
G01*
%LPC*%
D12*
X95900000Y-97060000D03*
D13*
X95900000Y-99600000D03*
X95900000Y-102140000D03*
X95900000Y-104680000D03*
X95900000Y-107220000D03*
D14*
X107150000Y-107100000D03*
D15*
X99800000Y-97100000D03*
D16*
X101100000Y-97100000D03*
D17*
X102400000Y-97100000D03*
%LPD*%
M02*
