G04 #@! TF.GenerationSoftware,KiCad,Pcbnew,8.0.5*
G04 #@! TF.CreationDate,2024-10-31T19:03:19-07:00*
G04 #@! TF.ProjectId,uSlime_BNO085_Module,75536c69-6d65-45f4-924e-4f3038355f4d,rev?*
G04 #@! TF.SameCoordinates,Original*
G04 #@! TF.FileFunction,Legend,Top*
G04 #@! TF.FilePolarity,Positive*
%FSLAX46Y46*%
G04 Gerber Fmt 4.6, Leading zero omitted, Abs format (unit mm)*
G04 Created by KiCad (PCBNEW 8.0.5) date 2024-10-31 19:03:19*
%MOMM*%
%LPD*%
G01*
G04 APERTURE LIST*
G04 Aperture macros list*
%AMRoundRect*
0 Rectangle with rounded corners*
0 $1 Rounding radius*
0 $2 $3 $4 $5 $6 $7 $8 $9 X,Y pos of 4 corners*
0 Add a 4 corners polygon primitive as box body*
4,1,4,$2,$3,$4,$5,$6,$7,$8,$9,$2,$3,0*
0 Add four circle primitives for the rounded corners*
1,1,$1+$1,$2,$3*
1,1,$1+$1,$4,$5*
1,1,$1+$1,$6,$7*
1,1,$1+$1,$8,$9*
0 Add four rect primitives between the rounded corners*
20,1,$1+$1,$2,$3,$4,$5,0*
20,1,$1+$1,$4,$5,$6,$7,0*
20,1,$1+$1,$6,$7,$8,$9,0*
20,1,$1+$1,$8,$9,$2,$3,0*%
G04 Aperture macros list end*
%ADD10C,0.120000*%
%ADD11C,0.250000*%
%ADD12RoundRect,0.200000X-0.275000X0.200000X-0.275000X-0.200000X0.275000X-0.200000X0.275000X0.200000X0*%
%ADD13RoundRect,0.200000X-0.200000X-0.275000X0.200000X-0.275000X0.200000X0.275000X-0.200000X0.275000X0*%
%ADD14R,1.700000X1.700000*%
%ADD15O,1.700000X1.700000*%
%ADD16RoundRect,0.200000X0.200000X0.275000X-0.200000X0.275000X-0.200000X-0.275000X0.200000X-0.275000X0*%
%ADD17RoundRect,0.225000X0.225000X0.250000X-0.225000X0.250000X-0.225000X-0.250000X0.225000X-0.250000X0*%
%ADD18RoundRect,0.200000X0.275000X-0.200000X0.275000X0.200000X-0.275000X0.200000X-0.275000X-0.200000X0*%
%ADD19R,0.914400X0.250000*%
%ADD20R,0.250000X0.812800*%
%ADD21RoundRect,0.225000X-0.250000X0.225000X-0.250000X-0.225000X0.250000X-0.225000X0.250000X0.225000X0*%
%ADD22C,2.200000*%
%ADD23RoundRect,0.225000X0.250000X-0.225000X0.250000X0.225000X-0.250000X0.225000X-0.250000X-0.225000X0*%
G04 APERTURE END LIST*
D10*
X100627500Y-97362742D02*
X100627500Y-97837258D01*
X101672500Y-97362742D02*
X101672500Y-97837258D01*
X106337742Y-99077500D02*
X106812258Y-99077500D01*
X106337742Y-100122500D02*
X106812258Y-100122500D01*
X94570000Y-95730000D02*
X95900000Y-95730000D01*
X94570000Y-97060000D02*
X94570000Y-95730000D01*
X94570000Y-98330000D02*
X94570000Y-108550000D01*
X94570000Y-98330000D02*
X97230000Y-98330000D01*
X94570000Y-108550000D02*
X97230000Y-108550000D01*
X97230000Y-98330000D02*
X97230000Y-108550000D01*
X106812258Y-97327500D02*
X106337742Y-97327500D01*
X106812258Y-98372500D02*
X106337742Y-98372500D01*
X106337742Y-95577500D02*
X106812258Y-95577500D01*
X106337742Y-96622500D02*
X106812258Y-96622500D01*
X106715580Y-100840000D02*
X106434420Y-100840000D01*
X106715580Y-101860000D02*
X106434420Y-101860000D01*
X98877500Y-97362742D02*
X98877500Y-97837258D01*
X99922500Y-97362742D02*
X99922500Y-97837258D01*
X102377500Y-97837258D02*
X102377500Y-97362742D01*
X103422500Y-97837258D02*
X103422500Y-97362742D01*
D11*
X99775930Y-105747000D02*
G75*
G02*
X99525930Y-105747000I-125000J0D01*
G01*
X99525930Y-105747000D02*
G75*
G02*
X99775930Y-105747000I125000J0D01*
G01*
D10*
X99390000Y-107459420D02*
X99390000Y-107740580D01*
X100410000Y-107459420D02*
X100410000Y-107740580D01*
X106715580Y-102590000D02*
X106434420Y-102590000D01*
X106715580Y-103610000D02*
X106434420Y-103610000D01*
X102877500Y-107837258D02*
X102877500Y-107362742D01*
X103922500Y-107837258D02*
X103922500Y-107362742D01*
X101140000Y-107740580D02*
X101140000Y-107459420D01*
X102160000Y-107740580D02*
X102160000Y-107459420D01*
%LPC*%
D12*
X101150000Y-96775000D03*
X101150000Y-98425000D03*
D13*
X105750000Y-99600000D03*
X107400000Y-99600000D03*
D14*
X95900000Y-97060000D03*
D15*
X95900000Y-99600000D03*
X95900000Y-102140000D03*
X95900000Y-104680000D03*
X95900000Y-107220000D03*
D16*
X107400000Y-97850000D03*
X105750000Y-97850000D03*
D13*
X105750000Y-96100000D03*
X107400000Y-96100000D03*
D17*
X107350000Y-101350000D03*
X105800000Y-101350000D03*
D12*
X99400000Y-96775000D03*
X99400000Y-98425000D03*
D18*
X102900000Y-98425000D03*
X102900000Y-96775000D03*
D19*
X99723600Y-104744400D03*
D20*
X100650930Y-104935400D03*
X101154000Y-104935400D03*
X101654000Y-104935400D03*
X102153990Y-104935400D03*
D19*
X103076400Y-104744400D03*
X103076400Y-104244400D03*
X103076400Y-103744400D03*
X103076400Y-103244400D03*
X103076400Y-102744400D03*
X103076400Y-102244400D03*
X103076400Y-101744400D03*
X103076400Y-101244400D03*
X103076400Y-100744400D03*
X103076400Y-100236400D03*
D20*
X102154000Y-100109400D03*
X101654000Y-100109400D03*
X101154000Y-100109400D03*
X100650930Y-100109400D03*
D19*
X99723600Y-100236400D03*
X99723600Y-100744400D03*
X99723600Y-101244400D03*
X99723600Y-101744400D03*
X99723600Y-102244400D03*
X99723600Y-102744400D03*
X99723600Y-103244400D03*
X99723600Y-103744400D03*
X99723600Y-104244400D03*
D21*
X99900000Y-106825000D03*
X99900000Y-108375000D03*
D17*
X107350000Y-103100000D03*
X105800000Y-103100000D03*
D22*
X107150000Y-107100000D03*
D18*
X103400000Y-108425000D03*
X103400000Y-106775000D03*
D23*
X101650000Y-108375000D03*
X101650000Y-106825000D03*
%LPD*%
M02*
