G04 #@! TF.GenerationSoftware,KiCad,Pcbnew,8.0.5*
G04 #@! TF.CreationDate,2024-10-31T19:03:19-07:00*
G04 #@! TF.ProjectId,uSlime_BNO085_Module,75536c69-6d65-45f4-924e-4f3038355f4d,rev?*
G04 #@! TF.SameCoordinates,Original*
G04 #@! TF.FileFunction,Paste,Top*
G04 #@! TF.FilePolarity,Positive*
%FSLAX46Y46*%
G04 Gerber Fmt 4.6, Leading zero omitted, Abs format (unit mm)*
G04 Created by KiCad (PCBNEW 8.0.5) date 2024-10-31 19:03:19*
%MOMM*%
%LPD*%
G01*
G04 APERTURE LIST*
G04 Aperture macros list*
%AMRoundRect*
0 Rectangle with rounded corners*
0 $1 Rounding radius*
0 $2 $3 $4 $5 $6 $7 $8 $9 X,Y pos of 4 corners*
0 Add a 4 corners polygon primitive as box body*
4,1,4,$2,$3,$4,$5,$6,$7,$8,$9,$2,$3,0*
0 Add four circle primitives for the rounded corners*
1,1,$1+$1,$2,$3*
1,1,$1+$1,$4,$5*
1,1,$1+$1,$6,$7*
1,1,$1+$1,$8,$9*
0 Add four rect primitives between the rounded corners*
20,1,$1+$1,$2,$3,$4,$5,0*
20,1,$1+$1,$4,$5,$6,$7,0*
20,1,$1+$1,$6,$7,$8,$9,0*
20,1,$1+$1,$8,$9,$2,$3,0*%
G04 Aperture macros list end*
%ADD10RoundRect,0.200000X-0.275000X0.200000X-0.275000X-0.200000X0.275000X-0.200000X0.275000X0.200000X0*%
%ADD11RoundRect,0.200000X-0.200000X-0.275000X0.200000X-0.275000X0.200000X0.275000X-0.200000X0.275000X0*%
%ADD12RoundRect,0.200000X0.200000X0.275000X-0.200000X0.275000X-0.200000X-0.275000X0.200000X-0.275000X0*%
%ADD13RoundRect,0.225000X0.225000X0.250000X-0.225000X0.250000X-0.225000X-0.250000X0.225000X-0.250000X0*%
%ADD14RoundRect,0.200000X0.275000X-0.200000X0.275000X0.200000X-0.275000X0.200000X-0.275000X-0.200000X0*%
%ADD15R,0.914400X0.250000*%
%ADD16R,0.250000X0.812800*%
%ADD17RoundRect,0.225000X-0.250000X0.225000X-0.250000X-0.225000X0.250000X-0.225000X0.250000X0.225000X0*%
%ADD18RoundRect,0.225000X0.250000X-0.225000X0.250000X0.225000X-0.250000X0.225000X-0.250000X-0.225000X0*%
G04 APERTURE END LIST*
D10*
X101150000Y-96775000D03*
X101150000Y-98425000D03*
D11*
X105750000Y-99600000D03*
X107400000Y-99600000D03*
D12*
X107400000Y-97850000D03*
X105750000Y-97850000D03*
D11*
X105750000Y-96100000D03*
X107400000Y-96100000D03*
D13*
X107350000Y-101350000D03*
X105800000Y-101350000D03*
D10*
X99400000Y-96775000D03*
X99400000Y-98425000D03*
D14*
X102900000Y-98425000D03*
X102900000Y-96775000D03*
D15*
X99723600Y-104744400D03*
D16*
X100650930Y-104935400D03*
X101154000Y-104935400D03*
X101654000Y-104935400D03*
X102153990Y-104935400D03*
D15*
X103076400Y-104744400D03*
X103076400Y-104244400D03*
X103076400Y-103744400D03*
X103076400Y-103244400D03*
X103076400Y-102744400D03*
X103076400Y-102244400D03*
X103076400Y-101744400D03*
X103076400Y-101244400D03*
X103076400Y-100744400D03*
X103076400Y-100236400D03*
D16*
X102154000Y-100109400D03*
X101654000Y-100109400D03*
X101154000Y-100109400D03*
X100650930Y-100109400D03*
D15*
X99723600Y-100236400D03*
X99723600Y-100744400D03*
X99723600Y-101244400D03*
X99723600Y-101744400D03*
X99723600Y-102244400D03*
X99723600Y-102744400D03*
X99723600Y-103244400D03*
X99723600Y-103744400D03*
X99723600Y-104244400D03*
D17*
X99900000Y-106825000D03*
X99900000Y-108375000D03*
D13*
X107350000Y-103100000D03*
X105800000Y-103100000D03*
D14*
X103400000Y-108425000D03*
X103400000Y-106775000D03*
D18*
X101650000Y-108375000D03*
X101650000Y-106825000D03*
M02*
