G04 #@! TF.GenerationSoftware,KiCad,Pcbnew,8.0.5*
G04 #@! TF.CreationDate,2024-10-31T19:03:19-07:00*
G04 #@! TF.ProjectId,uSlime_BNO085_Module,75536c69-6d65-45f4-924e-4f3038355f4d,rev?*
G04 #@! TF.SameCoordinates,Original*
G04 #@! TF.FileFunction,Copper,L2,Bot*
G04 #@! TF.FilePolarity,Positive*
%FSLAX46Y46*%
G04 Gerber Fmt 4.6, Leading zero omitted, Abs format (unit mm)*
G04 Created by KiCad (PCBNEW 8.0.5) date 2024-10-31 19:03:19*
%MOMM*%
%LPD*%
G01*
G04 APERTURE LIST*
G04 Aperture macros list*
%AMFreePoly0*
4,1,19,0.550000,-0.750000,0.000000,-0.750000,0.000000,-0.744911,-0.071157,-0.744911,-0.207708,-0.704816,-0.327430,-0.627875,-0.420627,-0.520320,-0.479746,-0.390866,-0.500000,-0.250000,-0.500000,0.250000,-0.479746,0.390866,-0.420627,0.520320,-0.327430,0.627875,-0.207708,0.704816,-0.071157,0.744911,0.000000,0.744911,0.000000,0.750000,0.550000,0.750000,0.550000,-0.750000,0.550000,-0.750000,
$1*%
%AMFreePoly1*
4,1,19,0.000000,0.744911,0.071157,0.744911,0.207708,0.704816,0.327430,0.627875,0.420627,0.520320,0.479746,0.390866,0.500000,0.250000,0.500000,-0.250000,0.479746,-0.390866,0.420627,-0.520320,0.327430,-0.627875,0.207708,-0.704816,0.071157,-0.744911,0.000000,-0.744911,0.000000,-0.750000,-0.550000,-0.750000,-0.550000,0.750000,0.000000,0.750000,0.000000,0.744911,0.000000,0.744911,
$1*%
G04 Aperture macros list end*
G04 #@! TA.AperFunction,ComponentPad*
%ADD10R,1.700000X1.700000*%
G04 #@! TD*
G04 #@! TA.AperFunction,ComponentPad*
%ADD11O,1.700000X1.700000*%
G04 #@! TD*
G04 #@! TA.AperFunction,SMDPad,CuDef*
%ADD12FreePoly0,0.000000*%
G04 #@! TD*
G04 #@! TA.AperFunction,SMDPad,CuDef*
%ADD13R,1.000000X1.500000*%
G04 #@! TD*
G04 #@! TA.AperFunction,SMDPad,CuDef*
%ADD14FreePoly1,0.000000*%
G04 #@! TD*
G04 #@! TA.AperFunction,ViaPad*
%ADD15C,0.500000*%
G04 #@! TD*
G04 #@! TA.AperFunction,ViaPad*
%ADD16C,0.350000*%
G04 #@! TD*
G04 #@! TA.AperFunction,ViaPad*
%ADD17C,0.600000*%
G04 #@! TD*
G04 #@! TA.AperFunction,Conductor*
%ADD18C,0.381000*%
G04 #@! TD*
G04 #@! TA.AperFunction,Conductor*
%ADD19C,0.254000*%
G04 #@! TD*
G04 APERTURE END LIST*
D10*
X95900000Y-97060000D03*
D11*
X95900000Y-99600000D03*
X95900000Y-102140000D03*
X95900000Y-104680000D03*
X95900000Y-107220000D03*
D12*
X99800000Y-97100000D03*
D13*
X101100000Y-97100000D03*
D14*
X102400000Y-97100000D03*
D15*
X100650930Y-105910000D03*
D16*
X105670000Y-104750000D03*
X100150000Y-99350000D03*
X98652000Y-102850000D03*
D17*
X104876205Y-95627010D03*
D16*
X104150000Y-100100000D03*
X101650000Y-99350000D03*
D18*
X102400000Y-99399738D02*
X101349738Y-100450000D01*
D19*
X100650930Y-105910000D02*
X104510000Y-105910000D01*
X104510000Y-105910000D02*
X105670000Y-104750000D01*
D18*
X102400000Y-97100000D02*
X102400000Y-99399738D01*
X101349738Y-100450000D02*
X96750000Y-100450000D01*
X96750000Y-100450000D02*
X95900000Y-99600000D01*
D19*
X97860000Y-97060000D02*
X100150000Y-99350000D01*
X95900000Y-97060000D02*
X97860000Y-97060000D01*
X98650000Y-102850000D02*
X98652000Y-102850000D01*
X95900000Y-107220000D02*
X98650000Y-104470000D01*
X98650000Y-104470000D02*
X98650000Y-102850000D01*
D18*
X99800000Y-96369000D02*
X100723000Y-95446000D01*
X104714000Y-95446000D02*
X104876205Y-95608205D01*
X100723000Y-95446000D02*
X104714000Y-95446000D01*
X104876205Y-95608205D02*
X104876205Y-95627010D01*
X99800000Y-97100000D02*
X99800000Y-96369000D01*
D19*
X95900000Y-102140000D02*
X102110000Y-102140000D01*
X102110000Y-102140000D02*
X104150000Y-100100000D01*
X101100000Y-98800000D02*
X101650000Y-99350000D01*
X101100000Y-97100000D02*
X101100000Y-98800000D01*
G04 #@! TA.AperFunction,Conductor*
G36*
X100108954Y-94870185D02*
G01*
X100154709Y-94922989D01*
X100164653Y-94992147D01*
X100135628Y-95055703D01*
X100129596Y-95062181D01*
X99263269Y-95928507D01*
X99263266Y-95928510D01*
X99202826Y-96018967D01*
X99184260Y-96046753D01*
X99183067Y-96045956D01*
X99161886Y-96072463D01*
X99087168Y-96137208D01*
X98993018Y-96245864D01*
X98993015Y-96245867D01*
X98915231Y-96366905D01*
X98915223Y-96366918D01*
X98858263Y-96491643D01*
X98856015Y-96495939D01*
X98814966Y-96635738D01*
X98814963Y-96635748D01*
X98794503Y-96778059D01*
X98794503Y-96807721D01*
X98774818Y-96874760D01*
X98722014Y-96920515D01*
X98652856Y-96930459D01*
X98589300Y-96901434D01*
X98582822Y-96895402D01*
X98260011Y-96572591D01*
X98260006Y-96572587D01*
X98217098Y-96543918D01*
X98217096Y-96543916D01*
X98157233Y-96503917D01*
X98157226Y-96503913D01*
X98123785Y-96490062D01*
X98043035Y-96456614D01*
X98043027Y-96456612D01*
X97921807Y-96432500D01*
X97921803Y-96432500D01*
X97837392Y-96432500D01*
X97770353Y-96412815D01*
X97757052Y-96402953D01*
X97546738Y-96224063D01*
X97546730Y-96224058D01*
X97444624Y-96137208D01*
X97085733Y-95831940D01*
X97085724Y-95831933D01*
X97085716Y-95831926D01*
X97059417Y-95811023D01*
X97059412Y-95811019D01*
X97059407Y-95811016D01*
X97059398Y-95811010D01*
X97041494Y-95801334D01*
X97026140Y-95791513D01*
X96992334Y-95766206D01*
X96992331Y-95766204D01*
X96949295Y-95750152D01*
X96933679Y-95743062D01*
X96932834Y-95742605D01*
X96925273Y-95739822D01*
X96925265Y-95739820D01*
X96925263Y-95739819D01*
X96917086Y-95737591D01*
X96906353Y-95734136D01*
X96857482Y-95715908D01*
X96857483Y-95715908D01*
X96797883Y-95709501D01*
X96797881Y-95709500D01*
X96797873Y-95709500D01*
X96797864Y-95709500D01*
X95002129Y-95709500D01*
X95002123Y-95709501D01*
X94942516Y-95715908D01*
X94807671Y-95766202D01*
X94807664Y-95766206D01*
X94692455Y-95852452D01*
X94692452Y-95852455D01*
X94606206Y-95967664D01*
X94606202Y-95967671D01*
X94555908Y-96102517D01*
X94549501Y-96162116D01*
X94549500Y-96162135D01*
X94549500Y-97957870D01*
X94549501Y-97957876D01*
X94555908Y-98017483D01*
X94606202Y-98152328D01*
X94606206Y-98152335D01*
X94692452Y-98267544D01*
X94692455Y-98267547D01*
X94807664Y-98353793D01*
X94807671Y-98353797D01*
X94836995Y-98364734D01*
X94939598Y-98403002D01*
X94995531Y-98444873D01*
X95019949Y-98510337D01*
X95005098Y-98578610D01*
X94983947Y-98606865D01*
X94861886Y-98728926D01*
X94726400Y-98922420D01*
X94726399Y-98922422D01*
X94626570Y-99136507D01*
X94626567Y-99136513D01*
X94569364Y-99349999D01*
X94569364Y-99350000D01*
X95466988Y-99350000D01*
X95434075Y-99407007D01*
X95400000Y-99534174D01*
X95400000Y-99665826D01*
X95434075Y-99792993D01*
X95466988Y-99850000D01*
X94569364Y-99850000D01*
X94626567Y-100063486D01*
X94626570Y-100063492D01*
X94726399Y-100277578D01*
X94861894Y-100471082D01*
X95028917Y-100638105D01*
X95214595Y-100768119D01*
X95258219Y-100822696D01*
X95265412Y-100892195D01*
X95233890Y-100954549D01*
X95214595Y-100971269D01*
X95028594Y-101101508D01*
X94861505Y-101268597D01*
X94725965Y-101462169D01*
X94725964Y-101462171D01*
X94626098Y-101676335D01*
X94626094Y-101676344D01*
X94564938Y-101904586D01*
X94564936Y-101904596D01*
X94544341Y-102139999D01*
X94544341Y-102140000D01*
X94564936Y-102375403D01*
X94564938Y-102375413D01*
X94626094Y-102603655D01*
X94626096Y-102603659D01*
X94626097Y-102603663D01*
X94710075Y-102783754D01*
X94725965Y-102817830D01*
X94725967Y-102817834D01*
X94861501Y-103011395D01*
X94861506Y-103011402D01*
X95028597Y-103178493D01*
X95028603Y-103178498D01*
X95214158Y-103308425D01*
X95257783Y-103363002D01*
X95264977Y-103432500D01*
X95233454Y-103494855D01*
X95214158Y-103511575D01*
X95028597Y-103641505D01*
X94861505Y-103808597D01*
X94725965Y-104002169D01*
X94725964Y-104002171D01*
X94626098Y-104216335D01*
X94626094Y-104216344D01*
X94564938Y-104444586D01*
X94564936Y-104444596D01*
X94544341Y-104679999D01*
X94544341Y-104680000D01*
X94564936Y-104915403D01*
X94564938Y-104915413D01*
X94626094Y-105143655D01*
X94626096Y-105143659D01*
X94626097Y-105143663D01*
X94725965Y-105357830D01*
X94725967Y-105357834D01*
X94861501Y-105551395D01*
X94861506Y-105551402D01*
X95028597Y-105718493D01*
X95028603Y-105718498D01*
X95214158Y-105848425D01*
X95257783Y-105903002D01*
X95264977Y-105972500D01*
X95233454Y-106034855D01*
X95214158Y-106051575D01*
X95028597Y-106181505D01*
X94861505Y-106348597D01*
X94725965Y-106542169D01*
X94725964Y-106542171D01*
X94626098Y-106756335D01*
X94626094Y-106756344D01*
X94564938Y-106984586D01*
X94564936Y-106984596D01*
X94544341Y-107219999D01*
X94544341Y-107220000D01*
X94564936Y-107455403D01*
X94564938Y-107455413D01*
X94626094Y-107683655D01*
X94626096Y-107683659D01*
X94626097Y-107683663D01*
X94634487Y-107701655D01*
X94725965Y-107897830D01*
X94725967Y-107897834D01*
X94783351Y-107979786D01*
X94861505Y-108091401D01*
X95028599Y-108258495D01*
X95125384Y-108326265D01*
X95222165Y-108394032D01*
X95222167Y-108394033D01*
X95222170Y-108394035D01*
X95436337Y-108493903D01*
X95664592Y-108555063D01*
X95852918Y-108571539D01*
X95899999Y-108575659D01*
X95900000Y-108575659D01*
X95900001Y-108575659D01*
X95939234Y-108572226D01*
X96135408Y-108555063D01*
X96363663Y-108493903D01*
X96577830Y-108394035D01*
X96771401Y-108258495D01*
X96938495Y-108091401D01*
X97074035Y-107897830D01*
X97158994Y-107715632D01*
X97161432Y-107710700D01*
X97166161Y-107701655D01*
X97166163Y-107701647D01*
X97166189Y-107701588D01*
X97170725Y-107690478D01*
X97173902Y-107683665D01*
X97173903Y-107683663D01*
X97177114Y-107671677D01*
X97179939Y-107662553D01*
X97415633Y-106993713D01*
X105799500Y-106993713D01*
X105799500Y-107206286D01*
X105832753Y-107416239D01*
X105898444Y-107618414D01*
X105994951Y-107807820D01*
X106119890Y-107979786D01*
X106270213Y-108130109D01*
X106442179Y-108255048D01*
X106442181Y-108255049D01*
X106442184Y-108255051D01*
X106631588Y-108351557D01*
X106833757Y-108417246D01*
X107043713Y-108450500D01*
X107043714Y-108450500D01*
X107256286Y-108450500D01*
X107256287Y-108450500D01*
X107466243Y-108417246D01*
X107668412Y-108351557D01*
X107857816Y-108255051D01*
X107879789Y-108239086D01*
X108029786Y-108130109D01*
X108029788Y-108130106D01*
X108029792Y-108130104D01*
X108180104Y-107979792D01*
X108180106Y-107979788D01*
X108180109Y-107979786D01*
X108305048Y-107807820D01*
X108305047Y-107807820D01*
X108305051Y-107807816D01*
X108401557Y-107618412D01*
X108467246Y-107416243D01*
X108500500Y-107206287D01*
X108500500Y-106993713D01*
X108467246Y-106783757D01*
X108401557Y-106581588D01*
X108305051Y-106392184D01*
X108305049Y-106392181D01*
X108305048Y-106392179D01*
X108180109Y-106220213D01*
X108029786Y-106069890D01*
X107857820Y-105944951D01*
X107668414Y-105848444D01*
X107668413Y-105848443D01*
X107668412Y-105848443D01*
X107466243Y-105782754D01*
X107466241Y-105782753D01*
X107466240Y-105782753D01*
X107304957Y-105757208D01*
X107256287Y-105749500D01*
X107043713Y-105749500D01*
X106995042Y-105757208D01*
X106833760Y-105782753D01*
X106631585Y-105848444D01*
X106442179Y-105944951D01*
X106270213Y-106069890D01*
X106119890Y-106220213D01*
X105994951Y-106392179D01*
X105898444Y-106581585D01*
X105832753Y-106783760D01*
X105799500Y-106993713D01*
X97415633Y-106993713D01*
X97624984Y-106399628D01*
X97654251Y-106353166D01*
X99137411Y-104870008D01*
X99206083Y-104767233D01*
X99253385Y-104653035D01*
X99277500Y-104531803D01*
X99277500Y-104408197D01*
X99277500Y-103279347D01*
X99278749Y-103261791D01*
X99314560Y-103011395D01*
X99325508Y-102934847D01*
X99328161Y-102910401D01*
X99329213Y-102900709D01*
X99329329Y-102899134D01*
X99329330Y-102899119D01*
X99329249Y-102893205D01*
X99348009Y-102825902D01*
X99400179Y-102779425D01*
X99453237Y-102767500D01*
X102171804Y-102767500D01*
X102171805Y-102767499D01*
X102293035Y-102743386D01*
X102373784Y-102709937D01*
X102407233Y-102696083D01*
X102510008Y-102627411D01*
X102597411Y-102540008D01*
X104290068Y-100847349D01*
X104302787Y-100836255D01*
X104305996Y-100833819D01*
X104306003Y-100833816D01*
X104523532Y-100668756D01*
X104530439Y-100664367D01*
X104530372Y-100664269D01*
X104536539Y-100660011D01*
X104536546Y-100660008D01*
X104541891Y-100655271D01*
X104549140Y-100649325D01*
X104568678Y-100634501D01*
X104594349Y-100613665D01*
X104595503Y-100612664D01*
X104625947Y-100581276D01*
X104632697Y-100574824D01*
X104659332Y-100551229D01*
X104752518Y-100416226D01*
X104810688Y-100262845D01*
X104830461Y-100100000D01*
X104810688Y-99937155D01*
X104752518Y-99783774D01*
X104659332Y-99648771D01*
X104659329Y-99648768D01*
X104659327Y-99648766D01*
X104536548Y-99539993D01*
X104391291Y-99463756D01*
X104232022Y-99424500D01*
X104232021Y-99424500D01*
X104067979Y-99424500D01*
X104067978Y-99424500D01*
X103908708Y-99463756D01*
X103763451Y-99539993D01*
X103721330Y-99577308D01*
X103717455Y-99580591D01*
X103714373Y-99583472D01*
X103640667Y-99648771D01*
X103640664Y-99648774D01*
X103630604Y-99663348D01*
X103618366Y-99677938D01*
X103618423Y-99677988D01*
X103616225Y-99680491D01*
X103615695Y-99681124D01*
X103615509Y-99681307D01*
X103615507Y-99681309D01*
X103615500Y-99681317D01*
X103615499Y-99681319D01*
X103435770Y-99918181D01*
X103416174Y-99944006D01*
X103415412Y-99945053D01*
X103402894Y-99959685D01*
X101886400Y-101476181D01*
X101825077Y-101509666D01*
X101798719Y-101512500D01*
X97753390Y-101512500D01*
X97699835Y-101500339D01*
X96608434Y-100977710D01*
X96556471Y-100931001D01*
X96538010Y-100863615D01*
X96558911Y-100796945D01*
X96590865Y-100764296D01*
X96771082Y-100638105D01*
X96938105Y-100471082D01*
X97073600Y-100277578D01*
X97173429Y-100063492D01*
X97173432Y-100063486D01*
X97230636Y-99850000D01*
X96333012Y-99850000D01*
X96365925Y-99792993D01*
X96400000Y-99665826D01*
X96400000Y-99534174D01*
X96365925Y-99407007D01*
X96333012Y-99350000D01*
X97230636Y-99350000D01*
X97230635Y-99349999D01*
X97173432Y-99136513D01*
X97173429Y-99136507D01*
X97073600Y-98922422D01*
X97073599Y-98922420D01*
X96938113Y-98728926D01*
X96938108Y-98728920D01*
X96816053Y-98606865D01*
X96782568Y-98545542D01*
X96787552Y-98475850D01*
X96829424Y-98419917D01*
X96860393Y-98403005D01*
X96894716Y-98390203D01*
X96900736Y-98388353D01*
X96900688Y-98388202D01*
X96904913Y-98386838D01*
X96904916Y-98386838D01*
X96913439Y-98384088D01*
X96963986Y-98364734D01*
X96963991Y-98364730D01*
X96967806Y-98363270D01*
X96973063Y-98360982D01*
X96992331Y-98353796D01*
X97046533Y-98313219D01*
X97054737Y-98307579D01*
X97085733Y-98288059D01*
X97601061Y-97849726D01*
X97664878Y-97821287D01*
X97733943Y-97831863D01*
X97769081Y-97856500D01*
X99402645Y-99490064D01*
X99413746Y-99502791D01*
X99416182Y-99506001D01*
X99416183Y-99506003D01*
X99441974Y-99539993D01*
X99615505Y-99768688D01*
X99630530Y-99787201D01*
X99636294Y-99794893D01*
X99640668Y-99801229D01*
X99668249Y-99825664D01*
X99672337Y-99829454D01*
X99699760Y-99856053D01*
X99703949Y-99859275D01*
X99716996Y-99868850D01*
X99763451Y-99910006D01*
X99763452Y-99910006D01*
X99763454Y-99910008D01*
X99908705Y-99986242D01*
X99908707Y-99986242D01*
X99908708Y-99986243D01*
X100067978Y-100025500D01*
X100067979Y-100025500D01*
X100232022Y-100025500D01*
X100391291Y-99986243D01*
X100391291Y-99986242D01*
X100391295Y-99986242D01*
X100536546Y-99910008D01*
X100659332Y-99801229D01*
X100752518Y-99666226D01*
X100768183Y-99624920D01*
X100810359Y-99569219D01*
X100875956Y-99545161D01*
X100944147Y-99560387D01*
X100982907Y-99593937D01*
X101115498Y-99768678D01*
X101115506Y-99768688D01*
X101115517Y-99768702D01*
X101130530Y-99787201D01*
X101136294Y-99794893D01*
X101140668Y-99801229D01*
X101168249Y-99825664D01*
X101172337Y-99829454D01*
X101199760Y-99856053D01*
X101203949Y-99859275D01*
X101216996Y-99868850D01*
X101263451Y-99910006D01*
X101263452Y-99910006D01*
X101263454Y-99910008D01*
X101408705Y-99986242D01*
X101408707Y-99986242D01*
X101408708Y-99986243D01*
X101567978Y-100025500D01*
X101567979Y-100025500D01*
X101732022Y-100025500D01*
X101891291Y-99986243D01*
X101891291Y-99986242D01*
X101891295Y-99986242D01*
X102036546Y-99910008D01*
X102159332Y-99801229D01*
X102252518Y-99666226D01*
X102310688Y-99512845D01*
X102330461Y-99350000D01*
X102310688Y-99187155D01*
X102252518Y-99033774D01*
X102159332Y-98898771D01*
X102095067Y-98841837D01*
X102089047Y-98836133D01*
X102068682Y-98815501D01*
X102068676Y-98815496D01*
X102049130Y-98800664D01*
X102041861Y-98794700D01*
X102036546Y-98789991D01*
X102030373Y-98785731D01*
X102030440Y-98785633D01*
X102023531Y-98781240D01*
X101897955Y-98685955D01*
X101810168Y-98619343D01*
X101768663Y-98563142D01*
X101764132Y-98493419D01*
X101785731Y-98446422D01*
X102000243Y-98158873D01*
X102019312Y-98126338D01*
X102027006Y-98114759D01*
X102043796Y-98092331D01*
X102047992Y-98081077D01*
X102055347Y-98065603D01*
X102055183Y-98065519D01*
X102056740Y-98062488D01*
X102056750Y-98062472D01*
X102058843Y-98057778D01*
X102067241Y-98037803D01*
X102070958Y-98022190D01*
X102075398Y-98007598D01*
X102094091Y-97957483D01*
X102096133Y-97938480D01*
X102099602Y-97906226D01*
X102100024Y-97903779D01*
X102100567Y-97897841D01*
X102100569Y-97897836D01*
X102100568Y-97897830D01*
X102100608Y-97897401D01*
X102100499Y-97893240D01*
X102100499Y-96302129D01*
X102100498Y-96302121D01*
X102097503Y-96274252D01*
X102109910Y-96205493D01*
X102157522Y-96154357D01*
X102220793Y-96137000D01*
X104202755Y-96137000D01*
X104269794Y-96156685D01*
X104290436Y-96173319D01*
X104373943Y-96256826D01*
X104526683Y-96352799D01*
X104567033Y-96366918D01*
X104696950Y-96412378D01*
X104696955Y-96412379D01*
X104876201Y-96432575D01*
X104876205Y-96432575D01*
X104876209Y-96432575D01*
X105055454Y-96412379D01*
X105055457Y-96412378D01*
X105055460Y-96412378D01*
X105225727Y-96352799D01*
X105378467Y-96256826D01*
X105506021Y-96129272D01*
X105601994Y-95976532D01*
X105661573Y-95806265D01*
X105666087Y-95766202D01*
X105681770Y-95627013D01*
X105681770Y-95627006D01*
X105661574Y-95447760D01*
X105661573Y-95447755D01*
X105627367Y-95350000D01*
X105601994Y-95277488D01*
X105506021Y-95124748D01*
X105443454Y-95062181D01*
X105409969Y-95000858D01*
X105414953Y-94931166D01*
X105456825Y-94875233D01*
X105522289Y-94850816D01*
X105531135Y-94850500D01*
X109334108Y-94850500D01*
X109390244Y-94850500D01*
X109409631Y-94852025D01*
X109457706Y-94859639D01*
X109494595Y-94871625D01*
X109529156Y-94889235D01*
X109560538Y-94912036D01*
X109587963Y-94939461D01*
X109610765Y-94970845D01*
X109626427Y-95001583D01*
X109628372Y-95005399D01*
X109640361Y-95042297D01*
X109647973Y-95090357D01*
X109649500Y-95109755D01*
X109649500Y-108843038D01*
X109648720Y-108856923D01*
X109638540Y-108947264D01*
X109632362Y-108974333D01*
X109604648Y-109053537D01*
X109592600Y-109078555D01*
X109547957Y-109149604D01*
X109530644Y-109171313D01*
X109471313Y-109230644D01*
X109449604Y-109247957D01*
X109378555Y-109292600D01*
X109353537Y-109304648D01*
X109274333Y-109332362D01*
X109247264Y-109338540D01*
X109167075Y-109347576D01*
X109156921Y-109348720D01*
X109143038Y-109349500D01*
X94406962Y-109349500D01*
X94393078Y-109348720D01*
X94380553Y-109347308D01*
X94302735Y-109338540D01*
X94275666Y-109332362D01*
X94196462Y-109304648D01*
X94171444Y-109292600D01*
X94100395Y-109247957D01*
X94078686Y-109230644D01*
X94019355Y-109171313D01*
X94002042Y-109149604D01*
X93957399Y-109078555D01*
X93945351Y-109053537D01*
X93917637Y-108974333D01*
X93911459Y-108947263D01*
X93901280Y-108856922D01*
X93900500Y-108843038D01*
X93900500Y-95356961D01*
X93901280Y-95343077D01*
X93911459Y-95252731D01*
X93917635Y-95225670D01*
X93945353Y-95146456D01*
X93957396Y-95121450D01*
X94002046Y-95050389D01*
X94019351Y-95028690D01*
X94078690Y-94969351D01*
X94100389Y-94952046D01*
X94171450Y-94907396D01*
X94196456Y-94895353D01*
X94275670Y-94867635D01*
X94302733Y-94861459D01*
X94365419Y-94854396D01*
X94393079Y-94851280D01*
X94406962Y-94850500D01*
X94465892Y-94850500D01*
X100041915Y-94850500D01*
X100108954Y-94870185D01*
G37*
G04 #@! TD.AperFunction*
G04 #@! TA.AperFunction,Conductor*
G36*
X105670707Y-104749293D02*
G01*
X105793744Y-104873744D01*
X105512315Y-105087290D01*
X105332710Y-104907685D01*
X105546256Y-104626256D01*
X105670707Y-104749293D01*
G37*
G04 #@! TD.AperFunction*
G04 #@! TA.AperFunction,Conductor*
G36*
X100000443Y-99018878D02*
G01*
X100263118Y-99218193D01*
X100267637Y-99225924D01*
X100265367Y-99234586D01*
X100264366Y-99235740D01*
X100150753Y-99350659D01*
X100150659Y-99350753D01*
X100035740Y-99464366D01*
X100027447Y-99467746D01*
X100019194Y-99464272D01*
X100018193Y-99463118D01*
X99818878Y-99200443D01*
X99816608Y-99191781D01*
X99819925Y-99185099D01*
X99985099Y-99019925D01*
X99993371Y-99016499D01*
X100000443Y-99018878D01*
G37*
G04 #@! TD.AperFunction*
G04 #@! TA.AperFunction,Conductor*
G36*
X96758216Y-96216989D02*
G01*
X97236032Y-96623413D01*
X97595881Y-96929496D01*
X97599962Y-96937466D01*
X97600000Y-96938408D01*
X97600000Y-97181591D01*
X97596573Y-97189864D01*
X97595881Y-97190503D01*
X96758216Y-97903010D01*
X96749693Y-97905760D01*
X96742367Y-97902376D01*
X95907286Y-97068276D01*
X95903855Y-97060007D01*
X95907276Y-97051733D01*
X96742368Y-96217622D01*
X96750642Y-96214201D01*
X96758216Y-96216989D01*
G37*
G04 #@! TD.AperFunction*
G04 #@! TA.AperFunction,Conductor*
G36*
X97014270Y-105931047D02*
G01*
X97017490Y-105933327D01*
X97186672Y-106102509D01*
X97190099Y-106110782D01*
X97189434Y-106114671D01*
X96689397Y-107533647D01*
X96683415Y-107540311D01*
X96674473Y-107540793D01*
X96673896Y-107540572D01*
X95903785Y-107222562D01*
X95897447Y-107216238D01*
X95579427Y-106446103D01*
X95579436Y-106437148D01*
X95585775Y-106430823D01*
X95586331Y-106430609D01*
X97005329Y-105930565D01*
X97014270Y-105931047D01*
G37*
G04 #@! TD.AperFunction*
G04 #@! TA.AperFunction,Conductor*
G36*
X98813585Y-102849923D02*
G01*
X98821838Y-102853397D01*
X98825218Y-102861690D01*
X98825100Y-102863279D01*
X98778436Y-103189558D01*
X98773873Y-103197263D01*
X98766854Y-103199602D01*
X98533261Y-103199602D01*
X98524988Y-103196175D01*
X98521661Y-103189428D01*
X98478730Y-102863150D01*
X98481048Y-102854501D01*
X98488804Y-102850024D01*
X98490259Y-102849924D01*
X98652000Y-102849000D01*
X98813585Y-102849923D01*
G37*
G04 #@! TD.AperFunction*
G04 #@! TA.AperFunction,Conductor*
G36*
X96235842Y-101359777D02*
G01*
X96236396Y-101360024D01*
X96249069Y-101366093D01*
X97593353Y-102009817D01*
X97599335Y-102016481D01*
X97600000Y-102020370D01*
X97600000Y-102259629D01*
X97596573Y-102267902D01*
X97593353Y-102270182D01*
X96236406Y-102919970D01*
X96227464Y-102920452D01*
X96220800Y-102914470D01*
X96220548Y-102913906D01*
X95900865Y-102144489D01*
X95900856Y-102135534D01*
X95900865Y-102135511D01*
X95948705Y-102020370D01*
X96220548Y-101366092D01*
X96226887Y-101359768D01*
X96235842Y-101359777D01*
G37*
G04 #@! TD.AperFunction*
G04 #@! TA.AperFunction,Conductor*
G36*
X104034586Y-99984632D02*
G01*
X104035740Y-99985633D01*
X104150659Y-100099246D01*
X104150753Y-100099340D01*
X104264366Y-100214259D01*
X104267746Y-100222552D01*
X104264272Y-100230805D01*
X104263118Y-100231806D01*
X104000443Y-100431121D01*
X103991781Y-100433391D01*
X103985098Y-100430073D01*
X103819926Y-100264901D01*
X103816499Y-100256628D01*
X103818878Y-100249556D01*
X103838464Y-100223744D01*
X104018194Y-99986880D01*
X104025924Y-99982362D01*
X104034586Y-99984632D01*
G37*
G04 #@! TD.AperFunction*
G04 #@! TA.AperFunction,Conductor*
G36*
X101500443Y-99018878D02*
G01*
X101763118Y-99218193D01*
X101767637Y-99225924D01*
X101765367Y-99234586D01*
X101764366Y-99235740D01*
X101650753Y-99350659D01*
X101650659Y-99350753D01*
X101535740Y-99464366D01*
X101527447Y-99467746D01*
X101519194Y-99464272D01*
X101518193Y-99463118D01*
X101318878Y-99200443D01*
X101316608Y-99191781D01*
X101319925Y-99185099D01*
X101485099Y-99019925D01*
X101493371Y-99016499D01*
X101500443Y-99018878D01*
G37*
G04 #@! TD.AperFunction*
G04 #@! TA.AperFunction,Conductor*
G36*
X101106484Y-97110372D02*
G01*
X101109737Y-97113625D01*
X101402228Y-97552947D01*
X101595427Y-97843132D01*
X101597159Y-97851918D01*
X101595066Y-97856612D01*
X101230509Y-98345296D01*
X101222815Y-98349878D01*
X101221131Y-98350000D01*
X100978869Y-98350000D01*
X100970596Y-98346573D01*
X100969491Y-98345296D01*
X100604933Y-97856612D01*
X100602733Y-97847932D01*
X100604571Y-97843134D01*
X101090262Y-97113626D01*
X101097698Y-97108640D01*
X101106484Y-97110372D01*
G37*
G04 #@! TD.AperFunction*
M02*
