G04 #@! TF.GenerationSoftware,KiCad,Pcbnew,8.0.5*
G04 #@! TF.CreationDate,2024-10-31T19:03:19-07:00*
G04 #@! TF.ProjectId,uSlime_BNO085_Module,75536c69-6d65-45f4-924e-4f3038355f4d,rev?*
G04 #@! TF.SameCoordinates,Original*
G04 #@! TF.FileFunction,Copper,L1,Top*
G04 #@! TF.FilePolarity,Positive*
%FSLAX46Y46*%
G04 Gerber Fmt 4.6, Leading zero omitted, Abs format (unit mm)*
G04 Created by KiCad (PCBNEW 8.0.5) date 2024-10-31 19:03:19*
%MOMM*%
%LPD*%
G01*
G04 APERTURE LIST*
G04 Aperture macros list*
%AMRoundRect*
0 Rectangle with rounded corners*
0 $1 Rounding radius*
0 $2 $3 $4 $5 $6 $7 $8 $9 X,Y pos of 4 corners*
0 Add a 4 corners polygon primitive as box body*
4,1,4,$2,$3,$4,$5,$6,$7,$8,$9,$2,$3,0*
0 Add four circle primitives for the rounded corners*
1,1,$1+$1,$2,$3*
1,1,$1+$1,$4,$5*
1,1,$1+$1,$6,$7*
1,1,$1+$1,$8,$9*
0 Add four rect primitives between the rounded corners*
20,1,$1+$1,$2,$3,$4,$5,0*
20,1,$1+$1,$4,$5,$6,$7,0*
20,1,$1+$1,$6,$7,$8,$9,0*
20,1,$1+$1,$8,$9,$2,$3,0*%
G04 Aperture macros list end*
G04 #@! TA.AperFunction,SMDPad,CuDef*
%ADD10RoundRect,0.200000X-0.275000X0.200000X-0.275000X-0.200000X0.275000X-0.200000X0.275000X0.200000X0*%
G04 #@! TD*
G04 #@! TA.AperFunction,SMDPad,CuDef*
%ADD11RoundRect,0.200000X-0.200000X-0.275000X0.200000X-0.275000X0.200000X0.275000X-0.200000X0.275000X0*%
G04 #@! TD*
G04 #@! TA.AperFunction,ComponentPad*
%ADD12R,1.700000X1.700000*%
G04 #@! TD*
G04 #@! TA.AperFunction,ComponentPad*
%ADD13O,1.700000X1.700000*%
G04 #@! TD*
G04 #@! TA.AperFunction,SMDPad,CuDef*
%ADD14RoundRect,0.200000X0.200000X0.275000X-0.200000X0.275000X-0.200000X-0.275000X0.200000X-0.275000X0*%
G04 #@! TD*
G04 #@! TA.AperFunction,SMDPad,CuDef*
%ADD15RoundRect,0.225000X0.225000X0.250000X-0.225000X0.250000X-0.225000X-0.250000X0.225000X-0.250000X0*%
G04 #@! TD*
G04 #@! TA.AperFunction,SMDPad,CuDef*
%ADD16RoundRect,0.200000X0.275000X-0.200000X0.275000X0.200000X-0.275000X0.200000X-0.275000X-0.200000X0*%
G04 #@! TD*
G04 #@! TA.AperFunction,SMDPad,CuDef*
%ADD17R,0.914400X0.250000*%
G04 #@! TD*
G04 #@! TA.AperFunction,SMDPad,CuDef*
%ADD18R,0.250000X0.812800*%
G04 #@! TD*
G04 #@! TA.AperFunction,SMDPad,CuDef*
%ADD19RoundRect,0.225000X-0.250000X0.225000X-0.250000X-0.225000X0.250000X-0.225000X0.250000X0.225000X0*%
G04 #@! TD*
G04 #@! TA.AperFunction,SMDPad,CuDef*
%ADD20RoundRect,0.225000X0.250000X-0.225000X0.250000X0.225000X-0.250000X0.225000X-0.250000X-0.225000X0*%
G04 #@! TD*
G04 #@! TA.AperFunction,ViaPad*
%ADD21C,0.500000*%
G04 #@! TD*
G04 #@! TA.AperFunction,ViaPad*
%ADD22C,0.350000*%
G04 #@! TD*
G04 #@! TA.AperFunction,ViaPad*
%ADD23C,0.600000*%
G04 #@! TD*
G04 #@! TA.AperFunction,Conductor*
%ADD24C,0.381000*%
G04 #@! TD*
G04 #@! TA.AperFunction,Conductor*
%ADD25C,0.254000*%
G04 #@! TD*
G04 APERTURE END LIST*
D10*
X101150000Y-96775000D03*
X101150000Y-98425000D03*
D11*
X105750000Y-99600000D03*
X107400000Y-99600000D03*
D12*
X95900000Y-97060000D03*
D13*
X95900000Y-99600000D03*
X95900000Y-102140000D03*
X95900000Y-104680000D03*
X95900000Y-107220000D03*
D14*
X107400000Y-97850000D03*
X105750000Y-97850000D03*
D11*
X105750000Y-96100000D03*
X107400000Y-96100000D03*
D15*
X107350000Y-101350000D03*
X105800000Y-101350000D03*
D10*
X99400000Y-96775000D03*
X99400000Y-98425000D03*
D16*
X102900000Y-98425000D03*
X102900000Y-96775000D03*
D17*
X99723600Y-104744400D03*
D18*
X100650930Y-104935400D03*
X101154000Y-104935400D03*
X101654000Y-104935400D03*
X102153990Y-104935400D03*
D17*
X103076400Y-104744400D03*
X103076400Y-104244400D03*
X103076400Y-103744400D03*
X103076400Y-103244400D03*
X103076400Y-102744400D03*
X103076400Y-102244400D03*
X103076400Y-101744400D03*
X103076400Y-101244400D03*
X103076400Y-100744400D03*
X103076400Y-100236400D03*
D18*
X102154000Y-100109400D03*
X101654000Y-100109400D03*
X101154000Y-100109400D03*
X100650930Y-100109400D03*
D17*
X99723600Y-100236400D03*
X99723600Y-100744400D03*
X99723600Y-101244400D03*
X99723600Y-101744400D03*
X99723600Y-102244400D03*
X99723600Y-102744400D03*
X99723600Y-103244400D03*
X99723600Y-103744400D03*
X99723600Y-104244400D03*
D19*
X99900000Y-106825000D03*
X99900000Y-108375000D03*
D15*
X107350000Y-103100000D03*
X105800000Y-103100000D03*
D16*
X103400000Y-108425000D03*
X103400000Y-106775000D03*
D20*
X101650000Y-108375000D03*
X101650000Y-106825000D03*
D21*
X100650930Y-105910000D03*
D22*
X105670000Y-104750000D03*
X100150000Y-99350000D03*
X98652000Y-102850000D03*
D23*
X104876205Y-95627010D03*
D22*
X104150000Y-100100000D03*
X101650000Y-99350000D03*
D24*
X95900000Y-104680000D02*
X98455800Y-104680000D01*
X98455800Y-104680000D02*
X98891400Y-104244400D01*
D25*
X102153990Y-104249990D02*
X102153990Y-104935400D01*
X101154000Y-102050200D02*
X101154000Y-103250000D01*
D24*
X107350000Y-103100000D02*
X107350000Y-101350000D01*
D25*
X101154000Y-102050200D02*
X101154000Y-100109400D01*
X100650930Y-105910000D02*
X100636500Y-105895570D01*
X102344990Y-104744400D02*
X102153990Y-104935400D01*
X99723600Y-102744400D02*
X100459800Y-102744400D01*
X101154000Y-103250000D02*
X102153990Y-104249990D01*
D24*
X105705600Y-104744400D02*
X107350000Y-103100000D01*
D25*
X103076400Y-104744400D02*
X102344990Y-104744400D01*
X100636500Y-105895570D02*
X100636500Y-104935400D01*
X99723600Y-103244400D02*
X101148400Y-103244400D01*
X101148400Y-103244400D02*
X101154000Y-103250000D01*
X101650000Y-106825000D02*
X101565930Y-106825000D01*
X100459800Y-102744400D02*
X101154000Y-102050200D01*
X100400930Y-99350000D02*
X100650930Y-99600000D01*
X100650930Y-98924070D02*
X100650930Y-99600000D01*
X100150000Y-99350000D02*
X100400930Y-99350000D01*
X101150000Y-98425000D02*
X100650930Y-98924070D01*
X100650930Y-99600000D02*
X100650930Y-100109400D01*
X98995400Y-100236400D02*
X99723600Y-100236400D01*
X98652000Y-100579800D02*
X98995400Y-100236400D01*
X99400000Y-99912800D02*
X99723600Y-100236400D01*
X98652000Y-102850000D02*
X98652000Y-100579800D01*
X99400000Y-98425000D02*
X99400000Y-99912800D01*
D24*
X98134500Y-102445500D02*
X98134500Y-98040500D01*
D25*
X99771600Y-104196400D02*
X101097330Y-104196400D01*
D24*
X106534500Y-95234500D02*
X107400000Y-96100000D01*
X101650000Y-108375000D02*
X103350000Y-108375000D01*
D25*
X99708100Y-104228900D02*
X99723600Y-104244400D01*
D24*
X102900000Y-96775000D02*
X103759364Y-96775000D01*
D25*
X101154000Y-104935400D02*
X101154000Y-104253070D01*
D24*
X101650000Y-108375000D02*
X99900000Y-108375000D01*
X107400000Y-99750000D02*
X105800000Y-101350000D01*
D25*
X105800000Y-101350000D02*
X105800000Y-101200000D01*
X101097330Y-104196400D02*
X101154000Y-104253070D01*
D24*
X98134500Y-98040500D02*
X99400000Y-96775000D01*
X103759364Y-96775000D02*
X105299864Y-95234500D01*
D25*
X105800000Y-101350000D02*
X104405600Y-102744400D01*
D24*
X101150000Y-96775000D02*
X102900000Y-96775000D01*
X107400000Y-96100000D02*
X107400000Y-97850000D01*
D25*
X99723600Y-104244400D02*
X99771600Y-104196400D01*
D24*
X103350000Y-108375000D02*
X103400000Y-108425000D01*
X105299864Y-95234500D02*
X106534500Y-95234500D01*
X107400000Y-99600000D02*
X107400000Y-97850000D01*
D25*
X99723600Y-104244400D02*
X98891400Y-104244400D01*
D24*
X95900000Y-104680000D02*
X98134500Y-102445500D01*
X95900000Y-104680000D02*
X99595000Y-108375000D01*
X107400000Y-99600000D02*
X107400000Y-99750000D01*
X99400000Y-96775000D02*
X101150000Y-96775000D01*
X99595000Y-108375000D02*
X99900000Y-108375000D01*
D25*
X104405600Y-102744400D02*
X103076400Y-102744400D01*
X103804600Y-100744400D02*
X103076400Y-100744400D01*
X104150000Y-100100000D02*
X104150000Y-100399000D01*
X105750000Y-97850000D02*
X105644400Y-97744400D01*
X104150000Y-99450000D02*
X105750000Y-97850000D01*
X96230000Y-102140000D02*
X96450000Y-101920000D01*
X104150000Y-100399000D02*
X103804600Y-100744400D01*
X104150000Y-100100000D02*
X104150000Y-99450000D01*
X101650000Y-100105400D02*
X101654000Y-100109400D01*
X101650000Y-99350000D02*
X101650000Y-100105400D01*
X103076400Y-103244400D02*
X105655600Y-103244400D01*
X105655600Y-103244400D02*
X105800000Y-103100000D01*
X103400000Y-106775000D02*
X102293800Y-105668800D01*
X101654000Y-105620810D02*
X101654000Y-104935400D01*
X101701990Y-105668800D02*
X101654000Y-105620810D01*
X102293800Y-105668800D02*
X101701990Y-105668800D01*
X103860600Y-102196400D02*
X103812600Y-102244400D01*
X103860600Y-101489400D02*
X103860600Y-102196400D01*
X103812600Y-102244400D02*
X103076400Y-102244400D01*
X105750000Y-99600000D02*
X103860600Y-101489400D01*
X103076400Y-100236400D02*
X103076400Y-99673600D01*
X103076400Y-99673600D02*
X105023000Y-97727000D01*
X105023000Y-96827000D02*
X105750000Y-96100000D01*
X105023000Y-97727000D02*
X105023000Y-96827000D01*
X102900000Y-98425000D02*
X102154000Y-99171000D01*
X102154000Y-99171000D02*
X102154000Y-100109400D01*
G04 #@! TA.AperFunction,Conductor*
G36*
X104288314Y-94870185D02*
G01*
X104334069Y-94922989D01*
X104344013Y-94992147D01*
X104314988Y-95055703D01*
X104308956Y-95062181D01*
X104246389Y-95124747D01*
X104150415Y-95277488D01*
X104090201Y-95449573D01*
X104060840Y-95496300D01*
X103633649Y-95923491D01*
X103572326Y-95956976D01*
X103502634Y-95951992D01*
X103481820Y-95941928D01*
X103476431Y-95938670D01*
X103464606Y-95931522D01*
X103464604Y-95931521D01*
X103464602Y-95931520D01*
X103404761Y-95912873D01*
X103393538Y-95908773D01*
X103387670Y-95906302D01*
X103380958Y-95904547D01*
X103380942Y-95904544D01*
X103379542Y-95904268D01*
X103366656Y-95900999D01*
X103302196Y-95880914D01*
X103302185Y-95880913D01*
X103231616Y-95874500D01*
X102568384Y-95874500D01*
X102538135Y-95877248D01*
X102497800Y-95880914D01*
X102403771Y-95910214D01*
X102393050Y-95913035D01*
X102365196Y-95919048D01*
X102068143Y-96029295D01*
X101998443Y-96034166D01*
X101981853Y-96029295D01*
X101684804Y-95919049D01*
X101684782Y-95919043D01*
X101624209Y-95903212D01*
X101618676Y-95901628D01*
X101552197Y-95880914D01*
X101552198Y-95880914D01*
X101523964Y-95878348D01*
X101481616Y-95874500D01*
X100818384Y-95874500D01*
X100788135Y-95877248D01*
X100747800Y-95880914D01*
X100653771Y-95910214D01*
X100643050Y-95913035D01*
X100615196Y-95919048D01*
X100318143Y-96029295D01*
X100248443Y-96034166D01*
X100231853Y-96029295D01*
X99934804Y-95919049D01*
X99934782Y-95919043D01*
X99874209Y-95903212D01*
X99868676Y-95901628D01*
X99802197Y-95880914D01*
X99802198Y-95880914D01*
X99773964Y-95878348D01*
X99731616Y-95874500D01*
X99068384Y-95874500D01*
X99049145Y-95876248D01*
X98997807Y-95880913D01*
X98835393Y-95931522D01*
X98689811Y-96019530D01*
X98569530Y-96139811D01*
X98481522Y-96285393D01*
X98430913Y-96447807D01*
X98424500Y-96518386D01*
X98424500Y-96522146D01*
X98410761Y-96578878D01*
X98199036Y-96990371D01*
X98176456Y-97021320D01*
X97597766Y-97600010D01*
X97523865Y-97710613D01*
X97522144Y-97713189D01*
X97522142Y-97713191D01*
X97522142Y-97713193D01*
X97489060Y-97793059D01*
X97445218Y-97847462D01*
X97378924Y-97869526D01*
X97311225Y-97852246D01*
X97263615Y-97801109D01*
X97250499Y-97745608D01*
X97250499Y-96162128D01*
X97244091Y-96102517D01*
X97222753Y-96045308D01*
X97193797Y-95967671D01*
X97193793Y-95967664D01*
X97107547Y-95852455D01*
X97107544Y-95852452D01*
X96992335Y-95766206D01*
X96992328Y-95766202D01*
X96857482Y-95715908D01*
X96857483Y-95715908D01*
X96797883Y-95709501D01*
X96797881Y-95709500D01*
X96797873Y-95709500D01*
X96797864Y-95709500D01*
X95002129Y-95709500D01*
X95002123Y-95709501D01*
X94942516Y-95715908D01*
X94807671Y-95766202D01*
X94807664Y-95766206D01*
X94692455Y-95852452D01*
X94692452Y-95852455D01*
X94606206Y-95967664D01*
X94606202Y-95967671D01*
X94555908Y-96102517D01*
X94549501Y-96162116D01*
X94549501Y-96162123D01*
X94549500Y-96162135D01*
X94549500Y-97957870D01*
X94549501Y-97957876D01*
X94555908Y-98017483D01*
X94606202Y-98152328D01*
X94606206Y-98152335D01*
X94692452Y-98267544D01*
X94692455Y-98267547D01*
X94807664Y-98353793D01*
X94807671Y-98353797D01*
X94807674Y-98353798D01*
X94939598Y-98403002D01*
X94995531Y-98444873D01*
X95019949Y-98510337D01*
X95005098Y-98578610D01*
X94983947Y-98606865D01*
X94861886Y-98728926D01*
X94726400Y-98922420D01*
X94726399Y-98922422D01*
X94626570Y-99136507D01*
X94626567Y-99136513D01*
X94569364Y-99349999D01*
X94569364Y-99350000D01*
X95466988Y-99350000D01*
X95434075Y-99407007D01*
X95400000Y-99534174D01*
X95400000Y-99665826D01*
X95434075Y-99792993D01*
X95466988Y-99850000D01*
X94569364Y-99850000D01*
X94626567Y-100063486D01*
X94626570Y-100063492D01*
X94726399Y-100277578D01*
X94861894Y-100471082D01*
X95028917Y-100638105D01*
X95214595Y-100768119D01*
X95258219Y-100822696D01*
X95265412Y-100892195D01*
X95233890Y-100954549D01*
X95214595Y-100971269D01*
X95028594Y-101101508D01*
X94861505Y-101268597D01*
X94725965Y-101462169D01*
X94725964Y-101462171D01*
X94626098Y-101676335D01*
X94626094Y-101676344D01*
X94564938Y-101904586D01*
X94564936Y-101904596D01*
X94544341Y-102139999D01*
X94544341Y-102140000D01*
X94564936Y-102375403D01*
X94564938Y-102375413D01*
X94626094Y-102603655D01*
X94626096Y-102603659D01*
X94626097Y-102603663D01*
X94718417Y-102801644D01*
X94725965Y-102817830D01*
X94725967Y-102817834D01*
X94795593Y-102917269D01*
X94858883Y-103007657D01*
X94861501Y-103011395D01*
X94861506Y-103011402D01*
X95028597Y-103178493D01*
X95028603Y-103178498D01*
X95214158Y-103308425D01*
X95257783Y-103363002D01*
X95264977Y-103432500D01*
X95233454Y-103494855D01*
X95214158Y-103511575D01*
X95028597Y-103641505D01*
X94861505Y-103808597D01*
X94725965Y-104002169D01*
X94725964Y-104002171D01*
X94626098Y-104216335D01*
X94626094Y-104216344D01*
X94564938Y-104444586D01*
X94564936Y-104444596D01*
X94544341Y-104679999D01*
X94544341Y-104680000D01*
X94564936Y-104915403D01*
X94564938Y-104915413D01*
X94626094Y-105143655D01*
X94626096Y-105143659D01*
X94626097Y-105143663D01*
X94673344Y-105244984D01*
X94725965Y-105357830D01*
X94725967Y-105357834D01*
X94861501Y-105551395D01*
X94861506Y-105551402D01*
X95028597Y-105718493D01*
X95028603Y-105718498D01*
X95214158Y-105848425D01*
X95257783Y-105903002D01*
X95264977Y-105972500D01*
X95233454Y-106034855D01*
X95214158Y-106051575D01*
X95028597Y-106181505D01*
X94861505Y-106348597D01*
X94725965Y-106542169D01*
X94725964Y-106542171D01*
X94626098Y-106756335D01*
X94626094Y-106756344D01*
X94564938Y-106984586D01*
X94564936Y-106984596D01*
X94544341Y-107219999D01*
X94544341Y-107220000D01*
X94564936Y-107455403D01*
X94564938Y-107455413D01*
X94626094Y-107683655D01*
X94626096Y-107683659D01*
X94626097Y-107683663D01*
X94627971Y-107687681D01*
X94725965Y-107897830D01*
X94725967Y-107897834D01*
X94783351Y-107979786D01*
X94861505Y-108091401D01*
X95028599Y-108258495D01*
X95117044Y-108320425D01*
X95222165Y-108394032D01*
X95222167Y-108394033D01*
X95222170Y-108394035D01*
X95436337Y-108493903D01*
X95664592Y-108555063D01*
X95852918Y-108571539D01*
X95899999Y-108575659D01*
X95900000Y-108575659D01*
X95900001Y-108575659D01*
X95939234Y-108572226D01*
X96135408Y-108555063D01*
X96363663Y-108493903D01*
X96577830Y-108394035D01*
X96771401Y-108258495D01*
X96938495Y-108091401D01*
X97074035Y-107897830D01*
X97173903Y-107683663D01*
X97235063Y-107455408D01*
X97249145Y-107294448D01*
X97274597Y-107229381D01*
X97331188Y-107188402D01*
X97400950Y-107184524D01*
X97460354Y-107217576D01*
X98563203Y-108320425D01*
X98574946Y-108334793D01*
X98575193Y-108334604D01*
X98952961Y-108825057D01*
X98972430Y-108861719D01*
X98987997Y-108908697D01*
X98987999Y-108908702D01*
X99077031Y-109053043D01*
X99161807Y-109137819D01*
X99195292Y-109199142D01*
X99190308Y-109268834D01*
X99148436Y-109324767D01*
X99082972Y-109349184D01*
X99074126Y-109349500D01*
X94406962Y-109349500D01*
X94393078Y-109348720D01*
X94380553Y-109347308D01*
X94302735Y-109338540D01*
X94275666Y-109332362D01*
X94196462Y-109304648D01*
X94171444Y-109292600D01*
X94100395Y-109247957D01*
X94078686Y-109230644D01*
X94019355Y-109171313D01*
X94002042Y-109149604D01*
X93998707Y-109144297D01*
X93957398Y-109078553D01*
X93945351Y-109053537D01*
X93945178Y-109053044D01*
X93917636Y-108974331D01*
X93911459Y-108947263D01*
X93907779Y-108914606D01*
X93901280Y-108856922D01*
X93900500Y-108843038D01*
X93900500Y-95356961D01*
X93901280Y-95343077D01*
X93911459Y-95252731D01*
X93917635Y-95225670D01*
X93945353Y-95146456D01*
X93957396Y-95121450D01*
X94002046Y-95050389D01*
X94019351Y-95028690D01*
X94078690Y-94969351D01*
X94100389Y-94952046D01*
X94171450Y-94907396D01*
X94196456Y-94895353D01*
X94275670Y-94867635D01*
X94302733Y-94861459D01*
X94365419Y-94854396D01*
X94393079Y-94851280D01*
X94406962Y-94850500D01*
X94465892Y-94850500D01*
X104221275Y-94850500D01*
X104288314Y-94870185D01*
G37*
G04 #@! TD.AperFunction*
G04 #@! TA.AperFunction,Conductor*
G36*
X109409631Y-94852025D02*
G01*
X109457706Y-94859639D01*
X109494595Y-94871625D01*
X109529156Y-94889235D01*
X109560538Y-94912036D01*
X109587963Y-94939461D01*
X109610765Y-94970845D01*
X109626427Y-95001583D01*
X109628372Y-95005399D01*
X109640361Y-95042297D01*
X109647086Y-95084761D01*
X109647973Y-95090357D01*
X109649500Y-95109755D01*
X109649500Y-108843038D01*
X109648720Y-108856923D01*
X109638540Y-108947264D01*
X109632362Y-108974333D01*
X109604648Y-109053537D01*
X109592600Y-109078555D01*
X109547957Y-109149604D01*
X109530644Y-109171313D01*
X109471313Y-109230644D01*
X109449604Y-109247957D01*
X109378555Y-109292600D01*
X109353537Y-109304648D01*
X109274333Y-109332362D01*
X109247264Y-109338540D01*
X109167075Y-109347576D01*
X109156921Y-109348720D01*
X109143038Y-109349500D01*
X104240520Y-109349500D01*
X104173481Y-109329815D01*
X104127726Y-109277011D01*
X104117782Y-109207853D01*
X104146807Y-109144297D01*
X104152839Y-109137819D01*
X104230468Y-109060189D01*
X104230469Y-109060188D01*
X104230472Y-109060185D01*
X104318478Y-108914606D01*
X104369086Y-108752196D01*
X104375500Y-108681616D01*
X104375500Y-108168384D01*
X104369086Y-108097804D01*
X104318478Y-107935394D01*
X104230472Y-107789815D01*
X104230470Y-107789813D01*
X104230469Y-107789811D01*
X104128339Y-107687681D01*
X104094854Y-107626358D01*
X104099838Y-107556666D01*
X104128339Y-107512319D01*
X104230468Y-107410189D01*
X104230469Y-107410188D01*
X104230472Y-107410185D01*
X104318478Y-107264606D01*
X104369086Y-107102196D01*
X104375500Y-107031616D01*
X104375500Y-106993713D01*
X105799500Y-106993713D01*
X105799500Y-107206286D01*
X105831794Y-107410185D01*
X105832754Y-107416243D01*
X105891764Y-107597857D01*
X105898444Y-107618414D01*
X105994951Y-107807820D01*
X106119890Y-107979786D01*
X106270213Y-108130109D01*
X106442179Y-108255048D01*
X106442181Y-108255049D01*
X106442184Y-108255051D01*
X106631588Y-108351557D01*
X106833757Y-108417246D01*
X107043713Y-108450500D01*
X107043714Y-108450500D01*
X107256286Y-108450500D01*
X107256287Y-108450500D01*
X107466243Y-108417246D01*
X107668412Y-108351557D01*
X107857816Y-108255051D01*
X107879789Y-108239086D01*
X108029786Y-108130109D01*
X108029788Y-108130106D01*
X108029792Y-108130104D01*
X108180104Y-107979792D01*
X108180106Y-107979788D01*
X108180109Y-107979786D01*
X108305048Y-107807820D01*
X108305047Y-107807820D01*
X108305051Y-107807816D01*
X108401557Y-107618412D01*
X108467246Y-107416243D01*
X108500500Y-107206287D01*
X108500500Y-106993713D01*
X108467246Y-106783757D01*
X108401557Y-106581588D01*
X108305051Y-106392184D01*
X108305049Y-106392181D01*
X108305048Y-106392179D01*
X108180109Y-106220213D01*
X108029786Y-106069890D01*
X107857820Y-105944951D01*
X107668414Y-105848444D01*
X107668413Y-105848443D01*
X107668412Y-105848443D01*
X107466243Y-105782754D01*
X107466241Y-105782753D01*
X107466240Y-105782753D01*
X107304957Y-105757208D01*
X107256287Y-105749500D01*
X107043713Y-105749500D01*
X106995042Y-105757208D01*
X106833760Y-105782753D01*
X106631585Y-105848444D01*
X106442179Y-105944951D01*
X106270213Y-106069890D01*
X106119890Y-106220213D01*
X105994951Y-106392179D01*
X105898444Y-106581585D01*
X105832753Y-106783760D01*
X105799500Y-106993713D01*
X104375500Y-106993713D01*
X104375500Y-106518384D01*
X104369086Y-106447804D01*
X104318478Y-106285394D01*
X104230472Y-106139815D01*
X104230470Y-106139813D01*
X104230469Y-106139811D01*
X104110188Y-106019530D01*
X104065015Y-105992222D01*
X103964606Y-105931522D01*
X103802196Y-105880914D01*
X103802194Y-105880913D01*
X103802192Y-105880913D01*
X103752778Y-105876423D01*
X103731616Y-105874500D01*
X103731613Y-105874500D01*
X103717194Y-105874500D01*
X103664334Y-105862668D01*
X103136827Y-105614075D01*
X103102008Y-105589589D01*
X102693811Y-105181391D01*
X102692269Y-105180361D01*
X102692265Y-105180358D01*
X102591039Y-105112720D01*
X102591024Y-105112712D01*
X102580754Y-105108458D01*
X102526352Y-105064615D01*
X102504290Y-104998320D01*
X102521572Y-104930621D01*
X102572711Y-104883013D01*
X102628207Y-104869899D01*
X103581472Y-104869899D01*
X103641083Y-104863491D01*
X103775931Y-104813196D01*
X103891146Y-104726946D01*
X103977396Y-104611731D01*
X104027691Y-104476883D01*
X104034100Y-104417273D01*
X104034099Y-104071528D01*
X104027691Y-104011917D01*
X104027690Y-104011916D01*
X104027394Y-104009155D01*
X104039799Y-103940396D01*
X104087409Y-103889258D01*
X104150683Y-103871900D01*
X104786927Y-103871900D01*
X104824358Y-103877684D01*
X105328000Y-104037162D01*
X105351942Y-104041599D01*
X105368330Y-104045810D01*
X105427292Y-104065349D01*
X105526655Y-104075500D01*
X106073344Y-104075499D01*
X106073352Y-104075498D01*
X106073355Y-104075498D01*
X106127760Y-104069940D01*
X106172708Y-104065349D01*
X106333697Y-104012003D01*
X106478044Y-103922968D01*
X106597968Y-103803044D01*
X106687003Y-103658697D01*
X106740349Y-103497708D01*
X106750500Y-103398345D01*
X106750499Y-102801656D01*
X106740349Y-102702292D01*
X106687003Y-102541303D01*
X106686999Y-102541297D01*
X106686998Y-102541294D01*
X106597970Y-102396959D01*
X106597967Y-102396955D01*
X106513693Y-102312681D01*
X106480208Y-102251358D01*
X106485192Y-102181666D01*
X106513693Y-102137319D01*
X106597968Y-102053044D01*
X106687003Y-101908697D01*
X106740349Y-101747708D01*
X106745400Y-101698258D01*
X106758727Y-101653682D01*
X107058431Y-101076940D01*
X107080775Y-101046444D01*
X107248107Y-100879112D01*
X107266560Y-100863919D01*
X107674959Y-100589167D01*
X107721236Y-100572755D01*
X107720761Y-100570366D01*
X107727188Y-100569087D01*
X107727189Y-100569086D01*
X107727196Y-100569086D01*
X107889606Y-100518478D01*
X108035185Y-100430472D01*
X108155472Y-100310185D01*
X108243478Y-100164606D01*
X108294086Y-100002196D01*
X108300500Y-99931616D01*
X108300500Y-99268384D01*
X108294086Y-99197804D01*
X108264781Y-99103762D01*
X108261958Y-99093032D01*
X108255952Y-99065204D01*
X108255951Y-99065201D01*
X108255950Y-99065196D01*
X108145702Y-98768141D01*
X108140832Y-98698445D01*
X108145700Y-98681862D01*
X108255950Y-98384803D01*
X108271794Y-98324170D01*
X108273348Y-98318743D01*
X108294086Y-98252196D01*
X108300500Y-98181616D01*
X108300500Y-97518384D01*
X108294086Y-97447804D01*
X108264781Y-97353762D01*
X108261958Y-97343032D01*
X108255952Y-97315204D01*
X108255951Y-97315201D01*
X108255950Y-97315196D01*
X108145702Y-97018141D01*
X108140832Y-96948445D01*
X108145700Y-96931862D01*
X108255950Y-96634803D01*
X108271794Y-96574170D01*
X108273348Y-96568743D01*
X108294086Y-96502196D01*
X108300500Y-96431616D01*
X108300500Y-95768384D01*
X108294086Y-95697804D01*
X108243478Y-95535394D01*
X108155472Y-95389815D01*
X108155470Y-95389813D01*
X108155469Y-95389811D01*
X108035188Y-95269530D01*
X107990776Y-95242682D01*
X107889606Y-95181522D01*
X107727196Y-95130914D01*
X107727194Y-95130913D01*
X107727192Y-95130913D01*
X107677778Y-95126423D01*
X107656616Y-95124500D01*
X107656613Y-95124500D01*
X107652852Y-95124500D01*
X107596120Y-95110761D01*
X107545588Y-95084761D01*
X107494982Y-95036586D01*
X107478456Y-94968699D01*
X107501255Y-94902654D01*
X107556142Y-94859419D01*
X107602320Y-94850500D01*
X109334108Y-94850500D01*
X109390244Y-94850500D01*
X109409631Y-94852025D01*
G37*
G04 #@! TD.AperFunction*
G04 #@! TA.AperFunction,Conductor*
G36*
X98956816Y-105263467D02*
G01*
X98965962Y-105269697D01*
X99024069Y-105313196D01*
X99024071Y-105313197D01*
X99158917Y-105363491D01*
X99158916Y-105363491D01*
X99165844Y-105364235D01*
X99218527Y-105369900D01*
X100228672Y-105369899D01*
X100288283Y-105363491D01*
X100366975Y-105334140D01*
X100436664Y-105329157D01*
X100497987Y-105362641D01*
X100531472Y-105423965D01*
X100533596Y-105437070D01*
X100534908Y-105449283D01*
X100585202Y-105584128D01*
X100585206Y-105584135D01*
X100671452Y-105699344D01*
X100671455Y-105699347D01*
X100786664Y-105785593D01*
X100786671Y-105785597D01*
X100921516Y-105835891D01*
X100981114Y-105842299D01*
X100981118Y-105842299D01*
X100981127Y-105842300D01*
X100983670Y-105842299D01*
X100984237Y-105842466D01*
X100984434Y-105842477D01*
X100984431Y-105842523D01*
X101050710Y-105861972D01*
X101094777Y-105912811D01*
X101095044Y-105912669D01*
X101095670Y-105913841D01*
X101096474Y-105914768D01*
X101097826Y-105917874D01*
X101097914Y-105918039D01*
X101147481Y-105992221D01*
X101147482Y-105992222D01*
X101166590Y-106020820D01*
X101166591Y-106020821D01*
X101191736Y-106045965D01*
X101214579Y-106068808D01*
X101285582Y-106139811D01*
X101301983Y-106156212D01*
X101404750Y-106224879D01*
X101404763Y-106224886D01*
X101518950Y-106272183D01*
X101518955Y-106272185D01*
X101518959Y-106272185D01*
X101518960Y-106272186D01*
X101640184Y-106296300D01*
X101640187Y-106296300D01*
X101982519Y-106296300D01*
X102049558Y-106315985D01*
X102070200Y-106332619D01*
X102204291Y-106466710D01*
X102231312Y-106507279D01*
X102245643Y-106542171D01*
X102333608Y-106756337D01*
X102415202Y-106954990D01*
X102424500Y-107002102D01*
X102424500Y-107031613D01*
X102430913Y-107102192D01*
X102430913Y-107102194D01*
X102430914Y-107102196D01*
X102481522Y-107264606D01*
X102556255Y-107388229D01*
X102574091Y-107455782D01*
X102552574Y-107522256D01*
X102498533Y-107566544D01*
X102429128Y-107574585D01*
X102402944Y-107567046D01*
X102186715Y-107478052D01*
X102157065Y-107470104D01*
X102148154Y-107467715D01*
X102141269Y-107465653D01*
X102047711Y-107434651D01*
X101948346Y-107424500D01*
X101351662Y-107424500D01*
X101351644Y-107424501D01*
X101252292Y-107434650D01*
X101252285Y-107434652D01*
X101151414Y-107468077D01*
X101142808Y-107470588D01*
X101113295Y-107478050D01*
X101113279Y-107478055D01*
X100822191Y-107597857D01*
X100752705Y-107605169D01*
X100727804Y-107597857D01*
X100436714Y-107478052D01*
X100408870Y-107470588D01*
X100398154Y-107467715D01*
X100391269Y-107465653D01*
X100297711Y-107434651D01*
X100198352Y-107424500D01*
X100198345Y-107424500D01*
X100118185Y-107424500D01*
X100091529Y-107421601D01*
X99520799Y-107295973D01*
X99459775Y-107262553D01*
X97779903Y-105582681D01*
X97746418Y-105521358D01*
X97751402Y-105451666D01*
X97793274Y-105395733D01*
X97858738Y-105371316D01*
X97867584Y-105371000D01*
X98523860Y-105371000D01*
X98613670Y-105353134D01*
X98657357Y-105344445D01*
X98783111Y-105292356D01*
X98822763Y-105265861D01*
X98889435Y-105244984D01*
X98956816Y-105263467D01*
G37*
G04 #@! TD.AperFunction*
G04 #@! TA.AperFunction,Conductor*
G36*
X101211891Y-100905194D02*
G01*
X101226776Y-100914760D01*
X101286669Y-100959596D01*
X101286671Y-100959597D01*
X101303745Y-100965965D01*
X101421517Y-101009891D01*
X101481127Y-101016300D01*
X101826872Y-101016299D01*
X101886483Y-101009891D01*
X101886486Y-101009889D01*
X101890744Y-101009432D01*
X101917254Y-101009432D01*
X101921514Y-101009889D01*
X101921517Y-101009891D01*
X101981127Y-101016300D01*
X101994696Y-101016299D01*
X102061733Y-101035980D01*
X102107491Y-101088781D01*
X102118700Y-101140299D01*
X102118700Y-101417269D01*
X102118701Y-101417279D01*
X102125567Y-101481151D01*
X102125567Y-101507657D01*
X102125109Y-101511916D01*
X102125109Y-101511917D01*
X102118700Y-101571527D01*
X102118700Y-101571530D01*
X102118700Y-101571533D01*
X102118700Y-101917269D01*
X102118701Y-101917279D01*
X102125567Y-101981151D01*
X102125567Y-102007657D01*
X102125109Y-102011916D01*
X102125109Y-102011917D01*
X102118700Y-102071527D01*
X102118700Y-102071530D01*
X102118700Y-102071533D01*
X102118700Y-102417269D01*
X102118701Y-102417279D01*
X102125567Y-102481151D01*
X102125567Y-102507657D01*
X102125109Y-102511916D01*
X102125109Y-102511917D01*
X102118700Y-102571527D01*
X102118700Y-102571532D01*
X102118700Y-102571533D01*
X102118700Y-102917269D01*
X102118701Y-102917279D01*
X102125567Y-102981151D01*
X102125567Y-103007657D01*
X102125109Y-103011916D01*
X102125109Y-103011917D01*
X102118700Y-103071527D01*
X102118700Y-103071532D01*
X102118700Y-103071533D01*
X102118700Y-103417269D01*
X102118701Y-103417279D01*
X102125567Y-103481151D01*
X102125567Y-103507657D01*
X102125109Y-103511916D01*
X102125109Y-103511917D01*
X102118700Y-103571527D01*
X102118700Y-103571532D01*
X102118700Y-103571533D01*
X102118700Y-103917269D01*
X102118701Y-103917284D01*
X102120119Y-103930471D01*
X102107711Y-103999230D01*
X102060099Y-104050365D01*
X101992399Y-104067642D01*
X101953496Y-104059903D01*
X101886482Y-104034908D01*
X101886483Y-104034908D01*
X101826883Y-104028501D01*
X101826881Y-104028500D01*
X101826873Y-104028500D01*
X101826865Y-104028500D01*
X101823035Y-104028500D01*
X101755996Y-104008815D01*
X101714177Y-103960553D01*
X101712953Y-103961208D01*
X101710086Y-103955846D01*
X101710083Y-103955837D01*
X101710076Y-103955826D01*
X101676226Y-103905165D01*
X101676226Y-103905166D01*
X101641412Y-103853063D01*
X101635702Y-103847353D01*
X101554008Y-103765659D01*
X101497338Y-103708989D01*
X101466400Y-103688317D01*
X101466398Y-103688316D01*
X101466398Y-103688315D01*
X101394565Y-103640318D01*
X101394566Y-103640318D01*
X101358330Y-103625309D01*
X101358328Y-103625308D01*
X101280365Y-103593014D01*
X101280357Y-103593012D01*
X101159137Y-103568900D01*
X101159133Y-103568900D01*
X100782240Y-103568900D01*
X100715201Y-103549215D01*
X100669446Y-103496411D01*
X100666058Y-103488233D01*
X100624597Y-103377071D01*
X100624593Y-103377064D01*
X100538347Y-103261855D01*
X100538344Y-103261852D01*
X100423135Y-103175606D01*
X100423128Y-103175602D01*
X100288282Y-103125308D01*
X100288283Y-103125308D01*
X100228683Y-103118901D01*
X100228681Y-103118900D01*
X100228673Y-103118900D01*
X100228665Y-103118900D01*
X99439777Y-103118900D01*
X99372738Y-103099215D01*
X99326983Y-103046411D01*
X99316688Y-102979898D01*
X99316810Y-102978897D01*
X99344460Y-102914732D01*
X99402412Y-102875701D01*
X99439899Y-102869899D01*
X100228671Y-102869899D01*
X100228672Y-102869899D01*
X100288283Y-102863491D01*
X100423131Y-102813196D01*
X100538346Y-102726946D01*
X100624596Y-102611731D01*
X100674891Y-102476883D01*
X100681300Y-102417273D01*
X100681299Y-102071528D01*
X100674891Y-102011917D01*
X100674889Y-102011913D01*
X100674432Y-102007655D01*
X100674432Y-101981145D01*
X100674889Y-101976886D01*
X100674891Y-101976883D01*
X100681300Y-101917273D01*
X100681299Y-101571528D01*
X100674891Y-101511917D01*
X100674889Y-101511913D01*
X100674432Y-101507655D01*
X100674432Y-101481145D01*
X100674889Y-101476886D01*
X100674891Y-101476883D01*
X100681300Y-101417273D01*
X100681299Y-101140298D01*
X100700983Y-101073260D01*
X100753787Y-101027505D01*
X100805299Y-101016299D01*
X100823801Y-101016299D01*
X100823802Y-101016299D01*
X100883413Y-101009891D01*
X101018261Y-100959596D01*
X101078154Y-100914759D01*
X101143618Y-100890343D01*
X101211891Y-100905194D01*
G37*
G04 #@! TD.AperFunction*
G04 #@! TA.AperFunction,Conductor*
G36*
X96236019Y-103899349D02*
G01*
X96236176Y-103899416D01*
X97592947Y-104486448D01*
X97599178Y-104492877D01*
X97600000Y-104497185D01*
X97600000Y-104862814D01*
X97596573Y-104871087D01*
X97592946Y-104873552D01*
X96236176Y-105460583D01*
X96227222Y-105460723D01*
X96220792Y-105454491D01*
X96220747Y-105454387D01*
X95900864Y-104684488D01*
X95900856Y-104675534D01*
X95900865Y-104675511D01*
X95978150Y-104489500D01*
X96220726Y-103905663D01*
X96227064Y-103899340D01*
X96236019Y-103899349D01*
G37*
G04 #@! TD.AperFunction*
G04 #@! TA.AperFunction,Conductor*
G36*
X100227713Y-99192755D02*
G01*
X100544579Y-99323561D01*
X100550918Y-99329885D01*
X100550929Y-99338839D01*
X100548387Y-99342648D01*
X100384295Y-99506740D01*
X100376787Y-99510142D01*
X100162414Y-99524186D01*
X100153934Y-99521307D01*
X100149974Y-99513276D01*
X100149950Y-99512588D01*
X100149302Y-99351675D01*
X100150215Y-99347099D01*
X100212465Y-99199034D01*
X100218830Y-99192738D01*
X100227713Y-99192755D01*
G37*
G04 #@! TD.AperFunction*
G04 #@! TA.AperFunction,Conductor*
G36*
X101143186Y-98423756D02*
G01*
X101151332Y-98427477D01*
X101153147Y-98430048D01*
X101353392Y-98814846D01*
X101354171Y-98823767D01*
X101348641Y-98830505D01*
X100780558Y-99142164D01*
X100774930Y-99143606D01*
X100538273Y-99143606D01*
X100530000Y-99140179D01*
X100526573Y-99131906D01*
X100526812Y-99129555D01*
X100591356Y-98814846D01*
X100673011Y-98416702D01*
X100678030Y-98409288D01*
X100684887Y-98407362D01*
X101143186Y-98423756D01*
G37*
G04 #@! TD.AperFunction*
G04 #@! TA.AperFunction,Conductor*
G36*
X98777068Y-102503427D02*
G01*
X98780387Y-102510110D01*
X98825187Y-102836786D01*
X98822915Y-102845448D01*
X98815185Y-102849968D01*
X98813662Y-102850076D01*
X98652067Y-102850999D01*
X98651933Y-102850999D01*
X98490337Y-102850076D01*
X98482084Y-102846602D01*
X98478704Y-102838309D01*
X98478812Y-102836786D01*
X98523613Y-102510110D01*
X98528133Y-102502379D01*
X98535205Y-102500000D01*
X98768795Y-102500000D01*
X98777068Y-102503427D01*
G37*
G04 #@! TD.AperFunction*
G04 #@! TA.AperFunction,Conductor*
G36*
X99407747Y-98430844D02*
G01*
X99792653Y-98770902D01*
X99796584Y-98778948D01*
X99794895Y-98785762D01*
X99530420Y-99219392D01*
X99523186Y-99224671D01*
X99520431Y-99225000D01*
X99279569Y-99225000D01*
X99271296Y-99221573D01*
X99269580Y-99219392D01*
X99005104Y-98785762D01*
X99003722Y-98776915D01*
X99007344Y-98770904D01*
X99392253Y-98430843D01*
X99400722Y-98427934D01*
X99407747Y-98430844D01*
G37*
G04 #@! TD.AperFunction*
G04 #@! TA.AperFunction,Conductor*
G36*
X106887989Y-95314897D02*
G01*
X107482918Y-95621004D01*
X107488707Y-95627837D01*
X107489061Y-95633582D01*
X107401885Y-96094476D01*
X107396980Y-96101969D01*
X107394843Y-96103121D01*
X107009537Y-96261758D01*
X107000583Y-96261739D01*
X106994908Y-96256715D01*
X106637920Y-95627837D01*
X106615389Y-95588147D01*
X106614286Y-95579261D01*
X106617290Y-95574101D01*
X106874364Y-95317027D01*
X106882636Y-95313601D01*
X106887989Y-95314897D01*
G37*
G04 #@! TD.AperFunction*
G04 #@! TA.AperFunction,Conductor*
G36*
X103050447Y-108043231D02*
G01*
X103053297Y-108045501D01*
X103393642Y-108416969D01*
X103396704Y-108425384D01*
X103393516Y-108432912D01*
X103047298Y-108799013D01*
X103039123Y-108802669D01*
X103033873Y-108801587D01*
X102531776Y-108568643D01*
X102525713Y-108562053D01*
X102525000Y-108558030D01*
X102525000Y-108193411D01*
X102528427Y-108185138D01*
X102533590Y-108182132D01*
X103041561Y-108042126D01*
X103050447Y-108043231D01*
G37*
G04 #@! TD.AperFunction*
G04 #@! TA.AperFunction,Conductor*
G36*
X101994323Y-107945509D02*
G01*
X102567753Y-108181517D01*
X102574099Y-108187834D01*
X102575000Y-108192336D01*
X102575000Y-108557663D01*
X102571573Y-108565936D01*
X102567753Y-108568482D01*
X101994325Y-108804489D01*
X101985370Y-108804469D01*
X101980642Y-108800860D01*
X101654597Y-108382188D01*
X101652218Y-108373556D01*
X101654597Y-108367812D01*
X101980643Y-107949138D01*
X101988428Y-107944718D01*
X101994323Y-107945509D01*
G37*
G04 #@! TD.AperFunction*
G04 #@! TA.AperFunction,Conductor*
G36*
X103259794Y-96395361D02*
G01*
X103634576Y-96628530D01*
X103636668Y-96630191D01*
X103892571Y-96886094D01*
X103895998Y-96894367D01*
X103892571Y-96902640D01*
X103888639Y-96905232D01*
X103259039Y-97156778D01*
X103250085Y-97156665D01*
X103246075Y-97153821D01*
X103008120Y-96894367D01*
X102906532Y-96783600D01*
X102903466Y-96775187D01*
X102906518Y-96767800D01*
X103244977Y-96397402D01*
X103253086Y-96393607D01*
X103259794Y-96395361D01*
G37*
G04 #@! TD.AperFunction*
G04 #@! TA.AperFunction,Conductor*
G36*
X100244323Y-107945509D02*
G01*
X100817753Y-108181517D01*
X100824099Y-108187834D01*
X100825000Y-108192336D01*
X100825000Y-108557663D01*
X100821573Y-108565936D01*
X100817753Y-108568482D01*
X100244325Y-108804489D01*
X100235370Y-108804469D01*
X100230642Y-108800860D01*
X99904597Y-108382188D01*
X99902218Y-108373556D01*
X99904597Y-108367812D01*
X100230643Y-107949138D01*
X100238428Y-107944718D01*
X100244323Y-107945509D01*
G37*
G04 #@! TD.AperFunction*
G04 #@! TA.AperFunction,Conductor*
G36*
X101314629Y-107945530D02*
G01*
X101319356Y-107949138D01*
X101491899Y-108170700D01*
X101645401Y-108367811D01*
X101647781Y-108376444D01*
X101645401Y-108382189D01*
X101319358Y-108800859D01*
X101311571Y-108805281D01*
X101305674Y-108804489D01*
X100732247Y-108568482D01*
X100725901Y-108562165D01*
X100725000Y-108557663D01*
X100725000Y-108192336D01*
X100728427Y-108184063D01*
X100732245Y-108181517D01*
X101305676Y-107945510D01*
X101314629Y-107945530D01*
G37*
G04 #@! TD.AperFunction*
G04 #@! TA.AperFunction,Conductor*
G36*
X106383587Y-100508966D02*
G01*
X106640952Y-100766331D01*
X106644379Y-100774604D01*
X106643061Y-100779999D01*
X106254937Y-101526893D01*
X106248081Y-101532654D01*
X106240098Y-101532316D01*
X105804216Y-101352735D01*
X105797872Y-101346415D01*
X105797592Y-101345674D01*
X105641855Y-100884624D01*
X105642454Y-100875692D01*
X105647677Y-100870432D01*
X106370054Y-100506787D01*
X106378984Y-100506129D01*
X106383587Y-100508966D01*
G37*
G04 #@! TD.AperFunction*
G04 #@! TA.AperFunction,Conductor*
G36*
X107394914Y-99597288D02*
G01*
X107401612Y-99603232D01*
X107402356Y-99605196D01*
X107531356Y-100066860D01*
X107530282Y-100075751D01*
X107526619Y-100079717D01*
X106963392Y-100458631D01*
X106954615Y-100460405D01*
X106948588Y-100457196D01*
X106691589Y-100200197D01*
X106688162Y-100191924D01*
X106689104Y-100187324D01*
X106995714Y-99470638D01*
X107002118Y-99464382D01*
X107010296Y-99464185D01*
X107394914Y-99597288D01*
G37*
G04 #@! TD.AperFunction*
G04 #@! TA.AperFunction,Conductor*
G36*
X99394476Y-96773114D02*
G01*
X99401969Y-96778019D01*
X99403121Y-96780156D01*
X99561758Y-97165462D01*
X99561739Y-97174416D01*
X99556715Y-97180091D01*
X98888148Y-97559609D01*
X98879261Y-97560713D01*
X98874099Y-97557707D01*
X98617028Y-97300636D01*
X98613601Y-97292363D01*
X98614897Y-97287010D01*
X98921004Y-96692080D01*
X98927837Y-96686291D01*
X98933580Y-96685937D01*
X99394476Y-96773114D01*
G37*
G04 #@! TD.AperFunction*
G04 #@! TA.AperFunction,Conductor*
G36*
X105360604Y-101167972D02*
G01*
X105795783Y-101347264D01*
X105802127Y-101353584D01*
X105802411Y-101354338D01*
X105957903Y-101814660D01*
X105957304Y-101823594D01*
X105951324Y-101829202D01*
X105184726Y-102149093D01*
X105175771Y-102149116D01*
X105171947Y-102146568D01*
X105003522Y-101978143D01*
X105000095Y-101969870D01*
X105001065Y-101965205D01*
X105345422Y-101174119D01*
X105351865Y-101167903D01*
X105360604Y-101167972D01*
G37*
G04 #@! TD.AperFunction*
G04 #@! TA.AperFunction,Conductor*
G36*
X102550031Y-96393297D02*
G01*
X102553780Y-96396028D01*
X102893758Y-96767096D01*
X102896820Y-96775511D01*
X102893758Y-96782904D01*
X102553780Y-97153971D01*
X102545664Y-97157756D01*
X102541082Y-97157036D01*
X102032629Y-96968331D01*
X102026065Y-96962240D01*
X102025000Y-96957362D01*
X102025000Y-96592637D01*
X102028427Y-96584364D01*
X102032626Y-96581669D01*
X102541082Y-96392963D01*
X102550031Y-96393297D01*
G37*
G04 #@! TD.AperFunction*
G04 #@! TA.AperFunction,Conductor*
G36*
X101508917Y-96392963D02*
G01*
X102017372Y-96581669D01*
X102023935Y-96587759D01*
X102025000Y-96592637D01*
X102025000Y-96957362D01*
X102021573Y-96965635D01*
X102017371Y-96968331D01*
X101508917Y-97157036D01*
X101499968Y-97156702D01*
X101496219Y-97153971D01*
X101323539Y-96965500D01*
X101156240Y-96782902D01*
X101153179Y-96774489D01*
X101156240Y-96767097D01*
X101496219Y-96396027D01*
X101504335Y-96392243D01*
X101508917Y-96392963D01*
G37*
G04 #@! TD.AperFunction*
G04 #@! TA.AperFunction,Conductor*
G36*
X107407902Y-96106240D02*
G01*
X107611330Y-96292623D01*
X107778971Y-96446219D01*
X107782756Y-96454335D01*
X107782036Y-96458917D01*
X107593331Y-96967371D01*
X107587240Y-96973935D01*
X107582362Y-96975000D01*
X107217638Y-96975000D01*
X107209365Y-96971573D01*
X107206669Y-96967371D01*
X107017963Y-96458917D01*
X107018297Y-96449968D01*
X107021028Y-96446219D01*
X107392097Y-96106240D01*
X107400511Y-96103179D01*
X107407902Y-96106240D01*
G37*
G04 #@! TD.AperFunction*
G04 #@! TA.AperFunction,Conductor*
G36*
X107590635Y-96978427D02*
G01*
X107593331Y-96982629D01*
X107782036Y-97491082D01*
X107781702Y-97500031D01*
X107778971Y-97503780D01*
X107407904Y-97843758D01*
X107399489Y-97846820D01*
X107392096Y-97843758D01*
X107021028Y-97503780D01*
X107017243Y-97495664D01*
X107017963Y-97491082D01*
X107206669Y-96982629D01*
X107212760Y-96976065D01*
X107217638Y-96975000D01*
X107582362Y-96975000D01*
X107590635Y-96978427D01*
G37*
G04 #@! TD.AperFunction*
G04 #@! TA.AperFunction,Conductor*
G36*
X107407902Y-97856240D02*
G01*
X107611330Y-98042623D01*
X107778971Y-98196219D01*
X107782756Y-98204335D01*
X107782036Y-98208917D01*
X107593331Y-98717371D01*
X107587240Y-98723935D01*
X107582362Y-98725000D01*
X107217638Y-98725000D01*
X107209365Y-98721573D01*
X107206669Y-98717371D01*
X107017963Y-98208917D01*
X107018297Y-98199968D01*
X107021028Y-98196219D01*
X107392097Y-97856240D01*
X107400511Y-97853179D01*
X107407902Y-97856240D01*
G37*
G04 #@! TD.AperFunction*
G04 #@! TA.AperFunction,Conductor*
G36*
X107590635Y-98728427D02*
G01*
X107593331Y-98732629D01*
X107782036Y-99241082D01*
X107781702Y-99250031D01*
X107778971Y-99253780D01*
X107407904Y-99593758D01*
X107399489Y-99596820D01*
X107392096Y-99593758D01*
X107021028Y-99253780D01*
X107017243Y-99245664D01*
X107017963Y-99241082D01*
X107206669Y-98732629D01*
X107212760Y-98726065D01*
X107217638Y-98725000D01*
X107582362Y-98725000D01*
X107590635Y-98728427D01*
G37*
G04 #@! TD.AperFunction*
G04 #@! TA.AperFunction,Conductor*
G36*
X96969184Y-103346184D02*
G01*
X96972811Y-103348649D01*
X97231350Y-103607188D01*
X97234777Y-103615461D01*
X97233955Y-103619769D01*
X96689668Y-104994243D01*
X96683436Y-105000673D01*
X96674482Y-105000813D01*
X96674324Y-105000749D01*
X95903785Y-104682562D01*
X95897447Y-104676238D01*
X95579250Y-103905674D01*
X95579259Y-103896720D01*
X95585598Y-103890395D01*
X95585712Y-103890348D01*
X96960232Y-103346044D01*
X96969184Y-103346184D01*
G37*
G04 #@! TD.AperFunction*
G04 #@! TA.AperFunction,Conductor*
G36*
X96683279Y-104359259D02*
G01*
X96689604Y-104365598D01*
X96689668Y-104365756D01*
X97107787Y-105421622D01*
X97124345Y-105463436D01*
X97233955Y-105740230D01*
X97233815Y-105749184D01*
X97231350Y-105752811D01*
X96972811Y-106011350D01*
X96964538Y-106014777D01*
X96960230Y-106013955D01*
X95585756Y-105469668D01*
X95579326Y-105463436D01*
X95579186Y-105454482D01*
X95579218Y-105454402D01*
X95897438Y-104683783D01*
X95903759Y-104677448D01*
X96674325Y-104359250D01*
X96683279Y-104359259D01*
G37*
G04 #@! TD.AperFunction*
G04 #@! TA.AperFunction,Conductor*
G36*
X99247760Y-107753475D02*
G01*
X100014912Y-107922338D01*
X100022255Y-107927463D01*
X100023823Y-107936279D01*
X100023663Y-107936921D01*
X99902103Y-108370722D01*
X99896571Y-108377764D01*
X99896079Y-108378025D01*
X99436171Y-108608487D01*
X99427239Y-108609130D01*
X99421661Y-108605168D01*
X98978370Y-108029648D01*
X98976037Y-108021004D01*
X98979366Y-108014238D01*
X99236976Y-107756628D01*
X99245248Y-107753202D01*
X99247760Y-107753475D01*
G37*
G04 #@! TD.AperFunction*
G04 #@! TA.AperFunction,Conductor*
G36*
X99758917Y-96392963D02*
G01*
X100267372Y-96581669D01*
X100273935Y-96587759D01*
X100275000Y-96592637D01*
X100275000Y-96957362D01*
X100271573Y-96965635D01*
X100267371Y-96968331D01*
X99758917Y-97157036D01*
X99749968Y-97156702D01*
X99746219Y-97153971D01*
X99573539Y-96965500D01*
X99406240Y-96782902D01*
X99403179Y-96774489D01*
X99406240Y-96767097D01*
X99746219Y-96396027D01*
X99754335Y-96392243D01*
X99758917Y-96392963D01*
G37*
G04 #@! TD.AperFunction*
G04 #@! TA.AperFunction,Conductor*
G36*
X100800031Y-96393297D02*
G01*
X100803780Y-96396028D01*
X101143758Y-96767096D01*
X101146820Y-96775511D01*
X101143758Y-96782904D01*
X100803780Y-97153971D01*
X100795664Y-97157756D01*
X100791082Y-97157036D01*
X100282629Y-96968331D01*
X100276065Y-96962240D01*
X100275000Y-96957362D01*
X100275000Y-96592637D01*
X100278427Y-96584364D01*
X100282626Y-96581669D01*
X100791082Y-96392963D01*
X100800031Y-96393297D01*
G37*
G04 #@! TD.AperFunction*
G04 #@! TA.AperFunction,Conductor*
G36*
X104155220Y-100101191D02*
G01*
X104301970Y-100162888D01*
X104308269Y-100169254D01*
X104308638Y-100177052D01*
X104209386Y-100506141D01*
X104203716Y-100513073D01*
X104194806Y-100513965D01*
X104189911Y-100511036D01*
X104026636Y-100347761D01*
X104023438Y-100341792D01*
X103990211Y-100176381D01*
X103991942Y-100167595D01*
X103997179Y-100163277D01*
X104146186Y-100101176D01*
X104155140Y-100101158D01*
X104155220Y-100101191D01*
G37*
G04 #@! TD.AperFunction*
G04 #@! TA.AperFunction,Conductor*
G36*
X105366645Y-97691168D02*
G01*
X105744844Y-97846879D01*
X105751189Y-97853197D01*
X105751885Y-97855523D01*
X105838913Y-98315627D01*
X105837084Y-98324392D01*
X105831862Y-98328624D01*
X105192705Y-98591146D01*
X105183750Y-98591119D01*
X105179987Y-98588596D01*
X105011711Y-98420320D01*
X105008284Y-98412047D01*
X105009399Y-98407061D01*
X105189738Y-98024386D01*
X105192039Y-98021115D01*
X105285065Y-97928090D01*
X105328181Y-97853410D01*
X105350500Y-97770116D01*
X105350500Y-97701989D01*
X105353927Y-97693716D01*
X105362200Y-97690289D01*
X105366645Y-97691168D01*
G37*
G04 #@! TD.AperFunction*
G04 #@! TA.AperFunction,Conductor*
G36*
X104275068Y-99753427D02*
G01*
X104278387Y-99760110D01*
X104323187Y-100086786D01*
X104320915Y-100095448D01*
X104313185Y-100099968D01*
X104311662Y-100100076D01*
X104150067Y-100100999D01*
X104149933Y-100100999D01*
X103988337Y-100100076D01*
X103980084Y-100096602D01*
X103976704Y-100088309D01*
X103976812Y-100086786D01*
X104021613Y-99760110D01*
X104026133Y-99752379D01*
X104033205Y-99750000D01*
X104266795Y-99750000D01*
X104275068Y-99753427D01*
G37*
G04 #@! TD.AperFunction*
G04 #@! TA.AperFunction,Conductor*
G36*
X101811663Y-99349923D02*
G01*
X101819915Y-99353397D01*
X101823295Y-99361690D01*
X101823187Y-99363213D01*
X101778387Y-99689890D01*
X101773867Y-99697620D01*
X101766795Y-99700000D01*
X101533205Y-99700000D01*
X101524932Y-99696573D01*
X101521613Y-99689890D01*
X101476812Y-99363213D01*
X101479083Y-99354551D01*
X101486814Y-99350031D01*
X101488324Y-99349923D01*
X101650000Y-99349000D01*
X101811663Y-99349923D01*
G37*
G04 #@! TD.AperFunction*
G04 #@! TA.AperFunction,Conductor*
G36*
X105412077Y-102715162D02*
G01*
X105794072Y-103093145D01*
X105797543Y-103101400D01*
X105795511Y-103108052D01*
X105493798Y-103550681D01*
X105486306Y-103555587D01*
X105480598Y-103555245D01*
X104908168Y-103373986D01*
X104901315Y-103368222D01*
X104900000Y-103362832D01*
X104900000Y-103122972D01*
X104903427Y-103114699D01*
X104904321Y-103113892D01*
X105396474Y-102714394D01*
X105405057Y-102711842D01*
X105412077Y-102715162D01*
G37*
G04 #@! TD.AperFunction*
G04 #@! TA.AperFunction,Conductor*
G36*
X102842939Y-106034399D02*
G01*
X103555617Y-106370255D01*
X103561639Y-106376881D01*
X103561447Y-106385292D01*
X103403121Y-106769843D01*
X103396802Y-106776189D01*
X103394476Y-106776885D01*
X102934372Y-106863912D01*
X102925607Y-106862083D01*
X102921376Y-106856862D01*
X102658853Y-106217704D01*
X102658880Y-106208750D01*
X102661400Y-106204990D01*
X102829680Y-106036710D01*
X102837952Y-106033284D01*
X102842939Y-106034399D01*
G37*
G04 #@! TD.AperFunction*
G04 #@! TA.AperFunction,Conductor*
G36*
X105360290Y-99438551D02*
G01*
X105744844Y-99596879D01*
X105751189Y-99603197D01*
X105751885Y-99605523D01*
X105838913Y-100065627D01*
X105837084Y-100074392D01*
X105831862Y-100078624D01*
X105192705Y-100341146D01*
X105183750Y-100341119D01*
X105179987Y-100338596D01*
X105011711Y-100170320D01*
X105008284Y-100162047D01*
X105009399Y-100157061D01*
X105345256Y-99444380D01*
X105351881Y-99438360D01*
X105360290Y-99438551D01*
G37*
G04 #@! TD.AperFunction*
G04 #@! TA.AperFunction,Conductor*
G36*
X105360290Y-95938551D02*
G01*
X105744844Y-96096879D01*
X105751189Y-96103197D01*
X105751885Y-96105523D01*
X105838913Y-96565627D01*
X105837084Y-96574392D01*
X105831862Y-96578624D01*
X105192705Y-96841146D01*
X105183750Y-96841119D01*
X105179987Y-96838596D01*
X105011711Y-96670320D01*
X105008284Y-96662047D01*
X105009399Y-96657061D01*
X105345256Y-95944380D01*
X105351881Y-95938360D01*
X105360290Y-95938551D01*
G37*
G04 #@! TD.AperFunction*
G04 #@! TA.AperFunction,Conductor*
G36*
X102894476Y-98423114D02*
G01*
X102901969Y-98428019D01*
X102903121Y-98430156D01*
X103061448Y-98814707D01*
X103061429Y-98823661D01*
X103055617Y-98829745D01*
X102342940Y-99165599D01*
X102333995Y-99166026D01*
X102329679Y-99163288D01*
X102161403Y-98995012D01*
X102157976Y-98986739D01*
X102158852Y-98982296D01*
X102421376Y-98343136D01*
X102427688Y-98336787D01*
X102434369Y-98336087D01*
X102894476Y-98423114D01*
G37*
G04 #@! TD.AperFunction*
M02*
